Merriweather-HeadBlack.ufo
<glyph name="exclam" format="2">
  <advance width="562.2189781021897"/>
  <unicode hex="0021"/>
  <outline>
    <contour>
      <point x="462.978102189781" y="1780.0" type="line"/>
      <point x="90.65693430656934" y="1780.0" type="line"/>
      <point x="208.73722627737226" y="492.78832116788317" type="line"/>
      <point x="345.28467153284674" y="492.78832116788317" type="line"/>
    </contour>
    <contour>
      <point x="103.07299270072993" y="143.97080291970804" type="curve" smooth="yes"/>
      <point x="103.07299270072993" y="49.45255474452555"/>
      <point x="182.04379562043795" y="-16.0"/>
      <point x="265.7226277372263" y="-16.0" type="curve" smooth="yes"/>
      <point x="382.46715328467155" y="-16.0"/>
      <point x="463.82481751824815" y="47.065693430656935"/>
      <point x="463.82481751824815" y="158.19708029197082" type="curve" smooth="yes"/>
      <point x="463.82481751824815" y="240.4890510948905"/>
      <point x="402.6934306569343" y="318.7810218978102"/>
      <point x="294.94890510948903" y="318.7810218978102" type="curve" smooth="yes"/>
      <point x="188.8175182481752" y="318.7810218978102"/>
      <point x="103.07299270072993" y="248.10218978102188"/>
    </contour>
  </outline>
</glyph>
<glyph name="quotedbl" format="2">
  <advance width="1216.8832116788324"/>
  <unicode hex="0022"/>
  <outline>
    <contour>
      <point x="492.56204379562047" y="1682.0" type="line"/>
      <point x="209.94160583941607" y="1682.0" type="line"/>
      <point x="281.3795620437956" y="881.978102189781" type="line"/>
      <point x="419.1240875912408" y="881.978102189781" type="line"/>
    </contour>
    <contour>
      <point x="1009.1021897810218" y="1682.0" type="line"/>
      <point x="726.4817518248175" y="1682.0" type="line"/>
      <point x="797.9197080291972" y="881.978102189781" type="line"/>
      <point x="935.6642335766425" y="881.978102189781" type="line"/>
    </contour>
  </outline>
</glyph>
<glyph name="numbersign" format="2">
  <advance width="1399.8978102189783"/>
  <unicode hex="0023"/>
  <outline>
    <contour>
      <point x="367.2919708029197" y="413.0" type="line"/>
      <point x="303.2919708029197" y="0.0" type="line"/>
      <point x="401.94890510948903" y="0.0" type="line"/>
      <point x="466.94890510948903" y="413.0" type="line"/>
      <point x="811.948905109489" y="413.0" type="line"/>
      <point x="748.948905109489" y="0.0" type="line"/>
      <point x="847.6058394160584" y="0.0" type="line"/>
      <point x="910.6058394160584" y="413.0" type="line"/>
      <point x="1178.6058394160584" y="413.0" type="line"/>
      <point x="1206.6058394160584" y="616.0" type="line"/>
      <point x="942.6058394160584" y="616.0" type="line"/>
      <point x="992.6058394160584" y="907.0" type="line"/>
      <point x="1246.6058394160584" y="907.0" type="line"/>
      <point x="1274.6058394160584" y="1108.0" type="line"/>
      <point x="1021.6058394160584" y="1108.0" type="line"/>
      <point x="1091.6058394160584" y="1539.0" type="line"/>
      <point x="991.948905109489" y="1539.0" type="line"/>
      <point x="921.948905109489" y="1108.0" type="line"/>
      <point x="577.948905109489" y="1108.0" type="line"/>
      <point x="645.948905109489" y="1539.0" type="line"/>
      <point x="547.2919708029198" y="1539.0" type="line"/>
      <point x="479.2919708029197" y="1108.0" type="line"/>
      <point x="220.2919708029197" y="1108.0" type="line"/>
      <point x="192.2919708029197" y="907.0" type="line"/>
      <point x="448.2919708029197" y="907.0" type="line"/>
      <point x="401.2919708029197" y="616.0" type="line"/>
      <point x="153.2919708029197" y="616.0" type="line"/>
      <point x="125.2919708029197" y="413.0" type="line"/>
    </contour>
    <contour>
      <point x="843.948905109489" y="616.0" type="line"/>
      <point x="498.94890510948903" y="616.0" type="line"/>
      <point x="547.948905109489" y="907.0" type="line"/>
      <point x="892.948905109489" y="907.0" type="line"/>
    </contour>
  </outline>
</glyph>
<glyph name="dollar" format="2">
  <advance width="1340.065693430657"/>
  <unicode hex="0024"/>
  <outline>
    <contour>
      <point x="159.13138686131384" y="65.0" type="line"/>
      <point x="219.6131386861314" y="54.481751824817515"/>
      <point x="387.93430656934305" y="-11.86861313868613"/>
      <point x="602.7956204379562" y="-22.32116788321168" type="curve"/>
      <point x="601.5693430656935" y="-255.09489051094891" type="line"/>
      <point x="747.9416058394161" y="-255.09489051094891" type="line"/>
      <point x="749.1678832116788" y="-18.32116788321168" type="line"/>
      <point x="1062.6934306569342" y="19.065693430656935"/>
      <point x="1206.0" y="206.43065693430657"/>
      <point x="1206.0" y="421.54744525547443" type="curve" smooth="yes"/>
      <point x="1206.0" y="659.0583941605839"/>
      <point x="1015.6788321167884" y="767.7372262773722"/>
      <point x="827.0" y="871.5109489051094" type="curve" smooth="yes"/>
      <point x="654.8467153284672" y="965.4087591240875"/>
      <point x="510.02189781021895" y="1048.2773722627735"/>
      <point x="510.02189781021895" y="1198.3138686131388" type="curve" smooth="yes"/>
      <point x="510.02189781021895" y="1309.5693430656936"/>
      <point x="577.029197080292" y="1401.2408759124087"/>
      <point x="710.0" y="1401.2408759124087" type="curve" smooth="yes"/>
      <point x="776.3284671532847" y="1401.2408759124087"/>
      <point x="836.5547445255474" y="1379.3357664233579"/>
      <point x="875.0" y="1348.2408759124087" type="curve"/>
      <point x="920.9343065693431" y="1096.1313868613138" type="line"/>
      <point x="1104.0" y="1096.1313868613138" type="line"/>
      <point x="1119.868613138686" y="1432.0" type="line"/>
      <point x="1065.9999999999998" y="1443.1313868613138"/>
      <point x="900.948905109489" y="1496.029197080292"/>
      <point x="754.6861313868612" y="1502.7737226277372" type="curve"/>
      <point x="754.6861313868612" y="1726.963503649635" type="line"/>
      <point x="607.0875912408759" y="1726.963503649635" type="line"/>
      <point x="607.0875912408759" y="1501.5474452554745" type="line"/>
      <point x="326.8978102189781" y="1472.0291970802919"/>
      <point x="171.0" y="1311.6058394160584"/>
      <point x="171.0" y="1101.4890510948906" type="curve" smooth="yes"/>
      <point x="171.0" y="837.3649635036496"/>
      <point x="361.66423357664235" y="718.5912408759125"/>
      <point x="527.0" y="632.4890510948904" type="curve" smooth="yes"/>
      <point x="725.2919708029198" y="529.5547445255474"/>
      <point x="852.978102189781" y="443.97810218978105"/>
      <point x="852.978102189781" y="306.2043795620438" type="curve" smooth="yes"/>
      <point x="852.978102189781" y="177.17518248175185"/>
      <point x="786.8832116788321" y="86.05109489051094"/>
      <point x="627.4233576642337" y="86.05109489051094" type="curve" smooth="yes"/>
      <point x="532.5401459854014" y="86.05109489051094"/>
      <point x="466.37956204379566" y="113.18248175182482"/>
      <point x="420.3868613138686" y="154.05109489051094" type="curve"/>
      <point x="367.06569343065695" y="431.8686131386861" type="line"/>
      <point x="180.0" y="431.8686131386861" type="line"/>
    </contour>
  </outline>
</glyph>
<glyph name="percent" format="2">
  <advance width="2093.7153284671535"/>
  <unicode hex="0025"/>
  <outline>
    <contour>
      <point x="641.3284671532846" y="0.0" type="line"/>
      <point x="800.2919708029196" y="0.0" type="line"/>
      <point x="1446.3211678832117" y="1502.0" type="line"/>
      <point x="1287.3576642335765" y="1502.0" type="line"/>
    </contour>
    <contour>
      <point x="473.0" y="624.0" type="curve" smooth="yes"/>
      <point x="704.6131386861314" y="624.0"/>
      <point x="895.0" y="779.3868613138686"/>
      <point x="895.0" y="1063.3868613138686" type="curve" smooth="yes"/>
      <point x="895.0" y="1304.0"/>
      <point x="794.2262773722628" y="1495.3868613138686"/>
      <point x="509.3868613138686" y="1495.3868613138686" type="curve" smooth="yes"/>
      <point x="273.0" y="1495.3868613138686"/>
      <point x="89.0" y="1335.3868613138686"/>
      <point x="89.0" y="1051.3868613138686" type="curve" smooth="yes"/>
      <point x="89.0" y="815.9051094890511"/>
      <point x="220.38686131386862" y="624.0"/>
    </contour>
    <contour>
      <point x="490.61313868613144" y="725.5328467153284" type="curve" smooth="yes"/>
      <point x="387.86861313868616" y="725.5328467153284"/>
      <point x="353.6131386861314" y="874.4817518248175"/>
      <point x="353.6131386861314" y="1063.7737226277372" type="curve" smooth="yes"/>
      <point x="353.6131386861314" y="1273.4306569343066"/>
      <point x="391.0948905109489" y="1393.4014598540145"/>
      <point x="497.3868613138687" y="1393.4014598540145" type="curve" smooth="yes"/>
      <point x="599.9708029197079" y="1393.4014598540145"/>
      <point x="632.0" y="1254.4890510948906"/>
      <point x="632.0" y="1055.3868613138686" type="curve" smooth="yes"/>
      <point x="632.0" y="845.5036496350365"/>
      <point x="596.7445255474453" y="725.5328467153284"/>
    </contour>
    <contour>
      <point x="1581.7153284671535" y="19.999999999999996" type="curve" smooth="yes"/>
      <point x="1813.7153284671535" y="19.999999999999996"/>
      <point x="2004.7153284671535" y="176.0"/>
      <point x="2004.7153284671535" y="460.00000000000006" type="curve" smooth="yes"/>
      <point x="2004.7153284671535" y="700.0"/>
      <point x="1902.7153284671533" y="892.0"/>
      <point x="1618.7153284671535" y="892.0" type="curve" smooth="yes"/>
      <point x="1381.7153284671533" y="892.0"/>
      <point x="1197.7153284671533" y="732.0"/>
      <point x="1197.7153284671533" y="448.00000000000006" type="curve" smooth="yes"/>
      <point x="1197.7153284671533" y="216.99999999999997"/>
      <point x="1329.715328467153" y="19.999999999999996"/>
    </contour>
    <contour>
      <point x="1598.7153284671535" y="122.75912408759123" type="curve" smooth="yes"/>
      <point x="1496.5839416058395" y="122.75912408759123"/>
      <point x="1461.7153284671533" y="271.09489051094886"/>
      <point x="1461.7153284671533" y="461.0" type="curve" smooth="yes"/>
      <point x="1461.7153284671533" y="670.043795620438"/>
      <point x="1499.8102189781023" y="790.014598540146"/>
      <point x="1606.7153284671533" y="790.014598540146" type="curve" smooth="yes"/>
      <point x="1708.0729927007299" y="790.014598540146"/>
      <point x="1740.715328467153" y="650.4890510948904"/>
      <point x="1740.715328467153" y="452.00000000000006" type="curve" smooth="yes"/>
      <point x="1741.3284671532847" y="243.34306569343067"/>
      <point x="1704.8467153284669" y="122.75912408759123"/>
    </contour>
  </outline>
</glyph>
<glyph name="ampersand" format="2">
  <advance width="1539.3503649635038"/>
  <unicode hex="0026"/>
  <outline>
    <contour>
      <point x="1517.3503649635036" y="828.0" type="line"/>
      <point x="1058.956204379562" y="828.0" type="line"/>
      <point x="1058.956204379562" y="716.8467153284671" type="line"/>
      <point x="1192.5036496350365" y="684.7518248175182" type="line"/>
      <point x="1195.5693430656934" y="580.014598540146"/>
      <point x="1174.985401459854" y="453.51824817518246"/>
      <point x="1104.3138686131385" y="370.036496350365" type="curve"/>
      <point x="1008.4671532846714" y="460.20437956204375"/>
      <point x="898.6642335766423" y="594.6204379562045"/>
      <point x="746.6058394160584" y="791.6715328467153" type="curve"/>
      <point x="955.6861313868612" y="893.5182481751825"/>
      <point x="1088.6058394160584" y="1001.6788321167883"/>
      <point x="1088.6058394160584" y="1207.2262773722625" type="curve" smooth="yes"/>
      <point x="1088.6058394160584" y="1368.189781021898"/>
      <point x="960.4160583941606" y="1505.0"/>
      <point x="691.4160583941606" y="1505.0" type="curve" smooth="yes"/>
      <point x="394.8175182481752" y="1505.0"/>
      <point x="221.22627737226276" y="1335.0"/>
      <point x="221.22627737226276" y="1128.3503649635036" type="curve" smooth="yes"/>
      <point x="221.22627737226276" y="977.2481751824818"/>
      <point x="306.036496350365" y="850.4452554744526"/>
      <point x="406.4452554744526" y="719.6204379562045" type="curve"/>
      <point x="207.32846715328466" y="661.8467153284671"/>
      <point x="58.32116788321168" y="528.8467153284671"/>
      <point x="58.32116788321168" y="354.7153284671533" type="curve" smooth="yes"/>
      <point x="58.32116788321168" y="125.7080291970803"/>
      <point x="247.75182481751827" y="-22.0"/>
      <point x="579.3941605839416" y="-22.0" type="curve" smooth="yes"/>
      <point x="755.2335766423357" y="-22.0"/>
      <point x="882.2043795620439" y="22.576642335766422"/>
      <point x="963.3722627737226" y="91.7080291970803" type="curve"/>
      <point x="1053.2408759124087" y="22.81021897810219"/>
      <point x="1166.8394160583941" y="-14.613138686131387"/>
      <point x="1277.839416058394" y="-14.613138686131387" type="curve" smooth="yes"/>
      <point x="1334.1824817518248" y="-14.613138686131387"/>
      <point x="1454.153284671533" y="-2.2919708029197077"/>
      <point x="1479.189781021898" y="19.0" type="curve"/>
      <point x="1479.189781021898" y="112.8905109489051" type="line"/>
      <point x="1386.6058394160584" y="123.14598540145985"/>
      <point x="1251.1094890510947" y="231.18248175182484"/>
      <point x="1186.0072992700732" y="294.7956204379562" type="curve"/>
      <point x="1274.6131386861314" y="357.4744525547445"/>
      <point x="1375.2481751824819" y="515.8467153284671"/>
      <point x="1382.6058394160584" y="684.7518248175182" type="curve"/>
      <point x="1517.3503649635036" y="716.8467153284671" type="line"/>
    </contour>
    <contour>
      <point x="534.1240875912408" y="1197.4087591240873" type="curve" smooth="yes"/>
      <point x="534.1240875912408" y="1341.729927007299"/>
      <point x="584.0948905109489" y="1416.3430656934306"/>
      <point x="685.0948905109489" y="1416.3430656934306" type="curve" smooth="yes"/>
      <point x="786.7737226277372" y="1416.3430656934306"/>
      <point x="820.6715328467153" y="1303.7591240875913"/>
      <point x="820.6715328467153" y="1207.0656934306571" type="curve" smooth="yes"/>
      <point x="820.6715328467153" y="1073.4598540145987"/>
      <point x="787.5109489051096" y="954.5620437956204"/>
      <point x="687.5328467153286" y="863.3941605839416" type="curve"/>
      <point x="613.9635036496351" y="953.8321167883212"/>
      <point x="534.1240875912408" y="1075.3065693430658"/>
    </contour>
    <contour>
      <point x="684.7372262773723" y="112.8102189781022" type="curve" smooth="yes"/>
      <point x="473.5036496350365" y="112.81021897810218"/>
      <point x="356.6350364963504" y="240.94160583941607"/>
      <point x="356.6350364963504" y="405.1240875912409" type="curve" smooth="yes"/>
      <point x="356.6350364963504" y="516.7737226277372"/>
      <point x="406.80291970802915" y="593.8978102189781"/>
      <point x="464.81021897810217" y="641.1897810218978" type="curve"/>
      <point x="601.9927007299269" y="461.46715328467155"/>
      <point x="738.2846715328467" y="281.1678832116788"/>
      <point x="875.2554744525547" y="160.36496350364962" type="curve"/>
      <point x="827.1897810218978" y="133.07299270072994"/>
      <point x="757.7737226277372" y="112.81021897810218"/>
    </contour>
  </outline>
</glyph>
<glyph name="quotesingle" format="2">
  <advance width="702.5036496350364"/>
  <unicode hex="0027"/>
  <outline>
    <contour>
      <point x="492.5620437956204" y="1682.0" type="line"/>
      <point x="209.941605839416" y="1682.0" type="line"/>
      <point x="281.3795620437956" y="881.978102189781" type="line"/>
      <point x="419.1240875912409" y="881.978102189781" type="line"/>
    </contour>
  </outline>
</glyph>
<glyph name="parenleft" format="2">
  <advance width="884.0072992700731"/>
  <unicode hex="0028"/>
  <outline>
    <contour>
      <point x="97.97080291970802" y="668.0" type="curve" smooth="yes"/>
      <point x="97.97080291970802" y="-52.262773722627735"/>
      <point x="563.0583941605839" y="-326.45255474452557"/>
      <point x="665.8248175182482" y="-382.0" type="curve"/>
      <point x="748.970802919708" y="-316.66423357664235" type="line"/>
      <point x="633.2700729927008" y="-232.18978102189783"/>
      <point x="392.5109489051095" y="87.26277372262774"/>
      <point x="408.1240875912409" y="695.0" type="curve"/>
      <point x="421.5109489051095" y="1257.7372262773722"/>
      <point x="647.2700729927006" y="1533.5766423357663"/>
      <point x="750.9708029197081" y="1603.051094890511" type="curve"/>
      <point x="667.3722627737227" y="1670.0" type="line"/>
      <point x="548.6058394160584" y="1603.036496350365"/>
      <point x="97.97080291970802" y="1284.2627737226278"/>
    </contour>
  </outline>
</glyph>
<glyph name="asterisk" format="2">
  <advance width="1174.197080291971"/>
  <unicode hex="002A"/>
  <outline>
    <contour>
      <point x="263.05839416058393" y="1125.3211678832117" type="line"/>
      <point x="100.75912408759123" y="1045.7664233576643" type="line"/>
      <point x="214.44525547445255" y="853.2043795620438" type="line"/>
      <point x="362.7445255474452" y="961.7591240875912" type="line"/>
      <point x="550.4963503649635" y="1143.2189781021898" type="line"/>
      <point x="493.9124087591241" y="892.0145985401459" type="line"/>
      <point x="479.29927007299267" y="706.9051094890511" type="line"/>
      <point x="708.7372262773722" y="706.9051094890511" type="line"/>
      <point x="688.8978102189781" y="893.1751824817518" type="line"/>
      <point x="621.2481751824818" y="1141.3795620437957" type="line"/>
      <point x="817.8394160583941" y="966.3065693430657" type="line"/>
      <point x="962.07299270073" y="861.7518248175182" type="line"/>
      <point x="1078.2116788321168" y="1059.2189781021898" type="line"/>
      <point x="913.1386861313869" y="1134.094890510949" type="line"/>
      <point x="657.3503649635037" y="1203.065693430657" type="line"/>
      <point x="912.3649635036496" y="1279.197080291971" type="line"/>
      <point x="1072.8248175182482" y="1359.3649635036497" type="line"/>
      <point x="958.5255474452555" y="1551.3138686131388" type="line"/>
      <point x="807.7737226277372" y="1443.3722627737225" type="line"/>
      <point x="621.2481751824818" y="1263.7518248175184" type="line"/>
      <point x="678.4452554744526" y="1513.1167883211679" type="line"/>
      <point x="694.2846715328467" y="1697.0" type="line"/>
      <point x="463.6204379562044" y="1697.0" type="line"/>
      <point x="483.45985401459853" y="1508.890510948905" type="line"/>
      <point x="550.4963503649635" y="1260.6861313868615" type="line"/>
      <point x="357.5839416058394" y="1436.9854014598538" type="line"/>
      <point x="207.83211678832114" y="1542.153284671533" type="line"/>
      <point x="95.98540145985402" y="1348.978102189781" type="line"/>
      <point x="262.2846715328467" y="1273.4890510948903" type="line"/>
      <point x="514.3941605839416" y="1202.6788321167883" type="line"/>
    </contour>
  </outline>
</glyph>
<glyph name="comma" format="2">
  <advance width="620.6423357664233"/>
  <unicode hex="002C"/>
  <outline>
    <contour>
      <point x="311.8905109489051" y="342.91240875912405" type="curve"/>
      <point x="300.2773722627737" y="342.91240875912405" type="line" smooth="yes"/>
      <point x="204.98540145985402" y="342.91240875912405"/>
      <point x="140.7883211678832" y="285.2335766423358"/>
      <point x="140.7883211678832" y="194.3284671532847" type="curve" smooth="yes"/>
      <point x="140.7883211678832" y="46.64963503649635"/>
      <point x="280.13138686131384" y="48.58394160583942"/>
      <point x="280.13138686131384" y="-61.37956204379562" type="curve" smooth="yes"/>
      <point x="280.13138686131384" y="-179.2846715328467"/>
      <point x="223.970802919708" y="-330.9124087591241"/>
      <point x="149.68613138686132" y="-399.8394160583942" type="curve"/>
      <point x="149.68613138686132" y="-423.1678832116788" type="line"/>
      <point x="221.54014598540147" y="-471.1459854014598" type="line"/>
      <point x="223.54014598540147" y="-470.75912408759126" type="line"/>
      <point x="347.2408759124088" y="-405.70072992700733"/>
      <point x="503.63503649635044" y="-170.94160583941604"/>
      <point x="503.63503649635044" y="76.58394160583941" type="curve" smooth="yes"/>
      <point x="503.63503649635044" y="227.16788321167883"/>
      <point x="415.8905109489051" y="342.91240875912405"/>
    </contour>
  </outline>
</glyph>
<glyph name="hyphen" format="2">
  <advance width="1109.861313868613"/>
  <unicode hex="002D"/>
  <outline>
    <contour>
      <point x="939.9197080291972" y="693.6788321167883" type="line"/>
      <point x="169.94160583941607" y="693.6788321167883" type="line"/>
      <point x="169.94160583941607" y="530.4233576642335" type="line"/>
      <point x="939.9197080291972" y="530.4233576642335" type="line"/>
    </contour>
  </outline>
</glyph>
<glyph name="period" format="2">
  <advance width="573.1897810218977"/>
  <unicode hex="002E"/>
  <outline>
    <contour>
      <point x="269.78832116788317" y="-16.0" type="curve" smooth="yes"/>
      <point x="385.91970802919707" y="-16.0"/>
      <point x="467.27737226277367" y="47.67883211678832"/>
      <point x="467.27737226277367" y="158.81021897810217" type="curve" smooth="yes"/>
      <point x="467.27737226277367" y="241.71532846715326"/>
      <point x="406.1459854014599" y="320.6204379562044"/>
      <point x="299.0145985401459" y="320.6204379562044" type="curve" smooth="yes"/>
      <point x="192.8832116788321" y="320.6204379562044"/>
      <point x="106.52554744525548" y="249.32846715328466"/>
      <point x="106.52554744525548" y="145.1970802919708" type="curve" smooth="yes"/>
      <point x="106.52554744525548" y="50.67883211678832"/>
      <point x="184.8832116788321" y="-16.0"/>
    </contour>
  </outline>
</glyph>
<glyph name="slash" format="2">
  <advance width="765.3941605839416"/>
  <unicode hex="002F"/>
  <outline>
    <contour>
      <point x="709.905109489051" y="1562.0" type="line"/>
      <point x="537.036496350365" y="1562.0" type="line"/>
      <point x="55.48905109489052" y="-354.0" type="line"/>
      <point x="230.35766423357663" y="-354.0" type="line"/>
    </contour>
  </outline>
</glyph>
<glyph name="zero" format="2">
  <advance width="1337.810218978102"/>
  <unicode hex="0030"/>
  <outline>
    <contour>
      <point x="639.5182481751825" y="-21.0" type="curve" smooth="yes"/>
      <point x="1023.7664233576643" y="-21.0"/>
      <point x="1258.6423357664235" y="239.7007299270073"/>
      <point x="1258.6423357664235" y="770.7664233576642" type="curve" smooth="yes"/>
      <point x="1258.6423357664235" y="1259.058394160584"/>
      <point x="1042.1240875912408" y="1505.0"/>
      <point x="698.9051094890511" y="1505.0" type="curve" smooth="yes"/>
      <point x="332.978102189781" y="1505.0"/>
      <point x="80.16788321167883" y="1247.5255474452554"/>
      <point x="79.16788321167884" y="713.4598540145986" type="curve" smooth="yes"/>
      <point x="78.16788321167883" y="231.87591240875915"/>
      <point x="289.5912408759125" y="-21.0"/>
    </contour>
    <contour>
      <point x="671.9051094890511" y="81.98540145985402" type="curve" smooth="yes"/>
      <point x="538.1605839416058" y="81.98540145985402"/>
      <point x="466.99999999999994" y="230.05109489051094"/>
      <point x="466.99999999999994" y="736.7153284671533" type="curve" smooth="yes"/>
      <point x="466.99999999999994" y="1283.094890510949"/>
      <point x="547.6788321167884" y="1401.3065693430656"/>
      <point x="668.5182481751825" y="1401.3065693430656" type="curve" smooth="yes"/>
      <point x="797.6496350364963" y="1401.3065693430656"/>
      <point x="870.8102189781022" y="1290.2408759124087"/>
      <point x="870.8102189781022" y="729.7372262773723" type="curve" smooth="yes"/>
      <point x="870.8102189781022" y="228.74452554744525"/>
      <point x="813.9051094890511" y="81.98540145985402"/>
    </contour>
  </outline>
</glyph>
<glyph name="one" format="2">
  <advance width="922.2043795620438"/>
  <unicode hex="0031"/>
  <outline>
    <contour>
      <point x="317.08029197080293" y="121.05109489051094" type="line"/>
      <point x="91.43065693430657" y="94.40875912408758" type="line"/>
      <point x="91.43065693430657" y="0.0" type="line"/>
      <point x="889.5547445255474" y="0.0" type="line"/>
      <point x="889.5547445255474" y="94.40875912408758" type="line"/>
      <point x="676.3284671532847" y="122.27737226277371" type="line"/>
      <point x="676.3284671532847" y="1486.0" type="line"/>
      <point x="499.59124087591243" y="1506.0" type="line"/>
      <point x="492.17518248175185" y="1506.0" type="line"/>
      <point x="402.8175182481752" y="1420.5839416058395"/>
      <point x="222.57664233576642" y="1318.7883211678832"/>
      <point x="44.13868613138686" y="1284.919708029197" type="curve"/>
      <point x="66.7883211678832" y="1162.1824817518248" type="line"/>
      <point x="131.43065693430657" y="1165.087591240876"/>
      <point x="273.4014598540146" y="1194.3795620437954"/>
      <point x="317.46715328467155" y="1209.153284671533" type="curve"/>
    </contour>
  </outline>
</glyph>
<glyph name="two" format="2">
  <advance width="1168.0"/>
  <unicode hex="0032"/>
  <outline>
    <contour>
      <point x="16.204379562043794" y="134.76642335766422" type="curve"/>
      <point x="72.71532846715328" y="0.0" type="line"/>
      <point x="1049.6204379562043" y="0.0" type="line"/>
      <point x="1118.7080291970801" y="392.8175182481752" type="line"/>
      <point x="1009.3357664233577" y="419.2700729927007" type="line"/>
      <point x="928.6277372262774" y="267.45985401459853" type="line"/>
      <point x="281.3284671532847" y="191.47445255474452" type="line"/>
      <point x="678.7883211678832" y="401.021897810219"/>
      <point x="1034.3868613138686" y="758.0145985401459"/>
      <point x="1034.3868613138686" y="1078.897810218978" type="curve" smooth="yes"/>
      <point x="1034.3868613138686" y="1342.7664233576645"/>
      <point x="838.0802919708028" y="1504.0"/>
      <point x="557.8686131386861" y="1504.0" type="curve" smooth="yes"/>
      <point x="288.07299270072997" y="1504.0"/>
      <point x="120.45255474452554" y="1354.978102189781"/>
      <point x="34.7080291970803" y="1241.8102189781018" type="curve"/>
      <point x="111.62773722627736" y="1149.7299270072992" type="line"/>
      <point x="187.68613138686132" y="1222.948905109489"/>
      <point x="295.7445255474453" y="1299.2773722627737"/>
      <point x="434.97810218978105" y="1299.2773722627737" type="curve" smooth="yes"/>
      <point x="575.6204379562045" y="1299.2773722627737"/>
      <point x="664.3357664233577" y="1204.5766423357663"/>
      <point x="664.3357664233577" y="1017.7445255474454" type="curve" smooth="yes"/>
      <point x="664.3357664233577" y="696.8467153284671"/>
      <point x="356.065693430657" y="335.2846715328467"/>
    </contour>
  </outline>
</glyph>
<glyph name="three" format="2">
  <advance width="1122.7883211678832"/>
  <unicode hex="0033"/>
  <outline>
    <contour>
      <point x="347.8978102189781" y="-33.67883211678832" type="curve" smooth="yes"/>
      <point x="750.8613138686131" y="-33.67883211678832"/>
      <point x="1044.5547445255474" y="169.59124087591238"/>
      <point x="1043.9416058394158" y="456.2335766423358" type="curve" smooth="yes"/>
      <point x="1043.3284671532847" y="683.1532846715328"/>
      <point x="823.5328467153286" y="806.1532846715329"/>
      <point x="524.3284671532847" y="762.4233576642335" type="curve"/>
      <point x="756.2116788321168" y="828.1678832116787"/>
      <point x="965.3941605839416" y="968.7080291970804"/>
      <point x="965.3941605839416" y="1187.3795620437957" type="curve" smooth="yes"/>
      <point x="965.3941605839416" y="1406.0"/>
      <point x="769.007299270073" y="1503.3868613138686"/>
      <point x="533.5474452554746" y="1503.3868613138686" type="curve" smooth="yes"/>
      <point x="327.065693430657" y="1503.3868613138686"/>
      <point x="129.86131386861314" y="1409.3503649635036"/>
      <point x="37.167883211678834" y="1319.4306569343064" type="curve"/>
      <point x="103.40145985401459" y="1213.0875912408758" type="line"/>
      <point x="170.0729927007299" y="1263.5036496350365"/>
      <point x="267.75912408759126" y="1319.8248175182482"/>
      <point x="402.5620437956204" y="1319.8248175182482" type="curve" smooth="yes"/>
      <point x="503.0802919708029" y="1319.8248175182482"/>
      <point x="599.5985401459853" y="1267.956204379562"/>
      <point x="599.5985401459855" y="1128.3503649635036" type="curve" smooth="yes"/>
      <point x="599.5985401459855" y="1003.4233576642335"/>
      <point x="519.8613138686131" y="897.6569343065694"/>
      <point x="382.94890510948903" y="836.4598540145985" type="curve" smooth="yes"/>
      <point x="337.8175182481752" y="816.0072992700731"/>
      <point x="279.2700729927007" y="794.8467153284671"/>
      <point x="227.91240875912408" y="785.4598540145986" type="curve"/>
      <point x="258.59854014598545" y="673.3503649635037" type="line"/>
      <point x="290.3722627737225" y="681.1240875912409"/>
      <point x="350.17518248175185" y="698.6058394160584"/>
      <point x="384.2700729927007" y="707.3795620437957" type="curve"/>
      <point x="559.5328467153283" y="701.861313868613"/>
      <point x="655.4014598540145" y="604.3868613138685"/>
      <point x="655.4014598540145" y="435.0656934306569" type="curve" smooth="yes"/>
      <point x="655.4014598540145" y="246.3941605839416"/>
      <point x="518.7810218978102" y="109.59854014598541"/>
      <point x="270.57664233576645" y="109.59854014598541" type="curve" smooth="yes"/>
      <point x="190.41605839416061" y="109.59854014598541"/>
      <point x="123.2919708029197" y="118.82481751824817"/>
      <point x="56.07299270072993" y="143.01459854014598" type="curve"/>
      <point x="50.65693430656934" y="14.927007299270075" type="line"/>
      <point x="109.43065693430657" y="-10.102189781021897"/>
      <point x="236.94160583941604" y="-33.67883211678832"/>
    </contour>
  </outline>
</glyph>
<glyph name="four" format="2">
  <advance width="1280.6861313868612"/>
  <unicode hex="0034"/>
  <outline>
    <contour>
      <point x="725.8832116788321" y="0.0" type="line"/>
      <point x="1042.5109489051094" y="0.0" type="line"/>
      <point x="1042.5109489051094" y="276.4744525547445" type="line"/>
      <point x="1244.8175182481752" y="276.4744525547445" type="line"/>
      <point x="1244.8175182481752" y="477.8759124087592" type="line"/>
      <point x="1042.1240875912408" y="465.42335766423355" type="line"/>
      <point x="1042.1240875912408" y="857.1897810218978" type="line"/>
      <point x="754.3357664233575" y="833.0" type="line"/>
      <point x="727.8832116788321" y="438.2992700729927" type="line"/>
      <point x="299.3357664233577" y="397.20437956204375" type="line"/>
      <point x="418.82481751824815" y="557.5328467153284" type="line"/>
      <point x="880.7299270072994" y="1361.2335766423357" type="line"/>
      <point x="601.0875912408759" y="1501.0" type="line"/>
      <point x="512.1897810218978" y="1501.0" type="line"/>
      <point x="398.57664233576645" y="1198.6058394160584"/>
      <point x="192.970802919708" y="698.1313868613139"/>
      <point x="39.97080291970803" y="408.6569343065693" type="curve"/>
      <point x="114.58394160583941" y="276.4744525547445" type="line"/>
      <point x="725.8832116788321" y="276.4744525547445" type="line"/>
    </contour>
  </outline>
</glyph>
<glyph name="five" format="2">
  <advance width="1146.7226277372263"/>
  <unicode hex="0035"/>
  <outline>
    <contour>
      <point x="93.33576642335767" y="105.78832116788321" type="curve"/>
      <point x="93.72262773722629" y="-8.94160583941606" type="line"/>
      <point x="153.26277372262774" y="-28.83941605839416"/>
      <point x="245.04379562043798" y="-34.54744525547445"/>
      <point x="302.5839416058394" y="-33.386861313868614" type="curve" smooth="yes"/>
      <point x="725.3868613138687" y="-28.357664233576642"/>
      <point x="1067.5547445255474" y="186.48175182481754"/>
      <point x="1067.5547445255474" y="553.2919708029198" type="curve" smooth="yes"/>
      <point x="1067.5547445255474" y="799.5109489051094"/>
      <point x="921.5620437956204" y="940.5182481751825"/>
      <point x="643.3576642335767" y="940.5182481751825" type="curve" smooth="yes"/>
      <point x="481.81751824817525" y="940.5182481751825"/>
      <point x="333.0" y="860.7810218978102"/>
      <point x="258.8175182481752" y="799.5109489051094" type="curve"/>
      <point x="360.02919708029196" y="1225.109489051095" type="line"/>
      <point x="970.8102189781023" y="1225.109489051095" type="line"/>
      <point x="1016.4233576642335" y="1524.0" type="line"/>
      <point x="894.7956204379562" y="1524.0" type="line"/>
      <point x="871.7007299270073" y="1486.0" type="line"/>
      <point x="185.16788321167883" y="1486.0" type="line"/>
      <point x="87.23357664233576" y="733.2919708029198" type="line"/>
      <point x="162.0729927007299" y="684.0" type="line"/>
      <point x="235.35766423357663" y="724.4452554744526"/>
      <point x="345.1678832116788" y="744.8686131386862"/>
      <point x="440.8759124087591" y="744.8686131386862" type="curve" smooth="yes"/>
      <point x="607.5547445255474" y="744.8686131386862"/>
      <point x="699.9781021897811" y="652.0802919708029"/>
      <point x="699.9781021897811" y="483.2335766423358" type="curve" smooth="yes"/>
      <point x="699.9781021897811" y="256.91970802919707"/>
      <point x="510.2554744525547" y="100.01459854014598"/>
      <point x="256.1459854014599" y="96.53284671532846" type="curve" smooth="yes"/>
      <point x="197.7080291970803" y="94.98540145985402"/>
      <point x="139.45985401459853" y="98.91970802919708"/>
    </contour>
  </outline>
</glyph>
<glyph name="six" format="2">
  <advance width="1257.0875912408758"/>
  <unicode hex="0036"/>
  <outline>
    <contour>
      <point x="634.1897810218978" y="-34.386861313868614" type="curve" smooth="yes"/>
      <point x="973.6204379562043" y="-34.386861313868614"/>
      <point x="1195.1824817518248" y="166.59124087591238"/>
      <point x="1195.1824817518248" y="491.9270072992701" type="curve" smooth="yes"/>
      <point x="1195.1824817518248" y="783.3430656934306"/>
      <point x="1020.8978102189782" y="944.3211678832116"/>
      <point x="781.014598540146" y="944.3211678832116" type="curve" smooth="yes"/>
      <point x="643.4014598540147" y="944.3211678832116"/>
      <point x="537.2846715328467" y="890.1313868613138"/>
      <point x="469.16058394160586" y="808.4087591240875" type="curve"/>
      <point x="526.9124087591241" y="1074.0145985401462"/>
      <point x="668.1459854014598" y="1337.2773722627737"/>
      <point x="988.5766423357665" y="1423.2773722627735" type="curve"/>
      <point x="936.8905109489051" y="1520.0656934306571" type="line"/>
      <point x="492.985401459854" y="1484.897810218978"/>
      <point x="79.55474452554745" y="1088.905109489051"/>
      <point x="79.55474452554745" y="577.8613138686131" type="curve" smooth="yes"/>
      <point x="79.55474452554745" y="224.45255474452551"/>
      <point x="273.6131386861314" y="-34.386861313868614"/>
    </contour>
    <contour>
      <point x="644.934306569343" y="781.4160583941605" type="curve" smooth="yes"/>
      <point x="772.3503649635036" y="781.4160583941606"/>
      <point x="830.2262773722626" y="645.7591240875912"/>
      <point x="830.2262773722626" y="412.97080291970804" type="curve" smooth="yes"/>
      <point x="830.2262773722626" y="205.35766423357663"/>
      <point x="777.6131386861315" y="72.91970802919708"/>
      <point x="641.9343065693431" y="72.91970802919708" type="curve" smooth="yes"/>
      <point x="505.15328467153284" y="72.91970802919708"/>
      <point x="441.54014598540147" y="222.9270072992701"/>
      <point x="441.54014598540147" y="523.4890510948906" type="curve" smooth="yes"/>
      <point x="441.54014598540147" y="593.2919708029198"/>
      <point x="445.54014598540147" y="645.8686131386861"/>
      <point x="449.54014598540147" y="689.0291970802919" type="curve"/>
      <point x="483.99270072992704" y="727.8686131386861"/>
      <point x="547.92700729927" y="781.4160583941606"/>
    </contour>
  </outline>
</glyph>
<glyph name="seven" format="2">
  <advance width="1184.0948905109487"/>
  <unicode hex="0037"/>
  <outline>
    <contour>
      <point x="675.4306569343065" y="0.0" type="line"/>
      <point x="1148.0802919708028" y="1419.6715328467153" type="line"/>
      <point x="1092.3357664233577" y="1486.0" type="line"/>
      <point x="124.88321167883211" y="1486.0" type="line"/>
      <point x="65.85401459854015" y="1008.5182481751824" type="line"/>
      <point x="208.07299270072994" y="979.0291970802919" type="line"/>
      <point x="312.7591240875912" y="1246.6715328467155" type="line"/>
      <point x="907.4963503649635" y="1255.2554744525546" type="line"/>
      <point x="734.4817518248176" y="886.5401459854014"/>
      <point x="522.934306569343" y="465.1021897810219"/>
      <point x="271.8540145985401" y="0.0" type="curve"/>
    </contour>
  </outline>
</glyph>
<glyph name="eight" format="2">
  <advance width="1277.4817518248176"/>
  <unicode hex="0038"/>
  <outline>
    <contour>
      <point x="78.00729927007299" y="357.45255474452557" type="curve" smooth="yes"/>
      <point x="78.00729927007299" y="95.58394160583941"/>
      <point x="341.94160583941607" y="-22.0"/>
      <point x="626.2554744525547" y="-22.0" type="curve" smooth="yes"/>
      <point x="957.0291970802921" y="-22.0"/>
      <point x="1199.4744525547444" y="143.97080291970804"/>
      <point x="1199.4744525547444" y="400.021897810219" type="curve" smooth="yes"/>
      <point x="1199.4744525547444" y="617.9562043795619"/>
      <point x="1042.4744525547444" y="729.1897810218978"/>
      <point x="842.5547445255476" y="838.4744525547446" type="curve"/>
      <point x="1020.6788321167884" y="906.8029197080293"/>
      <point x="1123.0875912408758" y="1021.8394160583941"/>
      <point x="1123.0875912408758" y="1173.5766423357663" type="curve" smooth="yes"/>
      <point x="1123.0875912408758" y="1377.9562043795622"/>
      <point x="939.8102189781023" y="1506.0"/>
      <point x="655.8029197080291" y="1506.0" type="curve" smooth="yes"/>
      <point x="381.1313868613139" y="1506.0"/>
      <point x="140.6204379562044" y="1362.8686131386862"/>
      <point x="140.6204379562044" y="1104.7445255474454" type="curve" smooth="yes"/>
      <point x="140.6204379562044" y="936.4087591240875"/>
      <point x="240.36496350364965" y="798.2919708029198"/>
      <point x="391.1897810218978" y="705.3284671532847" type="curve"/>
      <point x="196.8029197080292" y="645.3211678832116"/>
      <point x="78.00729927007299" y="509.51094890510944"/>
    </contour>
    <contour>
      <point x="444.3868613138687" y="1200.4087591240875" type="curve" smooth="yes"/>
      <point x="444.3868613138687" y="1332.2116788321168"/>
      <point x="543.6131386861315" y="1405.5328467153286"/>
      <point x="655.0291970802921" y="1405.5328467153286" type="curve" smooth="yes"/>
      <point x="800.5109489051096" y="1405.5328467153286"/>
      <point x="871.1605839416059" y="1300.7956204379561"/>
      <point x="871.1605839416059" y="1145.4379562043796" type="curve" smooth="yes"/>
      <point x="871.1605839416059" y="1043.8321167883214"/>
      <point x="827.2554744525546" y="945.0000000000001"/>
      <point x="752.6058394160583" y="887.7080291970804" type="curve"/>
      <point x="591.1897810218977" y="973.7080291970804"/>
      <point x="444.3868613138687" y="1047.3868613138684"/>
    </contour>
    <contour>
      <point x="863.8029197080292" y="300.6277372262774" type="curve" smooth="yes"/>
      <point x="863.8029197080292" y="161.91970802919707"/>
      <point x="752.0583941605839" y="82.98540145985403"/>
      <point x="631.4817518248175" y="82.98540145985403" type="curve" smooth="yes"/>
      <point x="453.5474452554745" y="82.98540145985403"/>
      <point x="353.6131386861314" y="217.52554744525548"/>
      <point x="353.6131386861314" y="399.6496350364964" type="curve" smooth="yes"/>
      <point x="353.6131386861314" y="516.7372262773722"/>
      <point x="401.9051094890511" y="601.7080291970802"/>
      <point x="473.71532846715326" y="654.5474452554745" type="curve"/>
      <point x="674.3503649635037" y="553.3211678832116"/>
      <point x="863.8029197080292" y="475.64963503649636"/>
    </contour>
  </outline>
</glyph>
<glyph name="nine" format="2">
  <advance width="1262.153284671533"/>
  <unicode hex="0039"/>
  <outline>
    <contour>
      <point x="626.3503649635037" y="1506.0" type="curve" smooth="yes"/>
      <point x="284.1459854014599" y="1505.6131386861314"/>
      <point x="61.90510948905109" y="1280.240875912409"/>
      <point x="61.90510948905109" y="965.8686131386861" type="curve" smooth="yes"/>
      <point x="61.90510948905109" y="661.5547445255474"/>
      <point x="261.1240875912409" y="489.8029197080292"/>
      <point x="497.7810218978102" y="489.8029197080292" type="curve" smooth="yes"/>
      <point x="626.7445255474453" y="489.8029197080292"/>
      <point x="728.5693430656934" y="542.2189781021898"/>
      <point x="784.2481751824818" y="627.0364963503649" type="curve"/>
      <point x="731.4014598540147" y="361.87591240875906"/>
      <point x="593.6861313868613" y="105.61313868613139"/>
      <point x="279.64233576642334" y="18.583941605839417" type="curve"/>
      <point x="329.32846715328463" y="-77.43065693430657" type="line"/>
      <point x="774.5255474452556" y="-45.620437956204384"/>
      <point x="1182.5985401459857" y="352.75912408759126"/>
      <point x="1182.5985401459857" y="876.3284671532847" type="curve" smooth="yes"/>
      <point x="1182.5985401459857" y="1246.3211678832117"/>
      <point x="992.6715328467153" y="1506.3868613138686"/>
    </contour>
    <contour>
      <point x="610.7372262773723" y="655.0948905109489" type="curve" smooth="yes"/>
      <point x="482.6131386861313" y="655.0948905109489"/>
      <point x="425.6350364963504" y="795.5255474452556"/>
      <point x="425.6350364963504" y="1035.087591240876" type="curve" smooth="yes"/>
      <point x="425.6350364963504" y="1234.7591240875913"/>
      <point x="477.70072992700733" y="1399.4671532846714"/>
      <point x="613.7664233576642" y="1399.0802919708028" type="curve" smooth="yes"/>
      <point x="758.970802919708" y="1398.6934306569342"/>
      <point x="814.7080291970802" y="1224.8759124087592"/>
      <point x="814.7080291970802" y="919.5985401459853" type="curve" smooth="yes"/>
      <point x="814.7080291970802" y="853.1605839416059"/>
      <point x="809.4817518248175" y="794.4160583941605"/>
      <point x="805.0948905109489" y="746.7372262773722" type="curve"/>
      <point x="764.1313868613139" y="697.065693430657"/>
      <point x="688.5182481751825" y="655.0948905109489"/>
    </contour>
  </outline>
</glyph>
<glyph name="colon" format="2">
  <advance width="658.7445255474453"/>
  <unicode hex="003A"/>
  <outline>
    <contour>
      <point x="311.7591240875913" y="762.2773722627737" type="curve" smooth="yes"/>
      <point x="428.5036496350365" y="762.2773722627737"/>
      <point x="509.24817518248176" y="825.9562043795621"/>
      <point x="509.24817518248176" y="937.0875912408759" type="curve" smooth="yes"/>
      <point x="509.24817518248176" y="1019.992700729927"/>
      <point x="448.72992700729924" y="1098.897810218978"/>
      <point x="340.98540145985396" y="1098.897810218978" type="curve" smooth="yes"/>
      <point x="234.85401459854015" y="1098.897810218978"/>
      <point x="148.49635036496352" y="1027.6058394160584"/>
      <point x="148.49635036496352" y="922.8613138686131" type="curve" smooth="yes"/>
      <point x="148.49635036496352" y="828.9562043795621"/>
      <point x="226.85401459854015" y="762.2773722627737"/>
    </contour>
    <contour>
      <point x="312.1459854014599" y="-16.0" type="curve" smooth="yes"/>
      <point x="428.8905109489051" y="-16.0"/>
      <point x="509.6350364963503" y="47.67883211678832"/>
      <point x="509.6350364963503" y="158.81021897810217" type="curve" smooth="yes"/>
      <point x="509.6350364963503" y="241.71532846715326"/>
      <point x="449.11678832116786" y="320.6204379562044"/>
      <point x="341.3722627737226" y="320.6204379562044" type="curve" smooth="yes"/>
      <point x="235.24087591240877" y="320.6204379562044"/>
      <point x="148.8832116788321" y="249.32846715328466"/>
      <point x="148.8832116788321" y="145.1970802919708" type="curve" smooth="yes"/>
      <point x="148.8832116788321" y="50.67883211678832"/>
      <point x="227.24087591240874" y="-16.0"/>
    </contour>
  </outline>
</glyph>
<glyph name="semicolon" format="2">
  <advance width="597.5620437956204"/>
  <unicode hex="003B"/>
  <outline>
    <contour>
      <point x="298.40145985401455" y="762.2773722627737" type="curve" smooth="yes"/>
      <point x="414.53284671532845" y="762.2773722627737"/>
      <point x="495.8905109489051" y="825.9562043795621"/>
      <point x="495.8905109489051" y="937.0875912408759" type="curve" smooth="yes"/>
      <point x="495.8905109489051" y="1019.992700729927"/>
      <point x="435.37226277372264" y="1098.897810218978"/>
      <point x="327.62773722627736" y="1098.897810218978" type="curve" smooth="yes"/>
      <point x="221.49635036496352" y="1098.897810218978"/>
      <point x="135.13868613138686" y="1027.6058394160584"/>
      <point x="135.13868613138686" y="922.8613138686131" type="curve" smooth="yes"/>
      <point x="135.13868613138686" y="828.9562043795621"/>
      <point x="213.49635036496352" y="762.2773722627737"/>
    </contour>
    <contour>
      <point x="318.8540145985402" y="342.91240875912405" type="curve"/>
      <point x="307.24087591240874" y="342.91240875912405" type="line" smooth="yes"/>
      <point x="211.94890510948903" y="342.91240875912405"/>
      <point x="147.75182481751824" y="285.2335766423358"/>
      <point x="147.75182481751824" y="194.3284671532847" type="curve" smooth="yes"/>
      <point x="147.75182481751824" y="46.64963503649635"/>
      <point x="287.09489051094886" y="48.58394160583942"/>
      <point x="287.09489051094886" y="-61.37956204379562" type="curve" smooth="yes"/>
      <point x="287.09489051094886" y="-179.2846715328467"/>
      <point x="230.93430656934305" y="-330.9124087591241"/>
      <point x="156.64963503649636" y="-399.8394160583942" type="curve"/>
      <point x="156.64963503649636" y="-423.1678832116788" type="line"/>
      <point x="228.50364963503648" y="-471.1459854014598" type="line"/>
      <point x="230.50364963503648" y="-470.75912408759126" type="line"/>
      <point x="354.2043795620438" y="-405.70072992700733"/>
      <point x="510.59854014598545" y="-170.94160583941604"/>
      <point x="510.59854014598545" y="76.58394160583941" type="curve" smooth="yes"/>
      <point x="510.59854014598545" y="227.16788321167883"/>
      <point x="422.8540145985402" y="342.91240875912405"/>
    </contour>
  </outline>
</glyph>
<glyph name="less" format="2">
  <advance width="1330.2627737226278"/>
  <unicode hex="003C"/>
  <outline>
    <contour>
      <point x="1106.1313868613138" y="1088.4014598540145" type="line"/>
      <point x="160.13138686131387" y="614.1678832116788" type="line"/>
      <point x="160.13138686131387" y="510.67153284671537" type="line"/>
      <point x="1106.1313868613138" y="39.5985401459854" type="line"/>
      <point x="1106.1313868613138" y="216.59854014598542" type="line"/>
      <point x="384.014598540146" y="563.2262773722628" type="line"/>
      <point x="1106.1313868613138" y="908.4963503649635" type="line"/>
    </contour>
  </outline>
</glyph>
<glyph name="equal" format="2">
  <advance width="1243.7372262773724"/>
  <unicode hex="003D"/>
  <outline>
    <contour>
      <point x="1073.7956204379564" y="953.4233576642335" type="line"/>
      <point x="169.94160583941607" y="953.4233576642335" type="line"/>
      <point x="169.94160583941607" y="798.7518248175182" type="line"/>
      <point x="1073.7956204379564" y="798.7518248175182" type="line"/>
    </contour>
    <contour>
      <point x="1073.7956204379564" y="423.41605839416053" type="line"/>
      <point x="169.94160583941607" y="423.41605839416053" type="line"/>
      <point x="169.94160583941607" y="268.7445255474453" type="line"/>
      <point x="1073.7956204379564" y="268.7445255474453" type="line"/>
    </contour>
  </outline>
</glyph>
<glyph name="greater" format="2">
  <advance width="1330.2627737226278"/>
  <unicode hex="003E"/>
  <outline>
    <contour>
      <point x="1170.1313868613138" y="533.5839416058394" type="line"/>
      <point x="1170.1313868613138" y="637.0802919708029" type="line"/>
      <point x="224.13138686131387" y="1111.3138686131388" type="line"/>
      <point x="224.13138686131387" y="931.4087591240876" type="line"/>
      <point x="946.2481751824816" y="586.1386861313869" type="line"/>
      <point x="224.13138686131387" y="239.5109489051095" type="line"/>
      <point x="224.13138686131387" y="62.51094890510949" type="line"/>
    </contour>
  </outline>
</glyph>
<glyph name="question" format="2">
  <advance width="962.6277372262774"/>
  <unicode hex="003F"/>
  <outline>
    <contour>
      <point x="333.99270072992704" y="497.08029197080293" type="curve"/>
      <point x="475.92700729927003" y="497.08029197080293" type="line"/>
      <point x="459.9270072992701" y="585.0802919708029"/>
      <point x="452.8321167883212" y="684.9124087591241"/>
      <point x="452.8321167883212" y="760.6861313868612" type="curve" smooth="yes"/>
      <point x="451.6058394160584" y="793.007299270073"/>
      <point x="459.8321167883212" y="821.1021897810219"/>
      <point x="469.9270072992701" y="837.5182481751824" type="curve"/>
      <point x="549.8102189781023" y="954.0802919708029"/>
      <point x="924.6569343065693" y="1014.6496350364963"/>
      <point x="924.6569343065694" y="1338.5547445255474" type="curve" smooth="yes"/>
      <point x="924.6569343065693" y="1584.4817518248174"/>
      <point x="752.6350364963503" y="1800.5255474452554"/>
      <point x="360.7810218978102" y="1800.5255474452554" type="curve" smooth="yes"/>
      <point x="203.2919708029197" y="1800.5255474452554"/>
      <point x="97.1970802919708" y="1766.7518248175181"/>
      <point x="48.13138686131387" y="1739.7518248175181" type="curve"/>
      <point x="84.84671532846716" y="1601.2116788321168" type="line"/>
      <point x="119.62043795620438" y="1618.8248175182482"/>
      <point x="183.71532846715328" y="1636.5036496350365"/>
      <point x="261.68613138686135" y="1636.5036496350365" type="curve" smooth="yes"/>
      <point x="490.5328467153285" y="1636.5036496350365"/>
      <point x="598.043795620438" y="1475.087591240876"/>
      <point x="598.043795620438" y="1299.8467153284673" type="curve" smooth="yes"/>
      <point x="598.043795620438" y="1175.6058394160586"/>
      <point x="545.7518248175184" y="1074.4160583941607"/>
      <point x="478.56204379562047" y="1037.6423357664235" type="curve" smooth="yes"/>
      <point x="284.2554744525547" y="933.4379562043796"/>
      <point x="234.992700729927" y="876.2992700729927"/>
      <point x="235.37956204379563" y="784.4525547445255" type="curve"/>
      <point x="239.44525547445258" y="683.2262773722628"/>
      <point x="299.0875912408759" y="556.0802919708029"/>
    </contour>
    <contour>
      <point x="383.8467153284672" y="-16.0" type="curve" smooth="yes"/>
      <point x="500.59124087591243" y="-16.0"/>
      <point x="581.948905109489" y="47.065693430656935"/>
      <point x="581.948905109489" y="158.19708029197082" type="curve" smooth="yes"/>
      <point x="581.948905109489" y="240.4890510948905"/>
      <point x="520.8175182481751" y="318.7810218978102"/>
      <point x="413.0729927007299" y="318.7810218978102" type="curve" smooth="yes"/>
      <point x="306.941605839416" y="318.7810218978102"/>
      <point x="221.19708029197082" y="248.10218978102188"/>
      <point x="221.19708029197082" y="143.97080291970804" type="curve" smooth="yes"/>
      <point x="221.19708029197082" y="49.45255474452555"/>
      <point x="299.5547445255475" y="-16.0"/>
    </contour>
  </outline>
</glyph>
<glyph name="at" format="2">
  <advance width="2144.1678832116786"/>
  <unicode hex="0040"/>
  <outline>
    <contour>
      <point x="148.13138686131384" y="330.51094890510944" type="curve" smooth="yes"/>
      <point x="148.13138686131384" y="-194.58394160583939"/>
      <point x="499.007299270073" y="-522.0"/>
      <point x="937.1313868613139" y="-522.0" type="curve" smooth="yes"/>
      <point x="1129.7153284671533" y="-522.0"/>
      <point x="1324.4890510948906" y="-467.22627737226276"/>
      <point x="1433.1678832116788" y="-373.0" type="curve"/>
      <point x="1401.5182481751822" y="-299.1824817518248" type="line"/>
      <point x="1307.4963503649635" y="-360.2408759124088"/>
      <point x="1144.6496350364962" y="-398.1459854014598"/>
      <point x="997.6423357664233" y="-398.1459854014598" type="curve" smooth="yes"/>
      <point x="636.7883211678833" y="-398.1459854014598"/>
      <point x="334.17518248175185" y="-124.48905109489051"/>
      <point x="334.17518248175185" y="374.4452554744525" type="curve" smooth="yes"/>
      <point x="334.17518248175185" y="953.8394160583942"/>
      <point x="674.8102189781022" y="1409.5401459854015"/>
      <point x="1185.2262773722628" y="1409.5401459854015" type="curve" smooth="yes"/>
      <point x="1531.313868613139" y="1409.5401459854015"/>
      <point x="1870.4160583941607" y="1225.14598540146"/>
      <point x="1870.4160583941607" y="727.7737226277372" type="curve" smooth="yes"/>
      <point x="1870.4160583941607" y="375.8467153284671"/>
      <point x="1681.7518248175181" y="152.5912408759124"/>
      <point x="1519.0" y="152.5912408759124" type="curve" smooth="yes"/>
      <point x="1489.2335766423357" y="152.5912408759124"/>
      <point x="1465.4233576642337" y="205.66423357664232"/>
      <point x="1469.102189781022" y="306.66423357664235" type="curve" smooth="yes"/>
      <point x="1475.846715328467" y="518.3941605839417"/>
      <point x="1543.3649635036497" y="835.5547445255474"/>
      <point x="1576.912408759124" y="967.4014598540147" type="curve"/>
      <point x="1481.1313868613138" y="998.8759124087591"/>
      <point x="1439.1532846715327" y="1016.3649635036496"/>
      <point x="1402.6642335766426" y="1023.109489051095" type="curve" smooth="yes"/>
      <point x="1375.4379562043796" y="1027.4014598540148"/>
      <point x="1351.0802919708028" y="1008.3941605839416"/>
      <point x="1339.211678832117" y="975.4963503649635" type="curve"/>
      <point x="1270.9197080291972" y="1010.5620437956205"/>
      <point x="1192.7518248175186" y="1027.7883211678832"/>
      <point x="1123.2992700729928" y="1027.7883211678832" type="curve" smooth="yes"/>
      <point x="800.7153284671532" y="1027.7883211678832"/>
      <point x="590.4306569343065" y="698.2919708029198"/>
      <point x="590.4306569343065" y="371.8759124087591" type="curve" smooth="yes"/>
      <point x="590.4306569343065" y="120.67883211678833"/>
      <point x="729.5985401459853" y="-25.51824817518248"/>
      <point x="875.2700729927008" y="-25.51824817518248" type="curve" smooth="yes"/>
      <point x="1051.109489051095" y="-25.51824817518248"/>
      <point x="1178.5985401459855" y="180.46715328467155"/>
      <point x="1260.5036496350367" y="430.26277372262774" type="curve"/>
      <point x="1236.5036496350367" y="294.26277372262774"/>
      <point x="1224.3430656934308" y="206.26277372262774"/>
      <point x="1227.3430656934308" y="152.26277372262774" type="curve" smooth="yes"/>
      <point x="1233.3430656934308" y="40.26277372262773"/>
      <point x="1299.3722627737227" y="-8.0"/>
      <point x="1379.3649635036495" y="-8.0" type="curve" smooth="yes"/>
      <point x="1628.897810218978" y="-8.0"/>
      <point x="2025.3941605839418" y="274.95620437956205"/>
      <point x="2025.3941605839418" y="801.4525547445256" type="curve" smooth="yes"/>
      <point x="2025.3941605839418" y="1255.109489051095"/>
      <point x="1721.992700729927" y="1550.7810218978102"/>
      <point x="1273.3868613138686" y="1550.7810218978102" type="curve" smooth="yes"/>
      <point x="628.2627737226278" y="1550.7810218978102"/>
      <point x="148.13138686131384" y="1015.4744525547444"/>
    </contour>
    <contour>
      <point x="861.1897810218978" y="454.54744525547443" type="curve" smooth="yes"/>
      <point x="861.1897810218978" y="694.0510948905109"/>
      <point x="954.5693430656934" y="905.021897810219"/>
      <point x="1104.3503649635036" y="905.021897810219" type="curve" smooth="yes"/>
      <point x="1152.4160583941607" y="905.021897810219"/>
      <point x="1244.948905109489" y="865.6642335766423"/>
      <point x="1281.3649635036497" y="824.6350364963504" type="curve"/>
      <point x="1276.4598540145985" y="770.861313868613"/>
      <point x="1247.3649635036495" y="658.1021897810218"/>
      <point x="1226.7518248175184" y="589.8467153284671" type="curve" smooth="yes"/>
      <point x="1163.6861313868612" y="381.4014598540146"/>
      <point x="1052.1897810218977" y="202.8102189781022"/>
      <point x="968.1897810218978" y="202.8102189781022" type="curve" smooth="yes"/>
      <point x="892.4160583941606" y="202.8102189781022"/>
      <point x="861.1897810218978" y="346.52554744525554"/>
    </contour>
  </outline>
</glyph>
<glyph name="A" format="2">
  <advance width="1345.5255474452554"/>
  <unicode hex="0041"/>
  <anchor x="636.6423357664233" y="0.0" name="bottom"/>
  <anchor x="1214.087591240876" y="20.0" name="ogonek"/>
  <anchor x="676.992700729927" y="1486.0" name="top"/>
  <outline>
    <contour>
      <point x="51.66423357664233" y="123.82481751824818" type="line"/>
      <point x="-78.26277372262774" y="95.63503649635035" type="line"/>
      <point x="-77.03649635036496" y="0.0" type="line"/>
      <point x="404.5109489051095" y="0.0" type="line"/>
      <point x="404.5109489051095" y="95.63503649635035" type="line"/>
      <point x="254.3138686131387" y="119.82481751824818" type="line"/>
      <point x="334.08029197080293" y="408.6350364963503" type="line"/>
      <point x="807.051094890511" y="408.6350364963503" type="line"/>
      <point x="889.978102189781" y="121.66423357664235" type="line"/>
      <point x="747.9781021897811" y="95.63503649635035" type="line"/>
      <point x="747.9781021897811" y="0.0" type="line"/>
      <point x="1401.1897810218977" y="0.0" type="line"/>
      <point x="1401.1897810218977" y="95.63503649635035" type="line"/>
      <point x="1289.029197080292" y="120.5036496350365" type="line"/>
      <point x="846.9051094890511" y="1490.6788321167883" type="line"/>
      <point x="516.3065693430657" y="1490.6788321167883" type="line"/>
    </contour>
    <contour>
      <point x="772.4014598540145" y="527.2043795620439" type="line"/>
      <point x="367.11678832116786" y="527.2043795620439" type="line"/>
      <point x="547.5985401459855" y="1121.4963503649635" type="line"/>
      <point x="580.5985401459853" y="1251.8905109489053" type="line"/>
      <point x="608.5985401459855" y="1122.109489051095" type="line"/>
    </contour>
  </outline>
</glyph>
<glyph name="B" format="2">
  <advance width="1399.3430656934308"/>
  <unicode hex="0042"/>
  <anchor x="705.4014598540145" y="0.0" name="bottom"/>
  <anchor x="705.4014598540145" y="1486.0" name="top"/>
  <outline>
    <contour>
      <point x="201.66423357664232" y="122.66423357664232" type="line"/>
      <point x="55.4014598540146" y="95.24817518248175" type="line"/>
      <point x="55.4014598540146" y="0.0" type="line"/>
      <point x="379.40145985401455" y="0.0" type="line" smooth="yes"/>
      <point x="509.40145985401466" y="0.0"/>
      <point x="567.4014598540145" y="-12.0"/>
      <point x="717.4014598540147" y="-12.0" type="curve" smooth="yes"/>
      <point x="1219.4014598540143" y="-12.0"/>
      <point x="1363.4014598540148" y="192.0"/>
      <point x="1363.4014598540145" y="450.0" type="curve" smooth="yes"/>
      <point x="1363.4014598540145" y="672.0"/>
      <point x="1191.5328467153286" y="794.0"/>
      <point x="933.4014598540147" y="794.0" type="curve"/>
      <point x="1119.4014598540145" y="820.0"/>
      <point x="1262.240875912409" y="954.0"/>
      <point x="1262.240875912409" y="1160.0" type="curve" smooth="yes"/>
      <point x="1262.2408759124087" y="1360.6496350364964"/>
      <point x="1149.4014598540145" y="1500.0"/>
      <point x="708.6861313868613" y="1500.0" type="curve" smooth="yes"/>
      <point x="597.4014598540145" y="1500.0"/>
      <point x="501.4014598540147" y="1486.0"/>
      <point x="375.4014598540146" y="1486.0" type="curve" smooth="yes"/>
      <point x="58.24087591240876" y="1486.0" type="line"/>
      <point x="58.24087591240876" y="1386.2335766423357" type="line"/>
      <point x="201.66423357664232" y="1354.3649635036497" type="line"/>
    </contour>
    <contour>
      <point x="555.1386861313867" y="826.978102189781" type="curve"/>
      <point x="555.1386861313869" y="1386.2408759124085" type="line"/>
      <point x="580.3649635036496" y="1390.240875912409"/>
      <point x="654.6277372262774" y="1396.6277372262775"/>
      <point x="683.8540145985401" y="1396.6277372262775" type="curve" smooth="yes"/>
      <point x="849.2116788321167" y="1396.6277372262775"/>
      <point x="912.5693430656934" y="1309.021897810219"/>
      <point x="912.5693430656934" y="1131.029197080292" type="curve" smooth="yes"/>
      <point x="912.5693430656934" y="955.094890510949"/>
      <point x="855.2116788321167" y="822.978102189781"/>
      <point x="696.6350364963504" y="822.978102189781" type="curve" smooth="yes"/>
      <point x="652.5036496350365" y="822.978102189781"/>
      <point x="589.9781021897811" y="822.978102189781"/>
    </contour>
    <contour>
      <point x="555.1386861313867" y="113.37226277372262" type="curve"/>
      <point x="555.1386861313867" y="704.9562043795621" type="line"/>
      <point x="589.978102189781" y="706.9562043795621"/>
      <point x="659.7299270072992" y="709.3430656934307"/>
      <point x="715.8613138686131" y="709.3430656934307" type="curve" smooth="yes"/>
      <point x="896.051094890511" y="709.3430656934307"/>
      <point x="975.021897810219" y="632.0583941605838"/>
      <point x="975.0218978102189" y="426.5182481751825" type="curve" smooth="yes"/>
      <point x="975.021897810219" y="224.978102189781"/>
      <point x="903.6642335766423" y="96.2116788321168"/>
      <point x="703.0802919708028" y="96.2116788321168" type="curve" smooth="yes"/>
      <point x="650.6277372262773" y="96.2116788321168"/>
      <point x="584.3649635036496" y="100.98540145985402"/>
    </contour>
  </outline>
</glyph>
<glyph name="C" format="2">
  <advance width="1308.1459854014597"/>
  <unicode hex="0043"/>
  <anchor x="723.1313868613139" y="0.0" name="bottom"/>
  <anchor x="753.1313868613138" y="1486.0" name="top"/>
  <outline>
    <contour>
      <point x="736.963503649635" y="-22.0" type="curve" smooth="yes"/>
      <point x="993.7664233576642" y="-22.0"/>
      <point x="1063.934306569343" y="47.25547445255474"/>
      <point x="1186.941605839416" y="54.0" type="curve"/>
      <point x="1225.3941605839416" y="427.4379562043796" type="line"/>
      <point x="1050.2554744525546" y="442.3430656934307" type="line"/>
      <point x="958.9635036496348" y="183.38686131386862" type="line"/>
      <point x="931.1532846715328" y="140.3284671532847"/>
      <point x="871.7080291970802" y="88.11678832116787"/>
      <point x="764.9270072992701" y="88.11678832116787" type="curve" smooth="yes"/>
      <point x="527.5766423357665" y="88.11678832116787"/>
      <point x="428.7299270072993" y="385.99999999999994"/>
      <point x="428.7299270072993" y="758.0" type="curve" smooth="yes"/>
      <point x="428.7299270072993" y="1194.7226277372263"/>
      <point x="550.963503649635" y="1393.6569343065694"/>
      <point x="751.5109489051094" y="1393.6569343065694" type="curve" smooth="yes"/>
      <point x="858.3138686131387" y="1393.6569343065694"/>
      <point x="911.7372262773722" y="1353.4087591240875"/>
      <point x="929.7080291970804" y="1314.1605839416059" type="curve"/>
      <point x="990.905109489051" y="1006.0" type="line"/>
      <point x="1192.3576642335768" y="1006.0" type="line"/>
      <point x="1228.5766423357666" y="1452.3284671532847" type="line"/>
      <point x="1068.0072992700732" y="1454.78102189781"/>
      <point x="973.992700729927" y="1503.934306569343"/>
      <point x="755.7153284671533" y="1503.934306569343" type="curve" smooth="yes"/>
      <point x="328.1678832116788" y="1503.934306569343"/>
      <point x="25.708029197080293" y="1211.1605839416059"/>
      <point x="25.708029197080293" y="729.0948905109489" type="curve" smooth="yes"/>
      <point x="25.708029197080293" y="278.5766423357664"/>
      <point x="254.29197080291974" y="-22.0"/>
    </contour>
  </outline>
</glyph>
<glyph name="D" format="2">
  <advance width="1491.7372262773722"/>
  <unicode hex="0044"/>
  <anchor x="749.4014598540145" y="0.0" name="bottom"/>
  <anchor x="808.5109489051094" y="764.0" name="center"/>
  <anchor x="375.1751824817518" y="763.0" name="lstem"/>
  <anchor x="749.4014598540145" y="1486.0" name="top"/>
  <outline>
    <contour>
      <point x="201.0510948905109" y="124.59854014598541" type="line"/>
      <point x="55.4014598540146" y="95.24817518248175" type="line"/>
      <point x="55.4014598540146" y="0.0" type="line"/>
      <point x="355.73722627737226" y="0.0" type="line" smooth="yes"/>
      <point x="433.73722627737226" y="0.0"/>
      <point x="584.5985401459855" y="-13.386861313868614"/>
      <point x="685.3430656934306" y="-15.999999999999998" type="curve" smooth="yes"/>
      <point x="1177.9781021897809" y="-26.0"/>
      <point x="1448.956204379562" y="320.6788321167883"/>
      <point x="1448.956204379562" y="794.2262773722628" type="curve" smooth="yes"/>
      <point x="1448.956204379562" y="1225.1386861313867"/>
      <point x="1240.7445255474452" y="1499.0"/>
      <point x="721.5328467153286" y="1499.0" type="curve" smooth="yes"/>
      <point x="599.4014598540145" y="1499.0"/>
      <point x="479.8029197080292" y="1486.0"/>
      <point x="350.80291970802915" y="1486.0" type="curve" smooth="yes"/>
      <point x="59.467153284671525" y="1486.0" type="line"/>
      <point x="59.467153284671525" y="1386.846715328467" type="line"/>
      <point x="201.0510948905109" y="1354.9781021897809" type="line"/>
    </contour>
    <contour>
      <point x="554.9124087591241" y="115.5036496350365" type="curve"/>
      <point x="554.9124087591241" y="1375.5620437956204" type="line"/>
      <point x="576.978102189781" y="1377.5620437956204"/>
      <point x="621.7518248175182" y="1390.5620437956206"/>
      <point x="680.4671532846714" y="1390.5620437956206" type="curve" smooth="yes"/>
      <point x="959.8613138686131" y="1390.5620437956206"/>
      <point x="1058.3211678832115" y="1123.92700729927"/>
      <point x="1058.3211678832115" y="747.5474452554745" type="curve" smooth="yes"/>
      <point x="1058.3211678832115" y="299.5255474452555"/>
      <point x="917.6715328467154" y="100.66423357664233"/>
      <point x="691.9270072992701" y="96.5036496350365" type="curve" smooth="yes"/>
      <point x="642.3722627737227" y="96.11678832116787"/>
      <point x="597.0437956204379" y="100.5036496350365"/>
    </contour>
  </outline>
</glyph>
<glyph name="E" format="2">
  <advance width="1305.3357664233574"/>
  <unicode hex="0045"/>
  <anchor x="676.9124087591241" y="-4.440892098500626e-16" name="bottom"/>
  <anchor x="1097.5255474452554" y="20.0" name="ogonek"/>
  <anchor x="686.4890510948906" y="1486.0" name="top"/>
  <anchor x="46.42335766423358" y="1486.0" name="topleft"/>
  <outline>
    <contour>
      <point x="202.89051094890513" y="123.98540145985402" type="line"/>
      <point x="57.240875912408754" y="95.24817518248176" type="line"/>
      <point x="57.240875912408754" y="0.0" type="line"/>
      <point x="1229.985401459854" y="0.0" type="line"/>
      <point x="1295.5547445255477" y="399.985401459854" type="line"/>
      <point x="1124.7810218978102" y="436.3795620437956" type="line"/>
      <point x="985.2116788321168" y="147.5912408759124" type="line"/>
      <point x="562.4306569343066" y="107.43795620437957" type="line"/>
      <point x="562.4306569343066" y="708.021897810219" type="line"/>
      <point x="793.9854014598541" y="702.2481751824818" type="line"/>
      <point x="847.4890510948906" y="492.04379562043795" type="line"/>
      <point x="951.2846715328468" y="492.04379562043795" type="line"/>
      <point x="951.2846715328468" y="1023.992700729927" type="line"/>
      <point x="847.4890510948906" y="1023.992700729927" type="line"/>
      <point x="792.7591240875913" y="827.7226277372263" type="line"/>
      <point x="562.4306569343066" y="821.3357664233577" type="line"/>
      <point x="562.4306569343066" y="1382.240875912409" type="line"/>
      <point x="945.6934306569344" y="1355.2773722627737" type="line"/>
      <point x="1040.3868613138686" y="1123.3284671532847" type="line"/>
      <point x="1190.8759124087592" y="1123.3284671532847" type="line"/>
      <point x="1161.1678832116788" y="1486.0" type="line"/>
      <point x="55.78832116788321" y="1486.0" type="line"/>
      <point x="55.78832116788321" y="1386.846715328467" type="line"/>
      <point x="202.89051094890513" y="1354.978102189781" type="line"/>
    </contour>
  </outline>
</glyph>
<glyph name="F" format="2">
  <advance width="1228.4087591240875"/>
  <unicode hex="0046"/>
  <anchor x="524.941605839416" y="0.0" name="bottom"/>
  <anchor x="679.4233576642335" y="1486.0" name="top"/>
  <outline>
    <contour>
      <point x="205.34306569343067" y="122.27737226277372" type="line"/>
      <point x="60.91970802919708" y="95.63503649635035" type="line"/>
      <point x="60.91970802919708" y="0.0" type="line"/>
      <point x="833.9999999999999" y="0.0" type="line"/>
      <point x="833.9999999999999" y="95.63503649635035" type="line"/>
      <point x="563.043795620438" y="122.27737226277372" type="line"/>
      <point x="563.043795620438" y="670.5328467153284" type="line"/>
      <point x="807.4087591240876" y="662.9197080291971" type="line"/>
      <point x="864.6569343065694" y="447.1970802919708" type="line"/>
      <point x="968.4525547445256" y="447.1970802919708" type="line"/>
      <point x="968.4525547445256" y="998.7664233576643" type="line"/>
      <point x="864.4306569343066" y="998.7664233576643" type="line"/>
      <point x="807.4087591240876" y="792.6861313868613" type="line"/>
      <point x="563.043795620438" y="786.2992700729927" type="line"/>
      <point x="563.043795620438" y="1381.8540145985403" type="line"/>
      <point x="922.4452554744526" y="1352.2116788321168" type="line"/>
      <point x="1023.1751824817518" y="1102.7153284671533" type="line"/>
      <point x="1187.0875912408758" y="1102.7153284671533" type="line"/>
      <point x="1162.992700729927" y="1486.0" type="line"/>
      <point x="55.78832116788321" y="1486.0" type="line"/>
      <point x="55.78832116788321" y="1386.846715328467" type="line"/>
      <point x="205.34306569343067" y="1354.9781021897809" type="line"/>
    </contour>
  </outline>
</glyph>
<glyph name="G" format="2">
  <advance width="1444.6569343065692"/>
  <unicode hex="0047"/>
  <anchor x="737.6131386861314" y="0.0" name="bottom"/>
  <anchor x="1228.1167883211676" y="347.45255474452557" name="rstem"/>
  <anchor x="797.6131386861314" y="1486.0" name="top"/>
  <outline>
    <contour>
      <point x="740.8175182481752" y="-22.0" type="curve" smooth="yes"/>
      <point x="1047.021897810219" y="-22.0"/>
      <point x="1194.737226277372" y="77.54744525547446"/>
      <point x="1334.007299270073" y="80.0" type="curve"/>
      <point x="1334.007299270073" y="611.8029197080292" type="line"/>
      <point x="1427.817518248175" y="629.9635036496351" type="line"/>
      <point x="1427.817518248175" y="738.7591240875912" type="line"/>
      <point x="813.5547445255474" y="738.7591240875912" type="line"/>
      <point x="813.5547445255474" y="629.9635036496351" type="line"/>
      <point x="995.6861313868612" y="608.7372262773722" type="line"/>
      <point x="995.6861313868612" y="184.0" type="line"/>
      <point x="959.5547445255474" y="122.94890510948903"/>
      <point x="870.5255474452555" y="85.66423357664233"/>
      <point x="771.043795620438" y="85.66423357664233" type="curve" smooth="yes"/>
      <point x="534.3284671532847" y="85.66423357664233"/>
      <point x="452.64233576642334" y="385.0"/>
      <point x="453.41605839416053" y="758.0" type="curve" smooth="yes"/>
      <point x="454.1897810218978" y="1192.270072992701"/>
      <point x="566.978102189781" y="1400.4014598540145"/>
      <point x="780.92700729927" y="1400.4014598540145" type="curve" smooth="yes"/>
      <point x="928.9416058394161" y="1400.4014598540145"/>
      <point x="980.2992700729927" y="1355.8613138686133"/>
      <point x="995.2043795620439" y="1318.4525547445255" type="curve"/>
      <point x="1049.6569343065692" y="1036.6569343065694" type="line"/>
      <point x="1284.8540145985403" y="1036.6569343065694" type="line"/>
      <point x="1319.846715328467" y="1440.6788321167883" type="line"/>
      <point x="1202.8102189781023" y="1450.4890510948903"/>
      <point x="1036.5182481751824" y="1505.7737226277372"/>
      <point x="795.1167883211679" y="1505.7737226277372" type="curve" smooth="yes"/>
      <point x="325.1751824817518" y="1505.7737226277372"/>
      <point x="42.26277372262775" y="1224.6496350364962"/>
      <point x="42.26277372262775" y="731.5474452554745" type="curve" smooth="yes"/>
      <point x="42.26277372262775" y="298.81021897810217"/>
      <point x="276.01459854014604" y="-22.0"/>
    </contour>
  </outline>
</glyph>
<glyph name="H" format="2">
  <advance width="1615.4890510948906"/>
  <unicode hex="0048"/>
  <anchor x="816.5985401459855" y="0.0" name="bottom"/>
  <anchor x="1561.3138686131388" y="0.0" name="bottomright"/>
  <anchor x="807.6642335766423" y="751.1240875912408" name="center"/>
  <anchor x="803.6642335766423" y="1486.0" name="top"/>
  <anchor x="16.905109489051092" y="1486.0" name="topleft"/>
  <outline>
    <contour>
      <point x="195.5328467153285" y="121.66423357664233" type="line"/>
      <point x="55.4014598540146" y="95.63503649635035" type="line"/>
      <point x="55.4014598540146" y="0.0" type="line"/>
      <point x="708.4306569343065" y="0.0" type="line"/>
      <point x="708.4306569343065" y="95.63503649635035" type="line"/>
      <point x="553.3941605839416" y="121.66423357664233" type="line"/>
      <point x="553.3941605839416" y="695.2116788321167" type="line"/>
      <point x="1062.7080291970804" y="695.2116788321167" type="line"/>
      <point x="1062.7080291970804" y="122.27737226277371" type="line"/>
      <point x="913.3503649635037" y="95.63503649635037" type="line"/>
      <point x="913.3503649635037" y="0.0" type="line"/>
      <point x="1560.0875912408758" y="0.0" type="line"/>
      <point x="1560.0875912408758" y="95.63503649635037" type="line"/>
      <point x="1419.9562043795622" y="121.66423357664233" type="line"/>
      <point x="1419.9562043795622" y="1355.5912408759123" type="line"/>
      <point x="1558.0875912408758" y="1386.846715328467" type="line"/>
      <point x="1558.0875912408758" y="1486.0" type="line"/>
      <point x="913.3503649635037" y="1486.0" type="line"/>
      <point x="913.3503649635037" y="1386.846715328467" type="line"/>
      <point x="1062.7080291970804" y="1354.9781021897809" type="line"/>
      <point x="1062.7080291970804" y="824.3649635036496" type="line"/>
      <point x="553.3941605839416" y="824.3649635036496" type="line"/>
      <point x="553.3941605839416" y="1355.5912408759123" type="line"/>
      <point x="707.4306569343065" y="1386.846715328467" type="line"/>
      <point x="707.4306569343065" y="1486.0" type="line"/>
      <point x="56.40145985401459" y="1486.0" type="line"/>
      <point x="56.40145985401459" y="1386.846715328467" type="line"/>
      <point x="195.5328467153285" y="1355.5912408759123" type="line"/>
    </contour>
  </outline>
</glyph>
<glyph name="I" format="2">
  <advance width="787.1240875912408"/>
  <unicode hex="0049"/>
  <anchor x="391.24087591240874" y="1.4210854715202004e-14" name="bottom"/>
  <anchor x="477.9343065693431" y="20.0" name="ogonek"/>
  <anchor x="391.2408759124088" y="1486.0" name="top"/>
  <anchor x="37.77372262773723" y="1486.0" name="topleft"/>
  <outline>
    <contour>
      <point x="212.5985401459854" y="122.27737226277371" type="line"/>
      <point x="58.17518248175181" y="95.63503649635037" type="line"/>
      <point x="58.17518248175181" y="0.0" type="line"/>
      <point x="730.1751824817518" y="0.0" type="line"/>
      <point x="730.1751824817518" y="94.40875912408758" type="line"/>
      <point x="571.4598540145985" y="121.66423357664233" type="line"/>
      <point x="571.4598540145985" y="1354.978102189781" type="line"/>
      <point x="729.7883211678832" y="1386.846715328467" type="line"/>
      <point x="729.7883211678832" y="1486.0" type="line"/>
      <point x="57.33576642335767" y="1486.0" type="line"/>
      <point x="57.33576642335767" y="1386.846715328467" type="line"/>
      <point x="212.5985401459854" y="1354.978102189781" type="line"/>
    </contour>
  </outline>
</glyph>
<glyph name="J" format="2">
  <advance width="787.1240875912408"/>
  <unicode hex="004A"/>
  <anchor x="385.5328467153285" y="1486.0" name="top"/>
  <outline>
    <contour>
      <point x="-47.642335766423365" y="-293.82481751824815" type="curve"/>
      <point x="11.94890510948905" y="-387.0" type="line"/>
      <point x="292.4014598540146" y="-347.8029197080292"/>
      <point x="480.9124087591241" y="-188.25547445255475"/>
      <point x="542.8467153284671" y="29.000000000000004" type="curve" smooth="yes"/>
      <point x="569.2335766423357" y="122.0"/>
      <point x="571.8467153284671" y="298.00000000000006"/>
      <point x="571.8467153284671" y="549.9999999999999" type="curve" smooth="yes"/>
      <point x="571.8467153284671" y="1355.5912408759123" type="line"/>
      <point x="723.8832116788321" y="1386.846715328467" type="line"/>
      <point x="723.8832116788321" y="1486.0" type="line"/>
      <point x="54.43065693430657" y="1486.0" type="line"/>
      <point x="54.43065693430657" y="1386.846715328467" type="line"/>
      <point x="214.59854014598542" y="1354.3649635036495" type="line"/>
      <point x="214.59854014598542" y="357.24087591240874" type="line" smooth="yes"/>
      <point x="214.59854014598542" y="146.24087591240877"/>
      <point x="199.5985401459854" y="34.343065693430646"/>
      <point x="172.5985401459854" y="-45.65693430656935" type="curve" smooth="yes"/>
      <point x="124.5985401459854" y="-188.65693430656933"/>
      <point x="47.67883211678832" y="-257.1824817518248"/>
    </contour>
  </outline>
</glyph>
<glyph name="K" format="2">
  <advance width="1496.051094890511"/>
  <unicode hex="004B"/>
  <anchor x="837.1313868613139" y="0.0" name="bottom"/>
  <anchor x="818.1313868613139" y="1483.0" name="top"/>
  <outline>
    <contour>
      <point x="1074.7445255474454" y="0.0" type="curve"/>
      <point x="1505.4379562043794" y="0.38686131386861317" type="line"/>
      <point x="1505.4379562043794" y="95.4087591240876" type="line"/>
      <point x="1423.5912408759123" y="119.34306569343065" type="line"/>
      <point x="1321.021897810219" y="215.15328467153284"/>
      <point x="1031.4087591240875" y="897.014598540146"/>
      <point x="873.8394160583942" y="969.8613138686131" type="curve"/>
      <point x="811.5620437956204" y="820.5036496350364" type="line"/>
      <point x="1261.890510948905" y="1354.4306569343064" type="line"/>
      <point x="1436.7299270072992" y="1386.2992700729926" type="line"/>
      <point x="1436.7299270072992" y="1486.3868613138686" type="line"/>
      <point x="907.1240875912409" y="1486.0" type="line"/>
      <point x="907.1240875912409" y="1386.4598540145985" type="line"/>
      <point x="1078.2481751824816" y="1354.9781021897809" type="line"/>
      <point x="470.941605839416" y="555.1751824817518" type="line"/>
      <point x="558.9124087591241" y="571.5328467153284" type="line"/>
      <point x="558.9124087591241" y="1354.9781021897809" type="line"/>
      <point x="704.978102189781" y="1386.846715328467" type="line"/>
      <point x="704.978102189781" y="1486.0" type="line"/>
      <point x="56.40145985401458" y="1486.0" type="line"/>
      <point x="56.40145985401458" y="1386.846715328467" type="line"/>
      <point x="201.66423357664235" y="1354.9781021897809" type="line"/>
      <point x="201.66423357664235" y="121.89051094890512" type="line"/>
      <point x="55.4014598540146" y="95.63503649635037" type="line"/>
      <point x="55.4014598540146" y="0.0" type="line"/>
      <point x="716.0145985401459" y="0.0" type="line"/>
      <point x="716.0145985401459" y="95.02189781021897" type="line"/>
      <point x="558.9124087591241" y="121.27737226277372" type="line"/>
      <point x="558.9124087591241" y="609.116788321168" type="line"/>
      <point x="465.941605839416" y="393.08759124087595" type="line"/>
      <point x="791.6058394160584" y="792.6131386861314" type="line"/>
      <point x="662.2700729927009" y="718.0437956204379" type="line"/>
      <point x="785.6423357664232" y="615.065693430657"/>
      <point x="987.3576642335767" y="0.0"/>
    </contour>
  </outline>
</glyph>
<glyph name="L" format="2">
  <advance width="1254.956204379562"/>
  <unicode hex="004C"/>
  <anchor x="674.1313868613138" y="0.0" name="bottom"/>
  <anchor x="645.1313868613138" y="744.0" name="center"/>
  <anchor x="412.1313868613139" y="1486.0" name="top"/>
  <anchor x="957.6569343065693" y="1111.6131386861314" name="topright"/>
  <outline>
    <contour>
      <point x="200.43795620437956" y="123.98540145985402" type="line"/>
      <point x="55.4014598540146" y="95.24817518248175" type="line"/>
      <point x="55.4014598540146" y="0.0" type="line"/>
      <point x="1176.7299270072995" y="0.0" type="line"/>
      <point x="1238.2116788321168" y="504.28467153284674" type="line"/>
      <point x="1057.1751824817518" y="525.5766423357663" type="line"/>
      <point x="917.6642335766422" y="154.33576642335765" type="line"/>
      <point x="558.1386861313869" y="118.47445255474452" type="line"/>
      <point x="558.138686131387" y="1354.9781021897809" type="line"/>
      <point x="736.9197080291971" y="1386.846715328467" type="line"/>
      <point x="736.9197080291971" y="1486.0" type="line"/>
      <point x="57.014598540145975" y="1486.0" type="line"/>
      <point x="57.014598540145975" y="1386.846715328467" type="line"/>
      <point x="200.43795620437956" y="1354.9781021897809" type="line"/>
    </contour>
  </outline>
</glyph>
<glyph name="M" format="2">
  <advance width="1986.9197080291972"/>
  <unicode hex="004D"/>
  <anchor x="978.9708029197081" y="0.0" name="bottom"/>
  <anchor x="2004.4890510948903" y="0.0" name="bottomright"/>
  <anchor x="994.058394160584" y="1486.0" name="top"/>
  <outline>
    <contour>
      <point x="142.4963503649635" y="121.27737226277372" type="line"/>
      <point x="-14.956204379562045" y="94.86131386861314" type="line"/>
      <point x="-14.956204379562045" y="0.0" type="line"/>
      <point x="493.56204379562035" y="0.0" type="line"/>
      <point x="493.56204379562035" y="94.86131386861314" type="line"/>
      <point x="307.5547445255474" y="121.89051094890512" type="line"/>
      <point x="398.48905109489056" y="1027.6058394160584" type="line"/>
      <point x="433.3284671532847" y="1366.1313868613138" type="line"/>
      <point x="514.2335766423357" y="1031.058394160584" type="line"/>
      <point x="764.919708029197" y="57.0" type="line"/>
      <point x="1057.8686131386862" y="57.0" type="line"/>
      <point x="1294.14598540146" y="1047.2262773722628" type="line"/>
      <point x="1361.4379562043796" y="1365.5182481751824" type="line"/>
      <point x="1397.5985401459852" y="1026.8321167883212" type="line"/>
      <point x="1483.1751824817518" y="122.27737226277372" type="line"/>
      <point x="1322.846715328467" y="95.63503649635035" type="line"/>
      <point x="1322.846715328467" y="0.0" type="line"/>
      <point x="2001.875912408759" y="0.0" type="line"/>
      <point x="2001.875912408759" y="94.86131386861314" type="line"/>
      <point x="1852.5182481751824" y="122.89051094890512" type="line"/>
      <point x="1697.0000000000002" y="1355.3649635036497" type="line"/>
      <point x="1894.0145985401457" y="1387.2335766423357" type="line"/>
      <point x="1894.0145985401457" y="1486.0" type="line"/>
      <point x="1251.5109489051094" y="1486.0" type="line"/>
      <point x="1048.9562043795622" y="599.0948905109489" type="line"/>
      <point x="1007.3430656934306" y="371.5182481751825" type="line"/>
      <point x="962.8905109489051" y="597.5474452554745" type="line"/>
      <point x="763.2481751824819" y="1486.0" type="line"/>
      <point x="111.86861313868611" y="1486.0" type="line"/>
      <point x="111.86861313868611" y="1387.2335766423357" type="line"/>
      <point x="304.4963503649635" y="1355.3649635036497" type="line"/>
    </contour>
  </outline>
</glyph>
<glyph name="N" format="2">
  <advance width="1499.4160583941605"/>
  <unicode hex="004E"/>
  <anchor x="763.3576642335767" y="0.0" name="bottom"/>
  <anchor x="764.6788321167883" y="1486.0" name="top"/>
  <outline>
    <contour>
      <point x="195.05109489051097" y="130.56204379562044" type="line"/>
      <point x="33.795620437956195" y="94.86131386861314" type="line"/>
      <point x="33.795620437956195" y="0.0" type="line"/>
      <point x="538.1824817518248" y="0.0" type="line"/>
      <point x="538.1824817518248" y="94.86131386861314" type="line"/>
      <point x="339.17518248175185" y="131.1751824817518" type="line"/>
      <point x="339.94890510948903" y="1171.4233576642337" type="line"/>
      <point x="455.4744525547445" y="949.3649635036496" type="line"/>
      <point x="1064.5547445255474" y="0.0" type="line"/>
      <point x="1336.3430656934304" y="0.0" type="line"/>
      <point x="1336.3430656934306" y="1347.8540145985403" type="line"/>
      <point x="1494.4671532846714" y="1386.846715328467" type="line"/>
      <point x="1494.4671532846714" y="1486.0" type="line"/>
      <point x="1018.8978102189781" y="1486.0" type="line"/>
      <point x="1018.8978102189781" y="1386.846715328467" type="line"/>
      <point x="1191.6058394160584" y="1347.8540145985403" type="line"/>
      <point x="1191.992700729927" y="397.09489051094886" type="line"/>
      <point x="1080.1532846715327" y="620.4598540145985" type="line"/>
      <point x="530.4525547445256" y="1486.0" type="line"/>
      <point x="34.95620437956204" y="1486.0" type="line"/>
      <point x="34.95620437956204" y="1379.8832116788321" type="line"/>
      <point x="90.82481751824818" y="1374.3649635036495"/>
      <point x="161.23357664233578" y="1319.3284671532847"/>
      <point x="195.82481751824815" y="1289.4379562043796" type="curve"/>
    </contour>
  </outline>
</glyph>
<glyph name="O" format="2">
  <advance width="1441.8832116788321"/>
  <unicode hex="004F"/>
  <anchor x="733.9343065693431" y="0.0" name="bottom"/>
  <anchor x="722.5547445255474" y="741.0" name="center"/>
  <anchor x="813.9343065693431" y="20.0" name="ogonek"/>
  <anchor x="870.6143284671533" y="0.0" name="qq"/>
  <anchor x="730.7810218978102" y="1486.0" name="top"/>
  <anchor x="41.934306569343065" y="1486.0" name="topleft"/>
  <anchor x="1141.9343065693429" y="1486.0" name="topright"/>
  <outline>
    <contour>
      <point x="711.1678832116788" y="-23.547445255474454" type="curve" smooth="yes"/>
      <point x="1153.0875912408758" y="-21.708029197080293"/>
      <point x="1399.3284671532847" y="310.28467153284674"/>
      <point x="1399.3284671532847" y="768.7737226277372" type="curve" smooth="yes"/>
      <point x="1399.3284671532847" y="1211.036496350365"/>
      <point x="1206.4233576642334" y="1504.1605839416059"/>
      <point x="734.8759124087592" y="1505.3868613138686" type="curve" smooth="yes"/>
      <point x="290.1824817518248" y="1506.0"/>
      <point x="42.55474452554744" y="1188.043795620438"/>
      <point x="42.55474452554744" y="732.4890510948904" type="curve" smooth="yes"/>
      <point x="42.55474452554744" y="283.8394160583942"/>
      <point x="237.07299270072988" y="-26.0"/>
    </contour>
    <contour>
      <point x="722.7153284671533" y="1402.7883211678834" type="curve" smooth="yes"/>
      <point x="908.007299270073" y="1402.7883211678834"/>
      <point x="1006.6277372262774" y="1195.3284671532845"/>
      <point x="1006.6277372262774" y="767.5474452554744" type="curve" smooth="yes"/>
      <point x="1006.6277372262774" y="316.8832116788322"/>
      <point x="900.3649635036496" y="80.27737226277372"/>
      <point x="720.1021897810218" y="80.27737226277372" type="curve" smooth="yes"/>
      <point x="533.4890510948907" y="80.27737226277372"/>
      <point x="434.64233576642334" y="306.3211678832117"/>
      <point x="434.64233576642334" y="733.1021897810218" type="curve" smooth="yes"/>
      <point x="434.64233576642334" y="1182.7664233576643"/>
      <point x="540.1313868613138" y="1402.7883211678834"/>
    </contour>
  </outline>
</glyph>
<glyph name="P" format="2">
  <advance width="1333.7810218978102"/>
  <unicode hex="0050"/>
  <anchor x="443.1021897810218" y="0.0" name="bottom"/>
  <anchor x="731.6569343065694" y="1486.0" name="top"/>
  <outline>
    <contour>
      <point x="200.43795620437953" y="122.05109489051094" type="line"/>
      <point x="55.4014598540146" y="95.24817518248175" type="line"/>
      <point x="55.4014598540146" y="0.0" type="line"/>
      <point x="784.7737226277372" y="0.0" type="line"/>
      <point x="784.7737226277372" y="95.63503649635035" type="line"/>
      <point x="556.978102189781" y="121.66423357664233" type="line"/>
      <point x="557.3649635036496" y="517.2262773722628" type="line"/>
      <point x="574.3649635036496" y="515.2262773722628"/>
      <point x="638.7518248175182" y="510.8394160583942"/>
      <point x="695.7518248175182" y="510.8394160583942" type="curve" smooth="yes"/>
      <point x="1078.2700729927005" y="510.83941605839414"/>
      <point x="1294.0729927007299" y="698.2992700729927"/>
      <point x="1294.0729927007299" y="1041.1678832116788" type="curve" smooth="yes"/>
      <point x="1294.0729927007299" y="1333.5182481751826"/>
      <point x="1152.6642335766421" y="1497.5474452554745"/>
      <point x="729.1386861313869" y="1497.0" type="curve" smooth="yes"/>
      <point x="575.1386861313869" y="1497.8394160583941"/>
      <point x="477.1751824817518" y="1486.0"/>
      <point x="386.1751824817518" y="1486.0" type="curve" smooth="yes"/>
      <point x="59.46715328467152" y="1486.0" type="line"/>
      <point x="59.46715328467152" y="1386.846715328467" type="line"/>
      <point x="200.43795620437953" y="1354.9781021897809" type="line"/>
    </contour>
    <contour>
      <point x="556.3649635036496" y="628.5328467153284" type="curve"/>
      <point x="556.3649635036496" y="1382.1751824817518" type="line"/>
      <point x="587.3649635036497" y="1387.1751824817518"/>
      <point x="613.3649635036496" y="1394.1751824817518"/>
      <point x="678.6277372262774" y="1394.1751824817518" type="curve" smooth="yes"/>
      <point x="849.2408759124088" y="1394.1751824817518"/>
      <point x="922.7956204379562" y="1258.1678832116788"/>
      <point x="922.7956204379562" y="1034.1678832116788" type="curve" smooth="yes"/>
      <point x="922.7956204379562" y="728.7810218978102"/>
      <point x="813.4087591240875" y="619.5328467153284"/>
      <point x="676.1459854014598" y="619.5328467153284" type="curve" smooth="yes"/>
      <point x="619.4306569343065" y="619.5328467153284"/>
      <point x="579.3649635036496" y="622.5328467153284"/>
    </contour>
  </outline>
</glyph>
<glyph name="R" format="2">
  <advance width="1445.9197080291972"/>
  <unicode hex="0052"/>
  <anchor x="802.4014598540145" y="0.0" name="bottom"/>
  <anchor x="718.4014598540145" y="1486.0" name="top"/>
  <outline>
    <contour>
      <point x="55.4014598540146" y="0.0" type="line"/>
      <point x="714.5985401459855" y="0.0" type="line"/>
      <point x="714.5985401459855" y="95.63503649635035" type="line"/>
      <point x="549.9781021897811" y="121.66423357664232" type="line"/>
      <point x="549.9781021897811" y="632.0" type="line"/>
      <point x="594.978102189781" y="632.0"/>
      <point x="665.9197080291972" y="632.0"/>
      <point x="717.9197080291972" y="632.0" type="curve"/>
      <point x="868.9197080291972" y="577.0"/>
      <point x="953.2846715328467" y="0.0"/>
      <point x="1052.2846715328467" y="0.0" type="curve" smooth="yes"/>
      <point x="1447.9197080291967" y="0.0" type="line"/>
      <point x="1447.9197080291967" y="95.02189781021897" type="line"/>
      <point x="1393.788321167883" y="114.02189781021897" type="line"/>
      <point x="1307.6861313868612" y="140.34306569343065"/>
      <point x="1237.7810218978102" y="609.1897810218977"/>
      <point x="987.051094890511" y="686.9999999999999" type="curve"/>
      <point x="1186.051094890511" y="747.9999999999999"/>
      <point x="1274.9197080291972" y="938.0"/>
      <point x="1274.9197080291972" y="1101.0" type="curve" smooth="yes"/>
      <point x="1274.9197080291972" y="1374.3576642335768"/>
      <point x="1122.9197080291972" y="1499.0"/>
      <point x="697.051094890511" y="1499.0" type="curve" smooth="yes"/>
      <point x="562.3430656934307" y="1499.0"/>
      <point x="488.78832116788317" y="1486.0"/>
      <point x="362.7883211678833" y="1486.0" type="curve" smooth="yes"/>
      <point x="57.62773722627736" y="1486.0" type="line"/>
      <point x="57.62773722627736" y="1387.4598540145985" type="line"/>
      <point x="196.14598540145988" y="1354.978102189781" type="line"/>
      <point x="196.14598540145988" y="122.05109489051094" type="line"/>
      <point x="55.4014598540146" y="95.24817518248175" type="line"/>
    </contour>
    <contour>
      <point x="692.9197080291971" y="735.6934306569343" type="curve" smooth="yes"/>
      <point x="663.3065693430657" y="735.6934306569343"/>
      <point x="579.5912408759125" y="733.6934306569343"/>
      <point x="549.9781021897811" y="740.6934306569344" type="curve"/>
      <point x="549.9781021897811" y="1385.240875912409" type="line"/>
      <point x="577.5912408759125" y="1389.240875912409"/>
      <point x="602.5693430656935" y="1395.4014598540145"/>
      <point x="660.5036496350365" y="1395.4014598540145" type="curve" smooth="yes"/>
      <point x="839.4087591240876" y="1395.4014598540145"/>
      <point x="905.6350364963504" y="1284.3503649635038"/>
      <point x="905.6350364963504" y="1089.0" type="curve" smooth="yes"/>
      <point x="905.6350364963504" y="864.0"/>
      <point x="826.985401459854" y="735.6934306569343"/>
    </contour>
  </outline>
</glyph>
<glyph name="S" format="2">
  <advance width="1210.036496350365"/>
  <unicode hex="0053"/>
  <anchor x="589.3284671532846" y="0.0" name="bottom"/>
  <anchor x="649.2700729927008" y="1486.0" name="top"/>
  <outline>
    <contour>
      <point x="575.7153284671532" y="-22.000000000000004" type="curve" smooth="yes"/>
      <point x="1021.7153284671532" y="-22.000000000000004"/>
      <point x="1164.810218978102" y="210.00729927007302"/>
      <point x="1165.1970802919707" y="423.7445255474452" type="curve" smooth="yes"/>
      <point x="1165.5839416058393" y="663.8759124087591"/>
      <point x="942.4598540145986" y="790.5474452554745"/>
      <point x="778.5912408759125" y="873.5109489051094" type="curve" smooth="yes"/>
      <point x="596.5547445255474" y="967.8978102189781"/>
      <point x="421.04379562043795" y="1040.897810218978"/>
      <point x="421.04379562043795" y="1209.0218978102191" type="curve" smooth="yes"/>
      <point x="421.04379562043795" y="1311.7591240875913"/>
      <point x="484.04379562043795" y="1401.1751824817518"/>
      <point x="644.2992700729927" y="1401.948905109489" type="curve" smooth="yes"/>
      <point x="738.7153284671533" y="1402.3357664233577"/>
      <point x="807.7153284671533" y="1369.5328467153286"/>
      <point x="823.7153284671533" y="1345.051094890511" type="curve"/>
      <point x="868.7153284671533" y="1078.0" type="line"/>
      <point x="1050.715328467153" y="1078.0" type="line"/>
      <point x="1075.094890510949" y="1434.0" type="line"/>
      <point x="1015.8686131386862" y="1439.0"/>
      <point x="876.1386861313869" y="1506.934306569343"/>
      <point x="645.1386861313869" y="1506.934306569343" type="curve" smooth="yes"/>
      <point x="276.43065693430657" y="1506.934306569343"/>
      <point x="97.81751824817519" y="1306.905109489051"/>
      <point x="97.81751824817519" y="1094.839416058394" type="curve" smooth="yes"/>
      <point x="97.81751824817519" y="815.9051094890511"/>
      <point x="321.81751824817525" y="694.0948905109489"/>
      <point x="478.68613138686135" y="615.3576642335767" type="curve" smooth="yes"/>
      <point x="680.978102189781" y="514.1678832116788"/>
      <point x="830.9343065693431" y="433.94890510948903"/>
      <point x="830.9343065693431" y="290.5985401459854" type="curve" smooth="yes"/>
      <point x="830.9343065693431" y="174.56204379562044"/>
      <point x="757.8029197080291" y="83.27737226277372"/>
      <point x="569.1386861313869" y="84.05109489051095" type="curve" smooth="yes"/>
      <point x="454.45985401459853" y="84.43795620437956"/>
      <point x="376.7810218978102" y="128.24087591240874"/>
      <point x="349.7810218978102" y="164.8832116788321" type="curve"/>
      <point x="300.7810218978102" y="439.0" type="line"/>
      <point x="113.39416058394161" y="439.0" type="line"/>
      <point x="85.56204379562044" y="66.0" type="line"/>
      <point x="154.62773722627736" y="61.0"/>
      <point x="334.3576642335766" y="-22.000000000000004"/>
    </contour>
  </outline>
</glyph>
<glyph name="T" format="2">
  <advance width="1446.8467153284673"/>
  <unicode hex="0054"/>
  <anchor x="726.970802919708" y="0.0" name="bottom"/>
  <anchor x="1153.4306569343064" y="0.0" name="bottomright"/>
  <anchor x="724.6496350364964" y="659.4744525547445" name="center"/>
  <anchor x="725.5839416058395" y="1486.0" name="top"/>
  <outline>
    <contour>
      <point x="543.4598540145985" y="122.66423357664232" type="line"/>
      <point x="295.02919708029196" y="95.63503649635035" type="line"/>
      <point x="295.02919708029196" y="0.0" type="line"/>
      <point x="1151.8175182481752" y="0.0" type="line"/>
      <point x="1151.8175182481752" y="95.63503649635035" type="line"/>
      <point x="903.3868613138686" y="122.66423357664232" type="line"/>
      <point x="903.3868613138686" y="1376.2992700729928" type="line"/>
      <point x="1112.153284671533" y="1363.2043795620439" type="line"/>
      <point x="1235.7445255474454" y="898.2481751824818" type="line"/>
      <point x="1407.5547445255477" y="898.2481751824818" type="line"/>
      <point x="1375.5547445255474" y="1486.0" type="line"/>
      <point x="71.29197080291972" y="1486.0" type="line"/>
      <point x="39.291970802919714" y="898.2481751824818" type="line"/>
      <point x="210.32846715328466" y="898.2481751824818" type="line"/>
      <point x="336.3065693430657" y="1363.2043795620439" type="line"/>
      <point x="543.4598540145985" y="1376.2992700729928" type="line"/>
    </contour>
  </outline>
</glyph>
<glyph name="U" format="2">
  <advance width="1437.934306569343"/>
  <unicode hex="0055"/>
  <anchor x="793.3941605839416" y="0.0" name="bottom"/>
  <anchor x="852.5255474452554" y="20.0" name="ogonek"/>
  <anchor x="793.6569343065694" y="1486.0" name="top"/>
  <anchor x="1448.9999999999998" y="1486.0" name="topright"/>
  <outline>
    <contour>
      <point x="767.4233576642335" y="-16.0" type="curve" smooth="yes"/>
      <point x="1056.5766423357663" y="-16.0"/>
      <point x="1291.9343065693429" y="143.84671532846713"/>
      <point x="1291.934306569343" y="576.6861313868612" type="curve" smooth="yes"/>
      <point x="1291.934306569343" y="1354.9781021897809" type="line"/>
      <point x="1422.9343065693429" y="1386.846715328467" type="line"/>
      <point x="1422.9343065693429" y="1486.0" type="line"/>
      <point x="969.2481751824818" y="1486.0" type="line"/>
      <point x="969.2481751824818" y="1386.846715328467" type="line"/>
      <point x="1132.4160583941605" y="1354.3649635036495" type="line"/>
      <point x="1132.4160583941605" y="565.0364963503649" type="line" smooth="yes"/>
      <point x="1132.4160583941607" y="268.15328467153284"/>
      <point x="1017.2408759124087" y="88.95620437956204"/>
      <point x="809.6861313868612" y="88.95620437956204" type="curve" smooth="yes"/>
      <point x="617.6715328467153" y="88.95620437956204"/>
      <point x="521.4452554744526" y="230.22627737226276"/>
      <point x="521.4452554744526" y="523.2262773722628" type="curve" smooth="yes"/>
      <point x="521.4452554744526" y="1353.1386861313867" type="line"/>
      <point x="679.5474452554744" y="1386.846715328467" type="line"/>
      <point x="679.5474452554744" y="1486.0" type="line"/>
      <point x="27.357664233576642" y="1486.0" type="line"/>
      <point x="27.357664233576642" y="1386.846715328467" type="line"/>
      <point x="155.45255474452554" y="1354.9781021897809" type="line"/>
      <point x="155.45255474452554" y="572.5036496350364" type="line" smooth="yes"/>
      <point x="155.45255474452554" y="156.84671532846716"/>
      <point x="364.4525547445255" y="-16.0"/>
    </contour>
  </outline>
</glyph>
<glyph name="V" format="2">
  <advance width="1358.4087591240875"/>
  <unicode hex="0056"/>
  <outline>
    <contour>
      <point x="-40.160583941605836" y="1387.6204379562043" type="line"/>
      <point x="72.03649635036497" y="1356.9124087591242" type="line"/>
      <point x="566.1678832116789" y="-9.197080291970803" type="line"/>
      <point x="831.7883211678833" y="-9.197080291970803" type="line"/>
      <point x="1287.3357664233577" y="1356.9124087591242" type="line"/>
      <point x="1417.1094890510947" y="1387.6204379562043" type="line"/>
      <point x="1417.1094890510947" y="1486.0" type="line"/>
      <point x="959.948905109489" y="1486.0" type="line"/>
      <point x="959.948905109489" y="1387.6204379562043" type="line"/>
      <point x="1110.3722627737227" y="1356.9124087591242" type="line"/>
      <point x="830.2189781021898" y="433.04379562043795" type="line"/>
      <point x="792.3138686131388" y="281.18978102189783" type="line"/>
      <point x="750.8905109489051" y="433.978102189781" type="line"/>
      <point x="462.8321167883212" y="1357.5255474452556" type="line"/>
      <point x="622.5766423357665" y="1387.6204379562043" type="line"/>
      <point x="622.5766423357665" y="1486.0" type="line"/>
      <point x="-40.160583941605836" y="1486.0" type="line"/>
    </contour>
  </outline>
</glyph>
<glyph name="W" format="2">
  <advance width="1968.3430656934306"/>
  <unicode hex="0057"/>
  <anchor x="1010.080291970803" y="0.0" name="bottom"/>
  <anchor x="1028.1824817518248" y="1486.0" name="top"/>
  <outline>
    <contour>
      <point x="-43.35036496350365" y="1387.6204379562043" type="line"/>
      <point x="70.94160583941606" y="1356.2992700729926" type="line"/>
      <point x="463.1751824817518" y="-6.131386861313868" type="line"/>
      <point x="752.6350364963504" y="-6.131386861313868" type="line"/>
      <point x="995.021897810219" y="873.2627737226278" type="line"/>
      <point x="1236.2262773722625" y="-6.131386861313868" type="line"/>
      <point x="1529.6861313868612" y="-6.131386861313868" type="line"/>
      <point x="1889.5620437956204" y="1357.2992700729928" type="line"/>
      <point x="2011.080291970803" y="1387.6204379562043" type="line"/>
      <point x="2011.080291970803" y="1486.0" type="line"/>
      <point x="1576.7591240875913" y="1486.0" type="line"/>
      <point x="1576.7591240875913" y="1387.6204379562043" type="line"/>
      <point x="1737.087591240876" y="1357.2992700729928" type="line"/>
      <point x="1521.7007299270072" y="438.54744525547443" type="line"/>
      <point x="1485.6058394160584" y="240.1897810218978" type="line"/>
      <point x="1441.992700729927" y="438.54744525547443" type="line"/>
      <point x="1215.3722627737227" y="1357.2992700729926" type="line"/>
      <point x="1375.970802919708" y="1387.6204379562043" type="line"/>
      <point x="1375.970802919708" y="1486.0" type="line"/>
      <point x="736.051094890511" y="1486.0" type="line"/>
      <point x="736.051094890511" y="1387.6204379562043" type="line"/>
      <point x="849.0583941605839" y="1357.2992700729926" type="line"/>
      <point x="927.3357664233575" y="1089.970802919708" type="line"/>
      <point x="746.0" y="438.54744525547443" type="line"/>
      <point x="705.6496350364963" y="250.61313868613138" type="line"/>
      <point x="667.2627737226278" y="438.5474452554745" type="line"/>
      <point x="437.16058394160586" y="1357.2992700729928" type="line"/>
      <point x="580.948905109489" y="1387.6204379562043" type="line"/>
      <point x="580.948905109489" y="1486.0" type="line"/>
      <point x="-43.35036496350365" y="1486.0" type="line"/>
    </contour>
  </outline>
</glyph>
<glyph name="X" format="2">
  <advance width="1466.7372262773724"/>
  <unicode hex="0058"/>
  <anchor x="1455.7372262773722" y="0.0" name="bottomright"/>
  <outline>
    <contour>
      <point x="200.75912408759126" y="121.27737226277371" type="line"/>
      <point x="14.868613138686133" y="95.63503649635035" type="line"/>
      <point x="14.868613138686133" y="0.0" type="line"/>
      <point x="567.868613138686" y="0.0" type="line"/>
      <point x="567.8686131386862" y="95.63503649635035" type="line"/>
      <point x="372.1970802919708" y="121.27737226277371" type="line"/>
      <point x="638.3576642335767" y="599.9416058394161" type="line"/>
      <point x="910.2627737226277" y="122.27737226277371" type="line"/>
      <point x="754.2627737226278" y="95.63503649635035" type="line"/>
      <point x="754.2627737226278" y="0.0" type="line"/>
      <point x="1451.868613138686" y="0.0" type="line"/>
      <point x="1451.868613138686" y="95.63503649635035" type="line"/>
      <point x="1319.868613138686" y="122.27737226277371" type="line"/>
      <point x="889.094890510949" y="815.9562043795621" type="line"/>
      <point x="1256.2627737226278" y="1354.3649635036495" type="line"/>
      <point x="1430.8686131386862" y="1386.846715328467" type="line"/>
      <point x="1430.8686131386862" y="1486.0" type="line"/>
      <point x="903.8686131386862" y="1486.0" type="line"/>
      <point x="903.8686131386862" y="1386.846715328467" type="line"/>
      <point x="1088.890510948905" y="1355.3649635036495" type="line"/>
      <point x="826.1167883211679" y="900.0948905109489" type="line"/>
      <point x="570.4744525547445" y="1353.3649635036495" type="line"/>
      <point x="727.4744525547445" y="1386.846715328467" type="line"/>
      <point x="727.4744525547445" y="1486.0" type="line"/>
      <point x="26.868613138686133" y="1486.0" type="line"/>
      <point x="26.868613138686133" y="1386.846715328467" type="line"/>
      <point x="158.86861313868613" y="1354.3649635036495" type="line"/>
      <point x="572.3138686131388" y="689.4671532846716" type="line"/>
    </contour>
  </outline>
</glyph>
<glyph name="Y" format="2">
  <advance width="1301.1313868613138"/>
  <unicode hex="0059"/>
  <anchor x="655.4160583941606" y="0.0" name="bottom"/>
  <anchor x="656.6516496350364" y="547.0" name="center"/>
  <anchor x="690.3211678832117" y="1486.0" name="top"/>
  <anchor x="36.32116788321167" y="1486.0" name="topleft"/>
  <outline>
    <contour>
      <point x="464.1313868613139" y="122.27737226277371" type="line"/>
      <point x="268.963503649635" y="95.63503649635035" type="line"/>
      <point x="268.963503649635" y="0.0" type="line"/>
      <point x="1039.7445255474452" y="0.0" type="line"/>
      <point x="1039.7445255474452" y="95.63503649635035" type="line"/>
      <point x="834.4817518248176" y="121.27737226277372" type="line"/>
      <point x="834.4817518248176" y="604.5766423357665" type="line"/>
      <point x="1213.6861313868615" y="1358.978102189781" type="line"/>
      <point x="1360.4452554744523" y="1386.846715328467" type="line"/>
      <point x="1360.4452554744523" y="1486.0" type="line"/>
      <point x="849.4452554744526" y="1486.0" type="line"/>
      <point x="849.4452554744526" y="1386.846715328467" type="line"/>
      <point x="1029.7518248175184" y="1354.978102189781" type="line"/>
      <point x="809.3722627737226" y="828.8248175182482" type="line"/>
      <point x="758.3722627737226" y="704.4671532846716" type="line"/>
      <point x="708.3722627737226" y="828.4379562043795" type="line"/>
      <point x="465.6715328467153" y="1354.978102189781" type="line"/>
      <point x="593.1897810218978" y="1386.846715328467" type="line"/>
      <point x="593.1897810218978" y="1486.0" type="line"/>
      <point x="-42.678832116788314" y="1486.0" type="line"/>
      <point x="-42.678832116788314" y="1386.846715328467" type="line"/>
      <point x="68.32116788321167" y="1355.978102189781" type="line"/>
      <point x="464.1313868613139" y="589.4233576642337" type="line"/>
    </contour>
  </outline>
</glyph>
<glyph name="Z" format="2">
  <advance width="1299.5547445255474"/>
  <unicode hex="005A"/>
  <anchor x="647.2627737226277" y="0.0" name="bottom"/>
  <anchor x="670.2627737226277" y="1486.0" name="top"/>
  <outline>
    <contour>
      <point x="745.0072992700731" y="1246.1167883211679" type="line"/>
      <point x="28.613138686131386" y="83.8905109489051" type="line"/>
      <point x="76.49635036496349" y="0.0" type="line"/>
      <point x="1212.036496350365" y="0.0" type="line"/>
      <point x="1259.7445255474454" y="448.61313868613144" type="line"/>
      <point x="1086.7445255474452" y="482.4525547445255" type="line"/>
      <point x="956.8175182481752" y="147.14598540145985" type="line"/>
      <point x="416.9270072992701" y="103.82481751824817" type="line"/>
      <point x="541.6715328467153" y="246.2700729927007" type="line"/>
      <point x="1249.9343065693429" y="1404.4963503649635" type="line"/>
      <point x="1211.5401459854013" y="1489.065693430657" type="line"/>
      <point x="145.7810218978102" y="1489.065693430657" type="line"/>
      <point x="108.38686131386861" y="1084.0" type="line"/>
      <point x="278.06569343065695" y="1059.0" type="line"/>
      <point x="389.06569343065695" y="1360.3065693430656" type="line"/>
      <point x="867.007299270073" y="1389.3065693430656" type="line"/>
    </contour>
  </outline>
</glyph>
<glyph name="bracketleft" format="2">
  <advance width="909.1313868613139"/>
  <unicode hex="005B"/>
  <outline>
    <contour>
      <point x="190.74452554744522" y="1389.6788321167883" type="curve"/>
      <point x="190.74452554744522" y="-55.67883211678833" type="line" smooth="yes"/>
      <point x="190.74452554744522" y="-240.6788321167883"/>
      <point x="282.64963503649636" y="-274.0"/>
      <point x="437.6496350364963" y="-274.0" type="curve" smooth="yes"/>
      <point x="543.6496350364963" y="-274.0"/>
      <point x="634.6496350364963" y="-255.0"/>
      <point x="715.8759124087592" y="-234.0" type="curve"/>
      <point x="715.8759124087592" y="-150.4014598540146" type="line"/>
      <point x="489.67153284671537" y="-150.4014598540146" type="line"/>
      <point x="489.67153284671537" y="1486.4014598540145" type="line"/>
      <point x="715.8759124087592" y="1486.4014598540145" type="line"/>
      <point x="715.8759124087592" y="1568.0" type="line"/>
      <point x="634.8759124087591" y="1587.0"/>
      <point x="544.6496350364963" y="1608.0"/>
      <point x="437.6496350364963" y="1608.0" type="curve" smooth="yes"/>
      <point x="282.64963503649636" y="1608.0"/>
      <point x="190.74452554744522" y="1574.6788321167885"/>
    </contour>
  </outline>
</glyph>
<glyph name="backslash" format="2">
  <advance width="792.7518248175182"/>
  <unicode hex="005C"/>
  <outline>
    <contour>
      <point x="713.3211678832117" y="-354.0" type="line"/>
      <point x="205.64233576642334" y="1562.0" type="line"/>
      <point x="32.77372262773723" y="1562.0" type="line"/>
      <point x="538.4525547445255" y="-354.0" type="line"/>
    </contour>
  </outline>
</glyph>
<glyph name="bracketright" format="2">
  <advance width="889.1313868613139"/>
  <unicode hex="005D"/>
  <outline>
    <contour>
      <point x="698.3868613138687" y="1389.6788321167883" type="line"/>
      <point x="698.3868613138687" y="1574.6788321167885"/>
      <point x="626.4817518248175" y="1608.0"/>
      <point x="471.4817518248175" y="1608.0" type="curve" smooth="yes"/>
      <point x="364.48175182481754" y="1608.0"/>
      <point x="274.2554744525547" y="1587.0"/>
      <point x="193.25547445255478" y="1568.0" type="curve"/>
      <point x="193.25547445255478" y="1486.4014598540145" type="line"/>
      <point x="419.45985401459853" y="1486.4014598540145" type="line"/>
      <point x="419.45985401459853" y="-150.4014598540146" type="line"/>
      <point x="193.25547445255478" y="-150.4014598540146" type="line"/>
      <point x="193.25547445255478" y="-234.0" type="line"/>
      <point x="274.4817518248175" y="-255.0"/>
      <point x="365.4817518248175" y="-274.0"/>
      <point x="471.4817518248175" y="-274.0" type="curve" smooth="yes"/>
      <point x="626.4817518248175" y="-274.0"/>
      <point x="698.3868613138687" y="-240.6788321167883"/>
      <point x="698.3868613138687" y="-55.67883211678833" type="curve" smooth="yes"/>
    </contour>
  </outline>
</glyph>
<glyph name="asciicircum" format="2">
  <advance width="1281.7080291970806"/>
  <unicode hex="005E"/>
  <outline>
    <contour>
      <point x="722.5474452554745" y="1496.0" type="line"/>
      <point x="553.934306569343" y="1496.0" type="line"/>
      <point x="155.0" y="267.0" type="line"/>
      <point x="328.7737226277373" y="267.0" type="line"/>
      <point x="640.014598540146" y="1221.5912408759123" type="line"/>
      <point x="939.4160583941607" y="267.0" type="line"/>
      <point x="1126.7080291970804" y="267.0" type="line"/>
    </contour>
  </outline>
</glyph>
<glyph name="a" format="2">
  <advance width="1082.1970802919711"/>
  <unicode hex="0061"/>
  <anchor x="524.182481751825" y="2.842170943040401e-14" name="bottom"/>
  <anchor x="790.080291970803" y="20.0" name="ogonek"/>
  <anchor x="530.2992700729927" y="1110.6131386861314" name="top"/>
  <outline>
    <contour>
      <point x="28.941605839416056" y="297.17518248175185" type="curve" smooth="yes"/>
      <point x="28.941605839416056" y="98.13138686131386"/>
      <point x="164.21167883211677" y="-22.386861313868614"/>
      <point x="343.7299270072993" y="-22.386861313868614" type="curve" smooth="yes"/>
      <point x="501.15328467153273" y="-22.386861313868614"/>
      <point x="610.6715328467153" y="67.6131386861314"/>
      <point x="654.3211678832117" y="140.35036496350364" type="curve"/>
      <point x="654.3211678832117" y="80.03649635036497" type="line" smooth="yes"/>
      <point x="654.3211678832117" y="-4.255474452554745"/>
      <point x="691.2481751824818" y="-22.065693430656935"/>
      <point x="790.3795620437957" y="-22.065693430656935" type="curve" smooth="yes"/>
      <point x="883.3430656934306" y="-22.065693430656935"/>
      <point x="1006.5109489051094" y="-1.2919708029197077"/>
      <point x="1051.9635036496352" y="8.321167883211679" type="curve"/>
      <point x="1051.9635036496352" y="99.5036496350365" type="line"/>
      <point x="960.5693430656935" y="107.24087591240877" type="line"/>
      <point x="960.5693430656935" y="708.0437956204379" type="line" smooth="yes"/>
      <point x="960.5693430656935" y="987.5036496350365"/>
      <point x="840.065693430657" y="1098.153284671533"/>
      <point x="558.2043795620438" y="1098.153284671533" type="curve" smooth="yes"/>
      <point x="318.68613138686135" y="1098.153284671533"/>
      <point x="140.32116788321167" y="994.6642335766425"/>
      <point x="82.74452554744525" y="942.8321167883212" type="curve"/>
      <point x="135.33576642335765" y="833.4233576642334" type="line"/>
      <point x="195.0802919708029" y="858.5547445255474"/>
      <point x="307.05109489051097" y="905.8175182481752"/>
      <point x="450.3795620437956" y="905.8175182481752" type="curve" smooth="yes"/>
      <point x="596.6496350364964" y="905.8175182481752"/>
      <point x="642.3503649635037" y="841.3357664233577"/>
      <point x="642.3503649635037" y="724.0656934306569" type="curve" smooth="yes"/>
      <point x="642.3503649635036" y="653.3430656934306" type="line"/>
      <point x="318.2554744525547" y="651.5036496350365"/>
      <point x="28.941605839416056" y="545.5912408759125"/>
    </contour>
    <contour>
      <point x="507.62773722627736" y="150.94160583941607" type="curve" smooth="yes"/>
      <point x="424.3649635036496" y="150.94160583941607"/>
      <point x="370.2335766423357" y="222.71532846715328"/>
      <point x="370.2335766423357" y="335.75182481751824" type="curve" smooth="yes"/>
      <point x="370.2335766423357" y="452.58394160583947"/>
      <point x="441.46715328467155" y="548.1313868613139"/>
      <point x="642.3503649635036" y="549.1313868613139" type="curve"/>
      <point x="642.3503649635036" y="214.65693430656935" type="line"/>
      <point x="609.8613138686131" y="176.20437956204384"/>
      <point x="550.051094890511" y="150.94160583941607"/>
    </contour>
  </outline>
</glyph>
<glyph name="b" format="2">
  <advance width="1205.189781021898"/>
  <unicode hex="0062"/>
  <anchor x="563.8832116788321" y="-3.0" name="bottom"/>
  <anchor x="813.8832116788321" y="1111.0" name="top"/>
  <outline>
    <contour>
      <point x="-2.029197080291972" y="1478.1605839416059" type="line"/>
      <point x="127.97810218978101" y="1443.4233576642334" type="line"/>
      <point x="127.97810218978101" y="54.0" type="line"/>
      <point x="155.97810218978105" y="35.0"/>
      <point x="305.75182481751824" y="-22.0"/>
      <point x="590.029197080292" y="-22.0" type="curve" smooth="yes"/>
      <point x="916.4452554744526" y="-22.0"/>
      <point x="1147.7007299270074" y="219.46715328467153"/>
      <point x="1147.7007299270072" y="585.036496350365" type="curve" smooth="yes"/>
      <point x="1147.7007299270072" y="936.029197080292"/>
      <point x="982.2335766423357" y="1102.8613138686133"/>
      <point x="735.1094890510949" y="1102.8613138686133" type="curve" smooth="yes"/>
      <point x="607.7883211678832" y="1102.8613138686133"/>
      <point x="497.5985401459854" y="1029.321167883212"/>
      <point x="452.84671532846716" y="969.029197080292" type="curve"/>
      <point x="452.84671532846716" y="1596.1313868613138" type="line"/>
      <point x="392.1021897810219" y="1637.065693430657" type="line"/>
      <point x="374.9489051094891" y="1637.065693430657" type="line"/>
      <point x="-2.029197080291972" y="1563.7591240875913" type="line"/>
    </contour>
    <contour>
      <point x="602.2116788321168" y="930.4598540145986" type="curve" smooth="yes"/>
      <point x="711.4452554744526" y="930.4598540145986"/>
      <point x="797.1240875912409" y="831.9708029197079"/>
      <point x="795.2846715328468" y="544.07299270073" type="curve" smooth="yes"/>
      <point x="793.4452554744527" y="229.43065693430657"/>
      <point x="716.883211678832" y="76.85401459854015"/>
      <point x="584.9416058394161" y="76.85401459854015" type="curve" smooth="yes"/>
      <point x="526.970802919708" y="76.85401459854015"/>
      <point x="469.1021897810219" y="97.94890510948906"/>
      <point x="452.84671532846716" y="133.23357664233578" type="curve"/>
      <point x="452.84671532846716" y="856.6204379562043" type="line"/>
      <point x="477.27007299270076" y="885.2700729927009"/>
      <point x="524.9562043795621" y="930.4598540145986"/>
    </contour>
  </outline>
</glyph>
<glyph name="c" format="2">
  <advance width="981.7372262773723"/>
  <unicode hex="0063"/>
  <anchor x="514.7883211678833" y="0.0" name="bottom"/>
  <anchor x="563.1678832116788" y="1110.6131386861314" name="top"/>
  <outline>
    <contour>
      <point x="43.875912408759135" y="524.788321167883" type="curve" smooth="yes"/>
      <point x="43.87591240875912" y="207.23357664233578"/>
      <point x="199.4890510948905" y="-22.0"/>
      <point x="545.2116788321167" y="-22.0" type="curve" smooth="yes"/>
      <point x="730.2846715328467" y="-22.0"/>
      <point x="888.0875912408759" y="74.35766423357664"/>
      <point x="938.2481751824816" y="131.06569343065695" type="curve"/>
      <point x="896.6934306569343" y="225.0802919708029" type="line"/>
      <point x="837.5620437956204" y="185.14598540145982"/>
      <point x="747.8540145985401" y="152.94890510948906"/>
      <point x="651.7080291970802" y="152.94890510948906" type="curve" smooth="yes"/>
      <point x="502.48175182481754" y="152.94890510948906"/>
      <point x="400.6131386861314" y="285.7956204379562"/>
      <point x="401.22627737226276" y="583.7883211678832" type="curve" smooth="yes"/>
      <point x="402.45255474452557" y="889.6204379562042"/>
      <point x="474.007299270073" y="992.5182481751824"/>
      <point x="583.8175182481751" y="992.5182481751824" type="curve" smooth="yes"/>
      <point x="622.8467153284671" y="992.5182481751824"/>
      <point x="667.2408759124088" y="961.1751824817519"/>
      <point x="678.3357664233578" y="912.4087591240876" type="curve" smooth="yes"/>
      <point x="726.4671532846716" y="699.978102189781" type="line"/>
      <point x="919.1824817518249" y="699.978102189781" type="line"/>
      <point x="932.4087591240876" y="1037.8321167883212" type="line"/>
      <point x="866.6350364963505" y="1046.4452554744526"/>
      <point x="781.8248175182481" y="1102.087591240876"/>
      <point x="595.051094890511" y="1102.087591240876" type="curve" smooth="yes"/>
      <point x="265.5912408759124" y="1102.087591240876"/>
      <point x="43.87591240875912" y="877.2116788321167"/>
    </contour>
  </outline>
</glyph>
<glyph name="d" format="2">
  <advance width="1207.3503649635036"/>
  <unicode hex="0064"/>
  <anchor x="606.4306569343065" y="0.0" name="bottom"/>
  <anchor x="582.4452554744526" y="563.7372262773723" name="center"/>
  <anchor x="333.0" y="1158.0" name="top"/>
  <anchor x="1208.824817518248" y="1111.0" name="topright"/>
  <outline>
    <contour>
      <point x="469.2408759124088" y="-22.386861313868614" type="curve" smooth="yes"/>
      <point x="603.8175182481751" y="-22.38686131386861"/>
      <point x="724.9854014598541" y="50.18978102189781"/>
      <point x="776.6058394160584" y="140.7080291970803" type="curve"/>
      <point x="776.6058394160584" y="79.26277372262773" type="line" smooth="yes"/>
      <point x="776.6058394160584" y="-7.9343065693430646"/>
      <point x="831.2116788321167" y="-22.065693430656935"/>
      <point x="915.3430656934306" y="-22.065693430656935" type="curve" smooth="yes"/>
      <point x="1006.9197080291971" y="-22.065693430656935"/>
      <point x="1119.2408759124087" y="-2.5182481751824812"/>
      <point x="1172.6642335766421" y="8.321167883211679" type="curve"/>
      <point x="1172.6642335766421" y="104.5985401459854" type="line"/>
      <point x="1078.4014598540145" y="104.5985401459854" type="line"/>
      <point x="1078.4014598540145" y="1598.1897810218977" type="line"/>
      <point x="1031.4890510948906" y="1637.065693430657" type="line"/>
      <point x="1003.3722627737226" y="1637.065693430657" type="line"/>
      <point x="579.4890510948906" y="1576.4014598540145" type="line"/>
      <point x="579.4890510948906" y="1487.3138686131385" type="line"/>
      <point x="751.7591240875912" y="1459.0875912408758" type="line"/>
      <point x="751.7591240875912" y="1076.094890510949" type="line"/>
      <point x="718.6934306569343" y="1090.671532846715"/>
      <point x="665.7007299270074" y="1102.087591240876"/>
      <point x="610.3211678832117" y="1102.087591240876" type="curve" smooth="yes"/>
      <point x="269.35036496350364" y="1102.087591240876"/>
      <point x="52.262773722627735" y="862.4452554744527"/>
      <point x="52.262773722627735" y="500.7591240875913" type="curve" smooth="yes"/>
      <point x="52.262773722627735" y="137.74452554744525"/>
      <point x="246.64963503649636" y="-22.386861313868614"/>
    </contour>
    <contour>
      <point x="601.3941605839417" y="141.5912408759124" type="curve" smooth="yes"/>
      <point x="492.99999999999994" y="141.5912408759124"/>
      <point x="407.4817518248175" y="245.4379562043796"/>
      <point x="408.7080291970803" y="541.7226277372262" type="curve" smooth="yes"/>
      <point x="410.5474452554745" y="863.5985401459853"/>
      <point x="492.6277372262774" y="993.1021897810219"/>
      <point x="627.2408759124087" y="993.1021897810219" type="curve" smooth="yes"/>
      <point x="682.3065693430657" y="993.1021897810219"/>
      <point x="732.4379562043796" y="971.3941605839416"/>
      <point x="751.7591240875912" y="937.948905109489" type="curve"/>
      <point x="751.7591240875912" y="216.27007299270073" type="line"/>
      <point x="726.6277372262774" y="179.2700729927007"/>
      <point x="675.6569343065694" y="141.5912408759124"/>
    </contour>
  </outline>
</glyph>
<glyph name="e" format="2">
  <advance width="1051.2262773722628"/>
  <unicode hex="0065"/>
  <anchor x="525.0802919708028" y="0.0" name="bottom"/>
  <anchor x="569.978102189781" y="20.0" name="ogonek"/>
  <anchor x="574.4379562043796" y="1110.0" name="top"/>
  <outline>
    <contour>
      <point x="566.5985401459855" y="-22.773722627737225" type="curve" smooth="yes"/>
      <point x="749.4087591240875" y="-22.773722627737225"/>
      <point x="926.2189781021897" y="71.13138686131387"/>
      <point x="984.2846715328467" y="135.1970802919708" type="curve"/>
      <point x="939.8905109489051" y="231.05109489051094" type="line"/>
      <point x="881.4379562043796" y="191.1167883211679"/>
      <point x="766.0802919708029" y="154.62773722627736"/>
      <point x="673.6204379562043" y="154.62773722627736" type="curve" smooth="yes"/>
      <point x="498.3284671532847" y="154.62773722627736"/>
      <point x="403.8759124087592" y="263.70072992700733"/>
      <point x="391.4233576642336" y="509.43065693430657" type="curve"/>
      <point x="988.2481751824816" y="509.43065693430657" type="line"/>
      <point x="998.8613138686133" y="551.5328467153284"/>
      <point x="1004.8613138686131" y="615.9197080291971"/>
      <point x="1004.8613138686133" y="711.1751824817519" type="curve"/>
      <point x="1000.2481751824818" y="959.5985401459853"/>
      <point x="850.9270072992699" y="1102.087591240876"/>
      <point x="577.5985401459853" y="1102.087591240876" type="curve" smooth="yes"/>
      <point x="257.43065693430657" y="1102.087591240876"/>
      <point x="43.912408759124084" y="888.0875912408759"/>
      <point x="43.912408759124084" y="528.5328467153286" type="curve" smooth="yes"/>
      <point x="43.912408759124084" y="199.5912408759124"/>
      <point x="196.36496350364965" y="-22.773722627737225"/>
    </contour>
    <contour>
      <point x="389.4233576642336" y="609.1605839416059" type="line"/>
      <point x="390.00729927007296" y="914.0802919708029"/>
      <point x="463.007299270073" y="995.1970802919708"/>
      <point x="551.4671532846714" y="995.1970802919708" type="curve" smooth="yes"/>
      <point x="649.7664233576643" y="995.1970802919708"/>
      <point x="677.0948905109489" y="895.970802919708"/>
      <point x="677.0948905109489" y="722.7226277372263" type="curve" smooth="yes"/>
      <point x="677.0948905109489" y="694.7226277372264"/>
      <point x="675.0948905109489" y="645.6715328467153"/>
      <point x="674.4817518248175" y="617.2846715328468" type="curve"/>
    </contour>
  </outline>
</glyph>
<glyph name="f" format="2">
  <advance width="754.1094890510949"/>
  <unicode hex="0066"/>
  <anchor x="374.6204379562044" y="1581.6861313868612" name="top"/>
  <outline>
    <contour>
      <point x="192.85401459854018" y="120.43795620437957" type="line"/>
      <point x="55.94160583941606" y="95.63503649635037" type="line"/>
      <point x="55.94160583941606" y="0.0" type="line"/>
      <point x="698.2554744525547" y="0.0" type="line"/>
      <point x="698.2554744525547" y="95.63503649635037" type="line"/>
      <point x="519.2408759124087" y="119.82481751824818" type="line"/>
      <point x="519.2408759124087" y="929.6861313868613" type="line"/>
      <point x="728.9051094890511" y="929.6861313868613" type="line"/>
      <point x="728.9051094890511" y="1069.992700729927" type="line"/>
      <point x="519.2408759124087" y="1069.992700729927" type="line"/>
      <point x="519.2408759124088" y="1305.5693430656936" type="line" smooth="yes"/>
      <point x="519.2408759124088" y="1418.9197080291972"/>
      <point x="555.6934306569342" y="1458.3722627737227"/>
      <point x="648.0875912408759" y="1458.3722627737227" type="curve" smooth="yes"/>
      <point x="716.6715328467153" y="1458.3722627737227"/>
      <point x="801.7956204379561" y="1435.0218978102191"/>
      <point x="845.2773722627737" y="1403.0218978102191" type="curve"/>
      <point x="845.8905109489051" y="1652.9708029197081" type="line"/>
      <point x="829.5036496350365" y="1660.2919708029196"/>
      <point x="789.8248175182481" y="1670.5839416058395"/>
      <point x="715.3722627737226" y="1670.5839416058395" type="curve" smooth="yes"/>
      <point x="449.5547445255475" y="1670.5839416058395"/>
      <point x="192.85401459854018" y="1437.759124087591"/>
      <point x="192.85401459854018" y="1144.094890510949" type="curve" smooth="yes"/>
      <point x="192.85401459854018" y="1067.7664233576643" type="line"/>
      <point x="52.32846715328466" y="1019.8029197080291" type="line"/>
      <point x="52.32846715328466" y="929.6861313868613" type="line"/>
      <point x="192.85401459854018" y="929.6861313868613" type="line"/>
    </contour>
  </outline>
</glyph>
<glyph name="g" format="2">
  <advance width="1212.2627737226278"/>
  <unicode hex="0067"/>
  <anchor x="601.7226277372263" y="0.0" name="bottom"/>
  <anchor x="596.4379562043796" y="1110.6131386861314" name="top"/>
  <outline>
    <contour>
      <point x="545.2408759124087" y="-516.7883211678832" type="curve"/>
      <point x="875.6569343065693" y="-516.7883211678832"/>
      <point x="1181.2481751824819" y="-357.65693430656927"/>
      <point x="1181.2481751824819" y="-91.007299270073" type="curve" smooth="yes"/>
      <point x="1181.2481751824819" y="101.45255474452554"/>
      <point x="1039.7299270072992" y="201.77372262773724"/>
      <point x="777.978102189781" y="201.77372262773724" type="curve" smooth="yes"/>
      <point x="568.883211678832" y="201.77372262773724" type="line" smooth="yes"/>
      <point x="403.014598540146" y="201.77372262773724"/>
      <point x="345.7226277372263" y="230.67883211678833"/>
      <point x="345.7226277372263" y="302.39416058394164" type="curve" smooth="yes"/>
      <point x="345.7226277372263" y="334.5255474452554"/>
      <point x="355.1751824817518" y="355.8175182481752"/>
      <point x="378.4014598540146" y="379.1094890510949" type="curve"/>
      <point x="423.2408759124088" y="370.8832116788321"/>
      <point x="485.97810218978105" y="366.6569343065694"/>
      <point x="544.4306569343066" y="366.6569343065694" type="curve" smooth="yes"/>
      <point x="846.8321167883212" y="366.6569343065694"/>
      <point x="1037.6934306569342" y="514.2773722627737"/>
      <point x="1037.0802919708028" y="745.7664233576642" type="curve" smooth="yes"/>
      <point x="1037.0802919708028" y="787.2189781021898"/>
      <point x="1027.3722627737227" y="847.2700729927006"/>
      <point x="1012.051094890511" y="874.4671532846714" type="curve"/>
      <point x="1192.4817518248176" y="874.4671532846716" type="line"/>
      <point x="1192.4817518248176" y="1102.6058394160584" type="line"/>
      <point x="1129.3795620437957" y="1102.6058394160584" type="line" smooth="yes"/>
      <point x="1039.4744525547446" y="1102.6058394160584"/>
      <point x="969.6569343065693" y="1050.4744525547444"/>
      <point x="938.8175182481752" y="997.3211678832116" type="curve"/>
      <point x="861.6569343065694" y="1068.153284671533"/>
      <point x="743.6569343065694" y="1096.6715328467153"/>
      <point x="575.1386861313869" y="1096.6715328467153" type="curve" smooth="yes"/>
      <point x="302.3941605839416" y="1096.6715328467153"/>
      <point x="77.5839416058394" y="961.9270072992701"/>
      <point x="77.5839416058394" y="732.8905109489051" type="curve" smooth="yes"/>
      <point x="77.5839416058394" y="583.5328467153286"/>
      <point x="141.45255474452554" y="459.6934306569343"/>
      <point x="299.42335766423355" y="400.8540145985402" type="curve"/>
      <point x="196.16788321167883" y="355.3065693430657"/>
      <point x="133.9416058394161" y="274.04379562043795"/>
      <point x="133.94160583941604" y="182.24087591240877" type="curve" smooth="yes"/>
      <point x="133.94160583941607" y="104.05109489051094"/>
      <point x="164.03649635036496" y="41.34306569343065"/>
      <point x="235.45255474452554" y="-2.299270072992705" type="curve"/>
      <point x="117.16788321167883" y="-30.496350364963504"/>
      <point x="32.52554744525547" y="-110.85401459854015"/>
      <point x="32.52554744525547" y="-225.08759124087592" type="curve" smooth="yes"/>
      <point x="32.52554744525547" y="-431.1897810218977"/>
      <point x="260.7956204379562" y="-516.7883211678832"/>
    </contour>
    <contour>
      <point x="581.4671532846714" y="-400.60583941605836" type="curve"/>
      <point x="421.7810218978102" y="-400.2189781021898"/>
      <point x="314.70072992700733" y="-320.11678832116786"/>
      <point x="314.70072992700733" y="-171.35036496350367" type="curve" smooth="yes"/>
      <point x="314.70072992700733" y="-107.21897810218977"/>
      <point x="334.4452554744526" y="-66.11678832116789"/>
      <point x="354.8029197080292" y="-36.693430656934304" type="curve"/>
      <point x="388.40875912408757" y="-43.948905109489054"/>
      <point x="431.97810218978105" y="-50.2043795620438"/>
      <point x="479.64233576642334" y="-50.2043795620438" type="curve" smooth="yes"/>
      <point x="676.043795620438" y="-50.2043795620438" type="line" smooth="yes"/>
      <point x="812.9489051094889" y="-50.2043795620438"/>
      <point x="866.7518248175182" y="-92.04379562043795"/>
      <point x="866.7518248175182" y="-191.98540145985402" type="curve" smooth="yes"/>
      <point x="866.7518248175182" y="-338.8905109489051"/>
      <point x="736.905109489051" y="-400.992700729927"/>
    </contour>
    <contour>
      <point x="560.5620437956205" y="470.3211678832117" type="curve" smooth="yes"/>
      <point x="454.4233576642336" y="470.3211678832117"/>
      <point x="411.2262773722628" y="577.7956204379562"/>
      <point x="411.2262773722628" y="742.6642335766423" type="curve" smooth="yes"/>
      <point x="411.2262773722628" y="914.6204379562045"/>
      <point x="463.35766423357666" y="996.6861313868613"/>
      <point x="565.3649635036496" y="996.6861313868613" type="curve" smooth="yes"/>
      <point x="664.1459854014598" y="996.6861313868613"/>
      <point x="708.3430656934306" y="900.6350364963504"/>
      <point x="708.3430656934306" y="734.6642335766423" type="curve" smooth="yes"/>
      <point x="708.3430656934306" y="560.7445255474452"/>
      <point x="665.4087591240876" y="470.3211678832117"/>
    </contour>
  </outline>
</glyph>
<glyph name="h" format="2">
  <advance width="1281.0364963503648"/>
  <unicode hex="0068"/>
  <anchor x="662.5693430656934" y="0.0" name="bottom"/>
  <anchor x="236.0" y="1279.0" name="center"/>
  <anchor x="286.3065693430657" y="1596.0" name="top"/>
  <outline>
    <contour>
      <point x="151.01459854014598" y="119.82481751824817" type="line"/>
      <point x="43.30656934306569" y="95.63503649635037" type="line"/>
      <point x="43.30656934306569" y="0.0" type="line"/>
      <point x="596.1751824817519" y="0.0" type="line"/>
      <point x="596.1751824817519" y="95.63503649635037" type="line"/>
      <point x="485.94890510948903" y="120.43795620437957" type="line"/>
      <point x="485.94890510948903" y="842.043795620438" type="line"/>
      <point x="528.3065693430657" y="877.0802919708029"/>
      <point x="600.8905109489051" y="913.8905109489051"/>
      <point x="679.4087591240876" y="913.8905109489051" type="curve" smooth="yes"/>
      <point x="787.7737226277371" y="913.8905109489051"/>
      <point x="815.3211678832117" y="843.8248175182483"/>
      <point x="815.3211678832117" y="682.8467153284672" type="curve" smooth="yes"/>
      <point x="815.3211678832117" y="120.43795620437955" type="line"/>
      <point x="719.7664233576643" y="95.63503649635037" type="line"/>
      <point x="719.7664233576643" y="0.0" type="line"/>
      <point x="1262.6131386861312" y="0.0" type="line"/>
      <point x="1262.6131386861312" y="95.63503649635035" type="line"/>
      <point x="1147.5766423357666" y="120.43795620437955" type="line"/>
      <point x="1147.5766423357666" y="683.4598540145985" type="line" smooth="yes"/>
      <point x="1147.5766423357666" y="974.7226277372263"/>
      <point x="1070.9051094890508" y="1097.8613138686133"/>
      <point x="839.116788321168" y="1097.8613138686133" type="curve" smooth="yes"/>
      <point x="668.948905109489" y="1097.8613138686133"/>
      <point x="539.3941605839417" y="1006.1532846715329"/>
      <point x="469.9124087591241" y="932.6131386861314" type="curve"/>
      <point x="481.0437956204379" y="1097.07299270073" type="line"/>
      <point x="480.43065693430657" y="1594.2919708029199" type="line"/>
      <point x="420.27007299270076" y="1637.065693430657" type="line"/>
      <point x="402.8905109489051" y="1637.065693430657" type="line"/>
      <point x="20.394160583941606" y="1563.7591240875913" type="line"/>
      <point x="20.394160583941606" y="1474.4817518248174" type="line"/>
      <point x="151.01459854014598" y="1439.7445255474452" type="line"/>
    </contour>
  </outline>
</glyph>
<glyph name="k" format="2">
  <advance width="1250.1021897810217"/>
  <unicode hex="006B"/>
  <anchor x="678.007299270073" y="0.0" name="bottom"/>
  <anchor x="678.4379562043796" y="1575.85401459854" name="top"/>
  <outline>
    <contour>
      <point x="148.33576642335765" y="120.05109489051095" type="line"/>
      <point x="37.175182481751825" y="95.24817518248175" type="line"/>
      <point x="37.175182481751825" y="0.0" type="line"/>
      <point x="589.4306569343066" y="0.0" type="line"/>
      <point x="589.4306569343066" y="94.86131386861312" type="line"/>
      <point x="477.75182481751824" y="120.05109489051095" type="line"/>
      <point x="477.75182481751824" y="254.5912408759124" type="line"/>
      <point x="472.13868613138686" y="366.1313868613139" type="line"/>
      <point x="615.2116788321167" y="515.07299270073" type="line"/>
      <point x="815.1824817518248" y="120.05109489051094" type="line"/>
      <point x="717.9927007299269" y="95.63503649635035" type="line"/>
      <point x="720.7007299270073" y="0.0" type="line"/>
      <point x="1287.3722627737225" y="0.0" type="line"/>
      <point x="1287.3722627737225" y="95.63503649635037" type="line"/>
      <point x="1186.0802919708028" y="119.43795620437957" type="line"/>
      <point x="842.051094890511" y="734.0" type="line"/>
      <point x="1047.8029197080289" y="949.1021897810219" type="line"/>
      <point x="1202.970802919708" y="977.036496350365" type="line"/>
      <point x="1202.970802919708" y="1069.3795620437957" type="line"/>
      <point x="708.3576642335765" y="1069.3795620437957" type="line"/>
      <point x="708.3576642335765" y="977.036496350365" type="line"/>
      <point x="862.0" y="951.1678832116788" type="line"/>
      <point x="473.3649635036496" y="515.1897810218978" type="line"/>
      <point x="478.3649635036496" y="660.0" type="line"/>
      <point x="478.3649635036496" y="1593.9051094890513" type="line"/>
      <point x="419.20437956204375" y="1637.065693430657" type="line"/>
      <point x="401.82481751824815" y="1637.065693430657" type="line"/>
      <point x="20.78102189781022" y="1563.7591240875913" type="line"/>
      <point x="20.78102189781022" y="1474.4817518248174" type="line"/>
      <point x="148.33576642335765" y="1439.7445255474452" type="line"/>
    </contour>
  </outline>
</glyph>
<glyph name="l" format="2">
  <advance width="626.992700729927"/>
  <unicode hex="006C"/>
  <anchor x="325.75182481751824" y="0.0" name="bottom"/>
  <anchor x="306.65693430656927" y="1634.0" name="top"/>
  <anchor x="644.7518248175182" y="1111.0" name="topright"/>
  <outline>
    <contour>
      <point x="152.85401459854015" y="120.82481751824818" type="line"/>
      <point x="30.656934306569344" y="95.24817518248176" type="line"/>
      <point x="30.656934306569344" y="0.0" type="line"/>
      <point x="603.3722627737225" y="0.0" type="line"/>
      <point x="603.3722627737225" y="95.24817518248176" type="line"/>
      <point x="479.56204379562047" y="119.82481751824817" type="line"/>
      <point x="479.56204379562047" y="1594.2919708029199" type="line"/>
      <point x="422.1094890510949" y="1637.065693430657" type="line"/>
      <point x="405.11678832116786" y="1637.065693430657" type="line"/>
      <point x="23.459854014598545" y="1563.7591240875913" type="line"/>
      <point x="23.459854014598545" y="1474.4817518248174" type="line"/>
      <point x="152.85401459854015" y="1439.7445255474452" type="line"/>
    </contour>
  </outline>
</glyph>
<glyph name="m" format="2">
  <advance width="1943.5985401459855"/>
  <unicode hex="006D"/>
  <anchor x="989.5766423357663" y="0.0" name="bottom"/>
  <anchor x="993.4160583941606" y="1111.0" name="top"/>
  <outline>
    <contour>
      <point x="58.598540145985396" y="0.0" type="line"/>
      <point x="610.6277372262774" y="0.0" type="line"/>
      <point x="610.6277372262774" y="95.63503649635037" type="line"/>
      <point x="502.2408759124088" y="120.43795620437956" type="line"/>
      <point x="502.2408759124088" y="842.0437956204379" type="line"/>
      <point x="543.5985401459853" y="875.2408759124088"/>
      <point x="615.1824817518249" y="913.890510948905"/>
      <point x="694.0875912408759" y="913.890510948905" type="curve" smooth="yes"/>
      <point x="798.3868613138686" y="913.890510948905"/>
      <point x="828.1605839416059" y="848.116788321168"/>
      <point x="828.1605839416059" y="682.846715328467" type="curve" smooth="yes"/>
      <point x="828.1605839416059" y="120.43795620437956" type="line"/>
      <point x="737.5109489051096" y="95.63503649635037" type="line"/>
      <point x="737.5109489051096" y="0.0" type="line"/>
      <point x="1273.6131386861314" y="0.0" type="line"/>
      <point x="1273.6131386861314" y="95.63503649635037" type="line"/>
      <point x="1164.7080291970806" y="120.43795620437956" type="line"/>
      <point x="1164.7080291970806" y="697.0" type="line" smooth="yes"/>
      <point x="1164.7080291970806" y="750.5547445255474"/>
      <point x="1160.1605839416059" y="805.2335766423358"/>
      <point x="1152.4817518248174" y="845.5620437956205" type="curve"/>
      <point x="1193.8394160583941" y="879.2408759124087"/>
      <point x="1264.9051094890513" y="913.8905109489051"/>
      <point x="1338.2919708029196" y="913.8905109489051" type="curve" smooth="yes"/>
      <point x="1443.2043795620439" y="913.8905109489051"/>
      <point x="1476.043795620438" y="846.8905109489051"/>
      <point x="1476.043795620438" y="678.5547445255474" type="curve" smooth="yes"/>
      <point x="1476.043795620438" y="120.05109489051094" type="line"/>
      <point x="1390.2992700729926" y="95.63503649635035" type="line"/>
      <point x="1390.2992700729926" y="0.0" type="line"/>
      <point x="1925.1751824817518" y="0.0" type="line"/>
      <point x="1925.1751824817518" y="95.63503649635035" type="line"/>
      <point x="1811.3649635036497" y="120.05109489051094" type="line"/>
      <point x="1811.3649635036497" y="684.07299270073" type="line" smooth="yes"/>
      <point x="1811.3649635036497" y="980.8540145985401"/>
      <point x="1718.138686131387" y="1097.8613138686133"/>
      <point x="1498.0" y="1097.8613138686133" type="curve" smooth="yes"/>
      <point x="1347.9708029197084" y="1097.8613138686133"/>
      <point x="1212.1240875912408" y="1021.4160583941606"/>
      <point x="1130.153284671533" y="930.8394160583942" type="curve"/>
      <point x="1088.4087591240875" y="1042.6715328467153"/>
      <point x="1006.1167883211679" y="1097.8613138686133"/>
      <point x="856.861313868613" y="1097.8613138686133" type="curve" smooth="yes"/>
      <point x="727.6788321167884" y="1097.8613138686133"/>
      <point x="564.4963503649635" y="1017.8029197080293"/>
      <point x="480.2992700729927" y="925.6423357664233" type="curve"/>
      <point x="480.9124087591241" y="1041.277372262774" type="line"/>
      <point x="432.3649635036496" y="1098.1532846715327" type="line"/>
      <point x="410.1459854014599" y="1098.1532846715327" type="line"/>
      <point x="51.40145985401459" y="1027.2992700729926" type="line"/>
      <point x="51.40145985401459" y="915.948905109489" type="line"/>
      <point x="166.69343065693428" y="875.0802919708029" type="line"/>
      <point x="166.69343065693428" y="120.43795620437956" type="line"/>
      <point x="58.598540145985396" y="95.63503649635037" type="line"/>
    </contour>
  </outline>
</glyph>
<glyph name="n" format="2">
  <advance width="1306.138686131387"/>
  <unicode hex="006E"/>
  <anchor x="659.6058394160583" y="0.0" name="bottom"/>
  <anchor x="634.6058394160583" y="1111.0" name="top"/>
  <outline>
    <contour>
      <point x="166.69343065693428" y="120.43795620437956" type="line"/>
      <point x="55.53284671532846" y="95.63503649635037" type="line"/>
      <point x="55.53284671532846" y="0.0" type="line"/>
      <point x="611.4671532846716" y="0.0" type="line"/>
      <point x="611.4671532846716" y="95.63503649635037" type="line"/>
      <point x="502.2408759124088" y="120.43795620437957" type="line"/>
      <point x="502.2408759124088" y="841.4306569343066" type="line"/>
      <point x="542.985401459854" y="872.1751824817518"/>
      <point x="606.8321167883212" y="913.8905109489051"/>
      <point x="695.92700729927" y="913.8905109489051" type="curve" smooth="yes"/>
      <point x="800.2262773722628" y="913.8905109489051"/>
      <point x="842.2627737226277" y="848.1167883211679"/>
      <point x="842.2627737226277" y="682.8467153284672" type="curve" smooth="yes"/>
      <point x="842.2627737226277" y="119.82481751824817" type="line"/>
      <point x="752.2262773722628" y="95.63503649635037" type="line"/>
      <point x="752.2262773722628" y="0.0" type="line"/>
      <point x="1287.7153284671533" y="0.0" type="line"/>
      <point x="1287.7153284671533" y="96.24817518248175" type="line"/>
      <point x="1178.8102189781023" y="119.82481751824817" type="line"/>
      <point x="1178.8102189781023" y="688.3649635036497" type="line" smooth="yes"/>
      <point x="1178.8102189781023" y="988.8248175182482"/>
      <point x="1079.4525547445255" y="1097.8613138686133"/>
      <point x="859.3138686131387" y="1097.8613138686133" type="curve" smooth="yes"/>
      <point x="697.1167883211679" y="1097.8613138686133"/>
      <point x="560.8175182481751" y="1011.6715328467153"/>
      <point x="480.2992700729927" y="926.0948905109489" type="curve"/>
      <point x="483.0729927007299" y="981.992700729927" type="line"/>
      <point x="483.0729927007299" y="1055.3795620437957" type="line"/>
      <point x="429.2992700729927" y="1098.1532846715327" type="line"/>
      <point x="410.1459854014598" y="1098.1532846715327" type="line"/>
      <point x="51.40145985401459" y="1027.2992700729926" type="line"/>
      <point x="51.40145985401459" y="915.948905109489" type="line"/>
      <point x="166.69343065693428" y="875.0802919708029" type="line"/>
    </contour>
  </outline>
</glyph>
<glyph name="o" format="2">
  <advance width="1169.087591240876"/>
  <unicode hex="006F"/>
  <anchor x="585.043795620438" y="0.0" name="bottom"/>
  <anchor x="585.043795620438" y="538.2700729927008" name="center"/>
  <anchor x="610.9270072992699" y="31.45985401459854" name="ogonek"/>
  <anchor x="589.9489051094891" y="1110.6131386861314" name="top"/>
  <anchor x="787.6934306569343" y="1069.992700729927" name="topright"/>
  <outline>
    <contour>
      <point x="43.875912408759135" y="526.014598540146" type="curve" smooth="yes"/>
      <point x="43.875912408759135" y="168.8175182481752"/>
      <point x="247.7810218978102" y="-22.773722627737225"/>
      <point x="566.5620437956204" y="-22.773722627737225" type="curve" smooth="yes"/>
      <point x="861.5985401459855" y="-22.773722627737225"/>
      <point x="1125.2116788321168" y="150.8102189781022"/>
      <point x="1125.2116788321168" y="551.3649635036496" type="curve" smooth="yes"/>
      <point x="1125.2116788321168" y="907.4014598540147"/>
      <point x="926.1751824817519" y="1100.9270072992701"/>
      <point x="601.912408759124" y="1100.9270072992701" type="curve" smooth="yes"/>
      <point x="307.8759124087591" y="1100.9270072992701"/>
      <point x="43.875912408759135" y="920.5985401459855"/>
    </contour>
    <contour>
      <point x="588.6569343065694" y="84.1167883211679" type="curve" smooth="yes"/>
      <point x="453.7810218978102" y="84.1167883211679"/>
      <point x="408.7080291970803" y="257.84671532846716"/>
      <point x="408.7080291970803" y="553.883211678832" type="curve" smooth="yes"/>
      <point x="408.7080291970803" y="862.8759124087592"/>
      <point x="465.55474452554745" y="994.0364963503649"/>
      <point x="585.9781021897811" y="994.0364963503649" type="curve" smooth="yes"/>
      <point x="718.7591240875912" y="994.0364963503649"/>
      <point x="759.92700729927" y="820.0802919708029"/>
      <point x="759.92700729927" y="522.7226277372263" type="curve" smooth="yes"/>
      <point x="759.92700729927" y="216.4379562043796"/>
      <point x="705.985401459854" y="84.1167883211679"/>
    </contour>
  </outline>
</glyph>
<glyph name="p" format="2">
  <advance width="1244.5182481751826"/>
  <unicode hex="0070"/>
  <anchor x="671.9124087591242" y="1112.0" name="top"/>
  <outline>
    <contour>
      <point x="1187.0291970802919" y="581.1678832116788" type="curve" smooth="yes"/>
      <point x="1187.0291970802919" y="936.029197080292"/>
      <point x="1018.4963503649637" y="1102.8613138686133"/>
      <point x="771.9854014598541" y="1102.8613138686133" type="curve" smooth="yes"/>
      <point x="634.2408759124087" y="1102.8613138686133"/>
      <point x="517.9197080291971" y="1017.0583941605839"/>
      <point x="477.4598540145985" y="951.2481751824816" type="curve"/>
      <point x="479.3941605839416" y="1055.3795620437957" type="line"/>
      <point x="425.0072992700731" y="1098.1532846715327" type="line"/>
      <point x="407.0802919708029" y="1098.1532846715327" type="line"/>
      <point x="51.4014598540146" y="1026.6861313868612" type="line"/>
      <point x="51.4014598540146" y="915.948905109489" type="line"/>
      <point x="167.91970802919707" y="875.6934306569343" type="line"/>
      <point x="168.3065693430657" y="-357.2116788321168" type="line"/>
      <point x="50.62773722627736" y="-386.30656934306575" type="line"/>
      <point x="50.62773722627736" y="-477.0364963503649" type="line"/>
      <point x="643.3503649635037" y="-477.0364963503649" type="line"/>
      <point x="643.3503649635037" y="-386.30656934306575" type="line"/>
      <point x="493.4014598540146" y="-357.2116788321168" type="line"/>
      <point x="493.4014598540146" y="-164.0" type="line"/>
      <point x="489.7226277372263" y="-2.0" type="line"/>
      <point x="515.7226277372264" y="-12.0"/>
      <point x="575.912408759124" y="-22.0"/>
      <point x="631.1970802919708" y="-22.0" type="curve" smooth="yes"/>
      <point x="971.1021897810219" y="-22.0"/>
      <point x="1187.029197080292" y="233.56934306569343"/>
    </contour>
    <contour>
      <point x="642.7664233576642" y="937.8175182481752" type="curve" smooth="yes"/>
      <point x="750.7737226277372" y="937.8175182481752"/>
      <point x="835.2262773722628" y="833.8102189781022"/>
      <point x="835.2262773722628" y="540.2043795620438" type="curve" smooth="yes"/>
      <point x="835.2262773722626" y="214.71532846715328"/>
      <point x="750.6934306569343" y="81.75912408759123"/>
      <point x="623.6569343065694" y="81.75912408759123" type="curve" smooth="yes"/>
      <point x="567.5255474452554" y="81.75912408759123"/>
      <point x="513.3357664233577" y="104.08029197080292"/>
      <point x="493.40145985401455" y="136.91240875912408" type="curve"/>
      <point x="493.40145985401455" y="865.8175182481751" type="line"/>
      <point x="515.985401459854" y="894.4671532846716"/>
      <point x="565.2846715328466" y="937.8175182481752"/>
    </contour>
  </outline>
</glyph>
<glyph name="q" format="2">
  <advance width="1196.3795620437957"/>
  <unicode hex="0071"/>
  <outline>
    <contour>
      <point x="562.3576642335767" y="-477.0364963503649" type="line"/>
      <point x="1198.6058394160584" y="-477.0364963503649" type="line"/>
      <point x="1198.6058394160584" y="-386.5328467153285" type="line"/>
      <point x="1078.4671532846717" y="-358.43795620437953" type="line"/>
      <point x="1078.4671532846717" y="1059.6350364963505" type="line"/>
      <point x="1029.080291970803" y="1093.861313868613" type="line"/>
      <point x="1006.6350364963504" y="1093.861313868613" type="line"/>
      <point x="856.087591240876" y="1055.5109489051094" type="line"/>
      <point x="806.0875912408759" y="1070.5109489051097"/>
      <point x="717.9197080291971" y="1102.087591240876"/>
      <point x="617.3503649635037" y="1102.087591240876" type="curve" smooth="yes"/>
      <point x="269.57664233576645" y="1102.087591240876"/>
      <point x="52.262773722627735" y="864.0583941605839"/>
      <point x="52.262773722627735" y="503.21167883211683" type="curve" smooth="yes"/>
      <point x="52.262773722627735" y="140.7737226277372"/>
      <point x="248.4890510948905" y="-22.386861313868614"/>
      <point x="469.2408759124088" y="-22.386861313868614" type="curve" smooth="yes"/>
      <point x="597.0729927007299" y="-22.386861313868614"/>
      <point x="704.1386861313867" y="40.99270072992701"/>
      <point x="758.4379562043795" y="109.83211678832117" type="curve"/>
      <point x="753.9854014598541" y="-46.0" type="line"/>
      <point x="753.9854014598541" y="-357.82481751824815" type="line"/>
      <point x="562.3576642335767" y="-386.5328467153285" type="line"/>
    </contour>
    <contour>
      <point x="604.8467153284672" y="139.75182481751824" type="curve" smooth="yes"/>
      <point x="495.22627737226276" y="139.75182481751824"/>
      <point x="409.32116788321173" y="248.05109489051097"/>
      <point x="410.54744525547443" y="540.2408759124088" type="curve" smooth="yes"/>
      <point x="411.16058394160586" y="865.051094890511"/>
      <point x="494.24087591240874" y="994.9416058394161"/>
      <point x="626.6277372262773" y="994.9416058394161" type="curve" smooth="yes"/>
      <point x="683.5328467153286" y="994.9416058394161"/>
      <point x="734.116788321168" y="971.6204379562043"/>
      <point x="753.5985401459855" y="939.4014598540145" type="curve"/>
      <point x="753.5985401459855" y="212.97810218978103" type="line"/>
      <point x="727.4671532846716" y="177.4306569343066"/>
      <point x="672.5912408759124" y="139.75182481751824"/>
    </contour>
  </outline>
</glyph>
<glyph name="r" format="2">
  <advance width="905.2189781021898"/>
  <unicode hex="0072"/>
  <anchor x="341.94890510948903" y="0.0" name="bottom"/>
  <anchor x="482.3065693430657" y="1110.6131386861314" name="top"/>
  <outline>
    <contour>
      <point x="47.56204379562044" y="0.0" type="line"/>
      <point x="689.4817518248175" y="0.0" type="line"/>
      <point x="689.4817518248175" y="95.02189781021897" type="line"/>
      <point x="497.3357664233577" y="120.21167883211679" type="line"/>
      <point x="496.9489051094891" y="737.6277372262773" type="line"/>
      <point x="537.043795620438" y="771.1386861313869"/>
      <point x="608.4671532846714" y="798.8540145985402"/>
      <point x="702.7007299270072" y="798.8540145985402" type="curve" smooth="yes"/>
      <point x="780.4160583941607" y="798.8540145985402"/>
      <point x="826.8029197080292" y="779.6642335766423"/>
      <point x="853.0" y="758.7591240875913" type="curve"/>
      <point x="853.0" y="1080.7007299270072" type="line"/>
      <point x="838.5474452554745" y="1087.7007299270072"/>
      <point x="814.8029197080292" y="1093.92700729927"/>
      <point x="780.8978102189782" y="1093.92700729927" type="curve" smooth="yes"/>
      <point x="606.4671532846717" y="1093.92700729927"/>
      <point x="482.32846715328463" y="899.1313868613138"/>
      <point x="464.1313868613139" y="828.7372262773723" type="curve"/>
      <point x="457.1313868613139" y="828.7372262773722" type="line"/>
      <point x="463.35766423357666" y="1008.1532846715328" type="line"/>
      <point x="463.35766423357666" y="1056.153284671533" type="line"/>
      <point x="406.35766423357666" y="1098.1532846715327" type="line"/>
      <point x="387.2043795620438" y="1098.1532846715327" type="line"/>
      <point x="50.56204379562043" y="1027.2992700729926" type="line"/>
      <point x="50.56204379562043" y="915.5620437956204" type="line"/>
      <point x="166.08029197080293" y="875.0802919708029" type="line"/>
      <point x="166.08029197080293" y="119.21167883211677" type="line"/>
      <point x="47.56204379562044" y="95.02189781021897" type="line"/>
    </contour>
  </outline>
</glyph>
<glyph name="s" format="2">
  <advance width="986.6934306569343"/>
  <unicode hex="0073"/>
  <anchor x="483.5766423357664" y="-9.0" name="bottom"/>
  <anchor x="509.4744525547445" y="1111.0" name="top"/>
  <outline>
    <contour>
      <point x="244.92700729927006" y="317.81021897810217" type="line"/>
      <point x="77.2043795620438" y="317.81021897810217" type="line"/>
      <point x="73.72262773722628" y="51.42335766423358" type="line"/>
      <point x="143.46715328467155" y="40.61313868613139"/>
      <point x="290.08029197080293" y="-23.16058394160584"/>
      <point x="482.18978102189783" y="-23.16058394160584" type="curve" smooth="yes"/>
      <point x="798.8394160583941" y="-23.16058394160584"/>
      <point x="928.6204379562042" y="126.42335766423356"/>
      <point x="928.6204379562042" y="315.7737226277373" type="curve" smooth="yes"/>
      <point x="928.6204379562042" y="502.8832116788321"/>
      <point x="767.1605839416059" y="590.043795620438"/>
      <point x="604.3503649635037" y="662.8175182481752" type="curve" smooth="yes"/>
      <point x="474.1240875912409" y="722.1386861313869"/>
      <point x="351.1897810218978" y="763.6861313868612"/>
      <point x="351.1897810218978" y="873.4598540145985" type="curve" smooth="yes"/>
      <point x="351.1897810218978" y="949.007299270073"/>
      <point x="416.6715328467153" y="999.4890510948906"/>
      <point x="512.2554744525548" y="999.4890510948906" type="curve" smooth="yes"/>
      <point x="593.6350364963504" y="999.4890510948904"/>
      <point x="649.8905109489052" y="962.8832116788321"/>
      <point x="669.3065693430657" y="904.0656934306569" type="curve"/>
      <point x="712.1824817518249" y="770.0218978102189" type="line"/>
      <point x="865.6496350364963" y="770.0218978102189" type="line"/>
      <point x="869.905109489051" y="1040.0875912408758" type="line"/>
      <point x="803.6131386861314" y="1047.0875912408758"/>
      <point x="701.8686131386862" y="1099.0875912408758"/>
      <point x="508.4087591240876" y="1099.0875912408758" type="curve" smooth="yes"/>
      <point x="226.18248175182484" y="1099.0875912408758"/>
      <point x="72.72262773722629" y="963.5693430656934"/>
      <point x="72.72262773722629" y="784.4379562043796" type="curve" smooth="yes"/>
      <point x="72.72262773722629" y="594.6715328467154"/>
      <point x="193.09489051094891" y="492.54014598540147"/>
      <point x="349.970802919708" y="421.6350364963504" type="curve" smooth="yes"/>
      <point x="523.0364963503649" y="341.7956204379562"/>
      <point x="644.4671532846716" y="300.7007299270073"/>
      <point x="644.4671532846716" y="204.985401459854" type="curve" smooth="yes"/>
      <point x="644.4671532846716" y="137.85401459854015"/>
      <point x="595.3357664233577" y="78.82481751824818"/>
      <point x="476.30656934306563" y="78.82481751824818" type="curve" smooth="yes"/>
      <point x="391.21897810218985" y="78.82481751824818"/>
      <point x="314.08759124087595" y="119.81751824817518"/>
      <point x="289.35036496350364" y="177.83211678832114" type="curve"/>
    </contour>
  </outline>
</glyph>
<glyph name="u" format="2">
  <advance width="1233.7810218978104"/>
  <unicode hex="0075"/>
  <anchor x="622.5255474452554" y="0.0" name="bottom"/>
  <anchor x="935.3430656934307" y="20.0" name="ogonek"/>
  <anchor x="609.5620437956204" y="1112.0" name="top"/>
  <anchor x="987.4525547445257" y="1070.6058394160584" name="topright"/>
  <outline>
    <contour>
      <point x="937.0583941605839" y="-19.61313868613139" type="curve" smooth="yes"/>
      <point x="1049.5109489051097" y="-19.61313868613139"/>
      <point x="1139.2554744525548" y="0.0"/>
      <point x="1189.2554744525548" y="10.0" type="curve"/>
      <point x="1189.2554744525546" y="103.95620437956204" type="line"/>
      <point x="1095.6350364963505" y="110.91970802919708" type="line"/>
      <point x="1095.6350364963505" y="1063.1240875912408" type="line"/>
      <point x="1043.3795620437957" y="1096.92700729927" type="line"/>
      <point x="1024.9999999999998" y="1096.92700729927" type="line"/>
      <point x="649.5036496350364" y="1036.883211678832" type="line"/>
      <point x="649.5036496350364" y="944.992700729927" type="line"/>
      <point x="766.5401459854015" y="908.4160583941606" type="line"/>
      <point x="766.5401459854015" y="225.16788321167883" type="line"/>
      <point x="734.2189781021898" y="197.10218978102188"/>
      <point x="679.1824817518248" y="158.45255474452554"/>
      <point x="590.5328467153286" y="158.45255474452554" type="curve" smooth="yes"/>
      <point x="494.91240875912405" y="158.45255474452554"/>
      <point x="459.62043795620434" y="211.8102189781022"/>
      <point x="459.62043795620434" y="370.33576642335765" type="curve" smooth="yes"/>
      <point x="459.62043795620434" y="1063.1240875912408" type="line"/>
      <point x="411.7518248175183" y="1096.92700729927" type="line"/>
      <point x="396.98540145985396" y="1096.92700729927" type="line"/>
      <point x="34.52554744525548" y="1036.883211678832" type="line"/>
      <point x="34.52554744525548" y="942.5401459854015" type="line"/>
      <point x="128.52554744525548" y="908.4160583941606" type="line"/>
      <point x="128.52554744525548" y="378.33576642335765" type="line" smooth="yes"/>
      <point x="128.52554744525548" y="92.51824817518248"/>
      <point x="225.43065693430657" y="-21.226277372262775"/>
      <point x="461.5109489051095" y="-21.226277372262775" type="curve" smooth="yes"/>
      <point x="599.1240875912409" y="-21.226277372262775"/>
      <point x="731.0" y="60.90510948905109"/>
      <point x="794.8686131386861" y="157.992700729927" type="curve"/>
      <point x="794.8686131386861" y="90.00729927007299" type="line" smooth="yes"/>
      <point x="794.8686131386861" y="10.072992700729927"/>
      <point x="840.992700729927" y="-19.61313868613139"/>
    </contour>
  </outline>
</glyph>
<glyph name="v" format="2">
  <advance width="1118.6934306569342"/>
  <unicode hex="0076"/>
  <outline>
    <contour>
      <point x="-21.34306569343066" y="977.4233576642335" type="line"/>
      <point x="61.68613138686131" y="944.2992700729927" type="line"/>
      <point x="417.86861313868616" y="-9.810218978102188" type="line"/>
      <point x="709.2408759124087" y="-9.810218978102188" type="line"/>
      <point x="1045.1970802919707" y="944.2992700729927" type="line"/>
      <point x="1152.5182481751822" y="977.4233576642335" type="line"/>
      <point x="1152.5182481751822" y="1069.992700729927" type="line"/>
      <point x="730.9124087591241" y="1069.992700729927" type="line"/>
      <point x="730.9124087591241" y="977.036496350365" type="line"/>
      <point x="856.7810218978103" y="944.2992700729927" type="line"/>
      <point x="700.4817518248176" y="390.31386861313865" type="line"/>
      <point x="650.9051094890511" y="199.7080291970803" type="line"/>
      <point x="596.036496350365" y="399.8905109489051" type="line"/>
      <point x="437.90510948905114" y="944.2992700729927" type="line"/>
      <point x="555.1678832116788" y="977.4233576642335" type="line"/>
      <point x="555.1678832116788" y="1069.992700729927" type="line"/>
      <point x="-21.34306569343066" y="1069.992700729927" type="line"/>
    </contour>
  </outline>
</glyph>
<glyph name="w" format="2">
  <advance width="1679.8759124087592"/>
  <unicode hex="0077"/>
  <anchor x="848.6934306569343" y="0.0" name="bottom"/>
  <anchor x="890.8248175182481" y="1111.0" name="top"/>
  <outline>
    <contour>
      <point x="-10.897810218978103" y="977.4233576642335" type="line"/>
      <point x="77.84671532846716" y="946.7518248175182" type="line"/>
      <point x="368.0510948905109" y="-9.810218978102188" type="line"/>
      <point x="641.5912408759124" y="-9.810218978102188" type="line"/>
      <point x="806.051094890511" y="602.9635036496351" type="line"/>
      <point x="850.7299270072994" y="813.5839416058395" type="line"/>
      <point x="888.8248175182482" y="603.3503649635036" type="line"/>
      <point x="1057.0948905109487" y="-9.810218978102188" type="line"/>
      <point x="1335.0802919708026" y="-9.810218978102188" type="line"/>
      <point x="1631.5036496350367" y="946.1386861313869" type="line"/>
      <point x="1738.4671532846717" y="977.4233576642335" type="line"/>
      <point x="1738.4671532846717" y="1070.6058394160584" type="line"/>
      <point x="1332.7664233576643" y="1070.6058394160584" type="line"/>
      <point x="1332.7664233576643" y="977.8102189781022" type="line"/>
      <point x="1469.5766423357666" y="944.2992700729926" type="line"/>
      <point x="1336.4525547445257" y="419.2846715328467" type="line"/>
      <point x="1291.5839416058395" y="217.86861313868613" type="line"/>
      <point x="1248.2627737226278" y="419.8978102189781" type="line"/>
      <point x="1088.5766423357666" y="1070.6058394160584" type="line"/>
      <point x="788.0072992700731" y="1070.6058394160584" type="line"/>
      <point x="624.2846715328467" y="419.5109489051095" type="line"/>
      <point x="584.6423357664232" y="217.86861313868613" type="line"/>
      <point x="541.8686131386861" y="419.2846715328467" type="line"/>
      <point x="413.7737226277373" y="945.5255474452554" type="line"/>
      <point x="538.2043795620438" y="977.8102189781022" type="line"/>
      <point x="538.2043795620438" y="1070.6058394160584" type="line"/>
      <point x="-10.897810218978103" y="1070.6058394160584" type="line"/>
    </contour>
  </outline>
</glyph>
<glyph name="x" format="2">
  <advance width="1184.4671532846714"/>
  <unicode hex="0078"/>
  <outline>
    <contour>
      <point x="116.78832116788323" y="120.05109489051094" type="line"/>
      <point x="-0.7956204379562077" y="94.40875912408758" type="line"/>
      <point x="-0.7956204379562077" y="0.0" type="line"/>
      <point x="448.7445255474453" y="0.0" type="line"/>
      <point x="448.7445255474453" y="94.40875912408758" type="line"/>
      <point x="299.8102189781022" y="120.05109489051094" type="line"/>
      <point x="447.67883211678827" y="344.6569343065694" type="line"/>
      <point x="497.3868613138686" y="431.6569343065694" type="line"/>
      <point x="557.1605839416058" y="336.6934306569343" type="line"/>
      <point x="694.6788321167883" y="120.05109489051094" type="line"/>
      <point x="586.4525547445256" y="94.40875912408758" type="line"/>
      <point x="586.4525547445256" y="0.0" type="line"/>
      <point x="1185.2627737226278" y="0.0" type="line"/>
      <point x="1185.2627737226278" y="94.40875912408758" type="line"/>
      <point x="1087.036496350365" y="119.43795620437955" type="line"/>
      <point x="761.7080291970802" y="574.7810218978102" type="line"/>
      <point x="1058.7737226277372" y="950.9416058394161" type="line"/>
      <point x="1168.6131386861314" y="977.0364963503649" type="line"/>
      <point x="1168.6131386861314" y="1069.992700729927" type="line"/>
      <point x="754.2773722627737" y="1069.992700729927" type="line"/>
      <point x="754.2773722627737" y="977.0364963503649" type="line"/>
      <point x="886.6934306569343" y="950.5547445255474" type="line"/>
      <point x="742.9197080291971" y="736.4671532846716" type="line"/>
      <point x="691.5328467153286" y="649.9197080291971" type="line"/>
      <point x="636.5036496350366" y="742.043795620438" type="line"/>
      <point x="499.5985401459854" y="950.9416058394161" type="line"/>
      <point x="616.4087591240876" y="977.0364963503649" type="line"/>
      <point x="616.4087591240876" y="1069.992700729927" type="line"/>
      <point x="11.854014598540145" y="1069.992700729927" type="line"/>
      <point x="11.854014598540145" y="977.0364963503649" type="line"/>
      <point x="109.91970802919707" y="950.9416058394161" type="line"/>
      <point x="424.43795620437953" y="506.40875912408757" type="line"/>
    </contour>
  </outline>
</glyph>
<glyph name="y" format="2">
  <advance width="1119.3065693430658"/>
  <unicode hex="0079"/>
  <anchor x="945.8321167883212" y="0.0" name="bottom"/>
  <anchor x="596.6642335766425" y="1111.0" name="top"/>
  <outline>
    <contour>
      <point x="285.6934306569343" y="-505.2919708029197" type="curve" smooth="yes"/>
      <point x="506.7664233576643" y="-505.2919708029197"/>
      <point x="615.2846715328467" y="-333.99999999999994"/>
      <point x="729.2846715328467" y="-25.0" type="curve"/>
      <point x="745.2846715328466" y="12.0"/>
      <point x="930.5839416058394" y="567.5255474452555"/>
      <point x="1054.5839416058393" y="945.5255474452555" type="curve"/>
      <point x="1155.7737226277372" y="977.4233576642335" type="line"/>
      <point x="1155.7737226277372" y="1069.992700729927" type="line"/>
      <point x="740.9124087591242" y="1069.992700729927" type="line"/>
      <point x="740.9124087591242" y="977.0364963503649" type="line"/>
      <point x="866.1678832116788" y="945.5255474452555" type="line"/>
      <point x="716.4233576642335" y="389.70072992700733" type="line"/>
      <point x="663.7810218978102" y="184.99270072992698" type="line"/>
      <point x="603.3941605839416" y="396.82481751824815" type="line"/>
      <point x="439.5547445255475" y="944.9124087591241" type="line"/>
      <point x="564.7883211678832" y="977.4233576642335" type="line"/>
      <point x="564.7883211678832" y="1069.992700729927" type="line"/>
      <point x="-23.664233576642335" y="1070.3795620437957" type="line"/>
      <point x="-23.664233576642335" y="977.8102189781022" type="line"/>
      <point x="65.49635036496352" y="944.6861313868613" type="line"/>
      <point x="413.8029197080292" y="0.0" type="line"/>
      <point x="580.094890510949" y="0.0" type="line"/>
      <point x="517.0948905109489" y="-171.0"/>
      <point x="427.4306569343065" y="-260.13138686131396"/>
      <point x="283.7226277372263" y="-260.13138686131396" type="curve" smooth="yes"/>
      <point x="239.5912408759124" y="-260.13138686131396"/>
      <point x="195.84671532846716" y="-249.45255474452554"/>
      <point x="174.13868613138686" y="-237.16058394160586" type="curve"/>
      <point x="174.13868613138686" y="-485.8394160583942" type="line"/>
      <point x="197.8832116788321" y="-498.6788321167883"/>
      <point x="237.56204379562044" y="-505.2919708029197"/>
    </contour>
  </outline>
</glyph>
<glyph name="z" format="2">
  <advance width="1061.8686131386862"/>
  <unicode hex="007A"/>
  <anchor x="540.4014598540145" y="0.0" name="bottom"/>
  <anchor x="560.1824817518249" y="1111.0" name="top"/>
  <outline>
    <contour>
      <point x="669.3430656934307" y="963.7153284671532" type="line"/>
      <point x="548.1313868613138" y="835.1459854014598" type="line"/>
      <point x="29.1021897810219" y="95.69343065693431" type="line"/>
      <point x="81.23357664233575" y="0.0" type="line"/>
      <point x="987.8321167883213" y="0.0" type="line"/>
      <point x="1032.3138686131385" y="375.0" type="line"/>
      <point x="880.6058394160584" y="396.48175182481754" type="line"/>
      <point x="755.5109489051094" y="128.5985401459854" type="line"/>
      <point x="410.4598540145985" y="104.27737226277371" type="line"/>
      <point x="534.7299270072992" y="243.57664233576642" type="line"/>
      <point x="1034.2773722627737" y="977.4306569343066" type="line"/>
      <point x="985.3722627737226" y="1069.992700729927" type="line"/>
      <point x="100.62043795620437" y="1068.8321167883212" type="line"/>
      <point x="94.04379562043795" y="717.8321167883212" type="line"/>
      <point x="256.45985401459853" y="718.992700729927" type="line"/>
      <point x="326.036496350365" y="946.3941605839416" type="line"/>
    </contour>
  </outline>
</glyph>
<glyph name="braceleft" format="2">
  <advance width="1061.8175182481752"/>
  <unicode hex="007B"/>
  <outline>
    <contour>
      <point x="622.7226277372262" y="-282.0" type="curve" smooth="yes"/>
      <point x="730.7226277372262" y="-282.0"/>
      <point x="821.2700729927008" y="-259.16058394160586"/>
      <point x="908.4014598540147" y="-238.0" type="curve"/>
      <point x="908.4014598540147" y="-144.49635036496352" type="line"/>
      <point x="867.4014598540145" y="-145.49635036496352"/>
      <point x="816.5547445255474" y="-146.49635036496352"/>
      <point x="775.7153284671533" y="-146.49635036496352" type="curve" smooth="yes"/>
      <point x="679.7153284671533" y="-146.49635036496352"/>
      <point x="596.7445255474453" y="-113.21167883211679"/>
      <point x="596.7445255474453" y="13.788321167883211" type="curve" smooth="yes"/>
      <point x="596.7445255474453" y="124.78832116788321"/>
      <point x="672.8467153284671" y="292.39416058394164"/>
      <point x="672.8467153284671" y="425.39416058394164" type="curve" smooth="yes"/>
      <point x="672.8467153284671" y="586.7372262773723"/>
      <point x="516.8248175182482" y="650.0"/>
      <point x="347.08759124087595" y="672.0" type="curve"/>
      <point x="516.8248175182482" y="695.0"/>
      <point x="672.8467153284671" y="749.2627737226278"/>
      <point x="672.8467153284671" y="910.6058394160584" type="curve" smooth="yes"/>
      <point x="672.8467153284671" y="1045.6058394160584"/>
      <point x="596.7445255474453" y="1218.2116788321168"/>
      <point x="596.7445255474453" y="1328.2116788321168" type="curve" smooth="yes"/>
      <point x="596.7445255474453" y="1453.2116788321168"/>
      <point x="677.007299270073" y="1488.4963503649635"/>
      <point x="773.007299270073" y="1488.4963503649635" type="curve" smooth="yes"/>
      <point x="814.007299270073" y="1488.4963503649635"/>
      <point x="867.4014598540145" y="1488.109489051095"/>
      <point x="908.4014598540147" y="1487.109489051095" type="curve"/>
      <point x="908.4014598540147" y="1576.0" type="line"/>
      <point x="817.4014598540147" y="1598.3211678832117"/>
      <point x="732.2700729927006" y="1620.0"/>
      <point x="624.2700729927008" y="1620.0" type="curve" smooth="yes"/>
      <point x="370.13868613138686" y="1620.0"/>
      <point x="265.7883211678832" y="1519.0"/>
      <point x="265.7883211678832" y="1351.0" type="curve" smooth="yes"/>
      <point x="265.7883211678832" y="1168.0"/>
      <point x="392.62773722627736" y="1037.4963503649635"/>
      <point x="392.62773722627736" y="879.7153284671533" type="curve" smooth="yes"/>
      <point x="392.62773722627736" y="791.4598540145986"/>
      <point x="364.5401459854014" y="738.948905109489"/>
      <point x="144.43065693430657" y="738.948905109489" type="curve"/>
      <point x="144.43065693430657" y="617.051094890511" type="line"/>
      <point x="364.5401459854014" y="617.051094890511"/>
      <point x="392.62773722627736" y="543.4744525547445"/>
      <point x="392.62773722627736" y="453.8321167883212" type="curve" smooth="yes"/>
      <point x="392.62773722627736" y="296.4379562043796"/>
      <point x="265.7883211678832" y="168.0"/>
      <point x="265.7883211678832" y="-14.0" type="curve" smooth="yes"/>
      <point x="265.7883211678832" y="-181.0"/>
      <point x="368.59124087591243" y="-282.0"/>
    </contour>
  </outline>
</glyph>
<glyph name="bar" format="2">
  <advance width="788.6788321167883"/>
  <unicode hex="007C"/>
  <outline>
    <contour>
      <point x="481.3211678832117" y="1738.0" type="line"/>
      <point x="307.35766423357666" y="1738.0" type="line"/>
      <point x="307.35766423357666" y="-182.0" type="line"/>
      <point x="481.3211678832117" y="-182.0" type="line"/>
    </contour>
  </outline>
</glyph>
<glyph name="braceright" format="2">
  <advance width="1061.8175182481752"/>
  <unicode hex="007D"/>
  <outline>
    <contour>
      <point x="437.5474452554745" y="-282.0" type="curve" smooth="yes"/>
      <point x="691.6788321167883" y="-282.0"/>
      <point x="796.0291970802921" y="-181.0"/>
      <point x="796.0291970802921" y="-13.613138686131387" type="curve" smooth="yes"/>
      <point x="796.0291970802921" y="168.77372262773721"/>
      <point x="669.1897810218977" y="296.8248175182482"/>
      <point x="669.1897810218977" y="454.6058394160584" type="curve" smooth="yes"/>
      <point x="669.1897810218977" y="543.4744525547445"/>
      <point x="697.2773722627737" y="610.0875912408759"/>
      <point x="917.3868613138685" y="610.0875912408759" type="curve"/>
      <point x="917.3868613138685" y="731.985401459854" type="line"/>
      <point x="697.2773722627737" y="731.985401459854"/>
      <point x="669.1897810218977" y="791.4598540145986"/>
      <point x="669.1897810218977" y="880.4890510948906" type="curve" smooth="yes"/>
      <point x="669.1897810218977" y="1037.8832116788321"/>
      <point x="796.0291970802921" y="1168.7737226277372"/>
      <point x="796.0291970802921" y="1351.3868613138686" type="curve" smooth="yes"/>
      <point x="796.0291970802921" y="1519.0"/>
      <point x="693.2262773722628" y="1620.0"/>
      <point x="439.09489051094886" y="1620.0" type="curve" smooth="yes"/>
      <point x="331.0948905109489" y="1620.0"/>
      <point x="240.54744525547449" y="1597.1605839416059"/>
      <point x="153.41605839416056" y="1576.0" type="curve"/>
      <point x="153.41605839416056" y="1485.5620437956204" type="line"/>
      <point x="194.4160583941606" y="1486.5620437956204"/>
      <point x="245.8759124087591" y="1486.948905109489"/>
      <point x="286.1021897810219" y="1486.948905109489" type="curve" smooth="yes"/>
      <point x="382.10218978102193" y="1486.948905109489"/>
      <point x="465.0729927007299" y="1452.4379562043796"/>
      <point x="465.0729927007299" y="1326.6642335766423" type="curve" smooth="yes"/>
      <point x="465.0729927007299" y="1216.2773722627737"/>
      <point x="388.97080291970804" y="1045.6058394160584"/>
      <point x="388.97080291970804" y="911.3795620437955" type="curve" smooth="yes"/>
      <point x="388.97080291970804" y="750.036496350365"/>
      <point x="544.9927007299269" y="692.2919708029196"/>
      <point x="714.7299270072992" y="669.6788321167883" type="curve"/>
      <point x="544.9927007299269" y="647.2919708029198"/>
      <point x="388.97080291970804" y="587.5109489051094"/>
      <point x="388.97080291970804" y="426.1678832116788" type="curve" smooth="yes"/>
      <point x="388.97080291970804" y="292.39416058394164"/>
      <point x="465.0729927007299" y="122.85401459854015"/>
      <point x="465.0729927007299" y="12.24087591240876" type="curve" smooth="yes"/>
      <point x="465.0729927007299" y="-113.98540145985402"/>
      <point x="384.81021897810217" y="-148.04379562043798"/>
      <point x="288.81021897810217" y="-148.04379562043798" type="curve" smooth="yes"/>
      <point x="247.19708029197082" y="-148.04379562043798"/>
      <point x="194.4160583941606" y="-147.04379562043798"/>
      <point x="153.41605839416056" y="-146.04379562043798" type="curve"/>
      <point x="153.41605839416056" y="-238.0" type="line"/>
      <point x="244.4160583941606" y="-260.32116788321173"/>
      <point x="329.54744525547443" y="-282.0"/>
    </contour>
  </outline>
</glyph>
<glyph name="asciitilde" format="2">
  <advance width="1289.7810218978102"/>
  <unicode hex="007E"/>
  <outline>
    <contour>
      <point x="169.94160583941607" y="549.0656934306569" type="curve"/>
      <point x="242.72992700729927" y="457.72992700729924" type="line"/>
      <point x="292.11678832116786" y="518.3065693430657"/>
      <point x="362.82481751824815" y="570.1459854014598"/>
      <point x="450.1824817518248" y="570.1459854014598" type="curve" smooth="yes"/>
      <point x="590.1094890510948" y="570.1459854014598"/>
      <point x="638.8613138686131" y="391.05109489051097"/>
      <point x="821.3430656934306" y="391.05109489051097" type="curve" smooth="yes"/>
      <point x="955.4160583941606" y="391.05109489051097"/>
      <point x="1069.9051094890513" y="484.80291970802915"/>
      <point x="1119.8394160583941" y="582.8394160583941" type="curve"/>
      <point x="1043.7299270072992" y="677.4963503649634" type="line"/>
      <point x="996.7956204379561" y="613.8540145985401"/>
      <point x="932.9635036496351" y="560.5328467153284"/>
      <point x="839.92700729927" y="560.5328467153284" type="curve" smooth="yes"/>
      <point x="712.3576642335767" y="560.5328467153284"/>
      <point x="649.4744525547444" y="737.7883211678832"/>
      <point x="465.89051094890516" y="737.7883211678832" type="curve" smooth="yes"/>
      <point x="332.3649635036496" y="737.7883211678832"/>
      <point x="212.81021897810217" y="637.5839416058393"/>
    </contour>
  </outline>
</glyph>
<glyph name="exclamdown" format="2">
  <advance width="562.2189781021897"/>
  <unicode hex="00A1"/>
  <outline>
    <contour>
      <point x="99.24087591240875" y="-411.89051094890516" type="line"/>
      <point x="471.5620437956204" y="-411.89051094890516" type="line"/>
      <point x="357.4817518248175" y="866.4233576642337" type="line"/>
      <point x="212.3211678832117" y="866.4233576642337" type="line"/>
    </contour>
    <contour>
      <point x="296.4963503649635" y="1375.2116788321168" type="curve" smooth="yes"/>
      <point x="179.75182481751824" y="1375.2116788321168"/>
      <point x="98.3941605839416" y="1312.14598540146"/>
      <point x="98.3941605839416" y="1201.014598540146" type="curve" smooth="yes"/>
      <point x="98.3941605839416" y="1118.7226277372263"/>
      <point x="159.52554744525548" y="1040.4306569343064"/>
      <point x="267.2700729927007" y="1040.4306569343064" type="curve" smooth="yes"/>
      <point x="373.40145985401466" y="1040.4306569343064"/>
      <point x="459.1459854014598" y="1111.109489051095"/>
      <point x="459.1459854014598" y="1215.2408759124087" type="curve" smooth="yes"/>
      <point x="459.1459854014598" y="1309.7591240875913"/>
      <point x="380.1751824817518" y="1375.2116788321168"/>
    </contour>
  </outline>
</glyph>
<glyph name="cent" format="2">
  <advance width="1103.3795620437957"/>
  <unicode hex="00A2"/>
  <outline>
    <contour>
      <point x="114.19708029197079" y="524.7883211678832" type="curve" smooth="yes"/>
      <point x="115.42335766423358" y="240.65693430656935"/>
      <point x="236.99999999999997" y="27.55474452554744"/>
      <point x="509.13138686131384" y="-14.321167883211679" type="curve"/>
      <point x="487.1970802919708" y="-252.0" type="line"/>
      <point x="628.6058394160583" y="-252.0" type="line"/>
      <point x="649.5401459854014" y="-21.0" type="line"/>
      <point x="818.0291970802919" y="-8.708029197080293"/>
      <point x="962.6350364963504" y="77.97080291970804"/>
      <point x="1009.1824817518248" y="131.06569343065695" type="curve"/>
      <point x="966.4014598540145" y="225.0802919708029" type="line"/>
      <point x="907.8832116788321" y="185.14598540145988"/>
      <point x="817.5620437956205" y="152.94890510948906"/>
      <point x="722.029197080292" y="152.94890510948906" type="curve" smooth="yes"/>
      <point x="572.8029197080292" y="152.94890510948906"/>
      <point x="470.93430656934305" y="285.79562043795625"/>
      <point x="472.16058394160586" y="583.7883211678832" type="curve" smooth="yes"/>
      <point x="472.77372262773724" y="889.6204379562042"/>
      <point x="545.5547445255473" y="988.6496350364963"/>
      <point x="653.5255474452555" y="988.6496350364963" type="curve" smooth="yes"/>
      <point x="699.2992700729927" y="988.6496350364963"/>
      <point x="737.5620437956204" y="961.1751824817518"/>
      <point x="749.2700729927006" y="912.4087591240876" type="curve" smooth="yes"/>
      <point x="797.4014598540147" y="699.978102189781" type="line"/>
      <point x="989.5036496350364" y="699.978102189781" type="line"/>
      <point x="1003.9562043795621" y="1037.8321167883212" type="line"/>
      <point x="946.021897810219" y="1044.2189781021898"/>
      <point x="874.3430656934306" y="1089.0218978102191"/>
      <point x="732.8321167883212" y="1099.8613138686133" type="curve"/>
      <point x="753.92700729927" y="1344.4671532846714" type="line"/>
      <point x="616.7445255474453" y="1344.4671532846714" type="line"/>
      <point x="594.6496350364964" y="1098.0218978102191" type="line"/>
      <point x="303.970802919708" y="1068.5328467153283"/>
      <point x="114.8102189781022" y="850.9489051094891"/>
    </contour>
  </outline>
</glyph>
<glyph name="sterling" format="2">
  <advance width="1535.6934306569344"/>
  <unicode hex="00A3"/>
  <outline>
    <contour>
      <point x="963.3357664233577" y="-14.0" type="curve" smooth="yes"/>
      <point x="1239.5693430656934" y="-14.0"/>
      <point x="1457.1751824817518" y="145.94160583941607"/>
      <point x="1457.1751824817518" y="365.99999999999994" type="curve" smooth="yes"/>
      <point x="1457.1751824817518" y="445.0"/>
      <point x="1428.7883211678834" y="508.13138686131384"/>
      <point x="1402.9197080291972" y="533.0" type="curve"/>
      <point x="1071.3065693430658" y="533.0" type="line"/>
      <point x="1106.4014598540145" y="497.26277372262774"/>
      <point x="1134.7883211678832" y="418.55474452554745"/>
      <point x="1134.7883211678832" y="344.64963503649636" type="curve" smooth="yes"/>
      <point x="1134.7883211678832" y="195.21167883211677"/>
      <point x="1078.3722627737225" y="114.5109489051095"/>
      <point x="919.7810218978101" y="114.5109489051095" type="curve" smooth="yes"/>
      <point x="777.7883211678832" y="114.5109489051095"/>
      <point x="681.5182481751824" y="171.5985401459854"/>
      <point x="554.2116788321168" y="204.4890510948905" type="curve"/>
      <point x="636.0437956204379" y="276.18978102189783"/>
      <point x="685.3357664233578" y="370.66423357664235"/>
      <point x="685.3357664233578" y="562.905109489051" type="curve" smooth="yes"/>
      <point x="685.3357664233578" y="753.2189781021898" type="line"/>
      <point x="965.5912408759124" y="753.2189781021898" type="line"/>
      <point x="965.5912408759124" y="873.5255474452555" type="line"/>
      <point x="685.3357664233578" y="873.5255474452555" type="line"/>
      <point x="685.3357664233578" y="1105.8175182481752" type="line" smooth="yes"/>
      <point x="685.3357664233578" y="1328.7956204379561"/>
      <point x="763.3138686131388" y="1385.6861313868612"/>
      <point x="857.7883211678832" y="1385.6861313868612" type="curve" smooth="yes"/>
      <point x="985.021897810219" y="1385.6861313868612"/>
      <point x="1114.2481751824816" y="1261.2335766423357"/>
      <point x="1151.1751824817518" y="1179.0" type="curve"/>
      <point x="1291.175182481752" y="1379.0" type="line"/>
      <point x="1204.7299270072992" y="1447.3503649635038"/>
      <point x="1059.182481751825" y="1505.0"/>
      <point x="884.7883211678832" y="1505.0" type="curve" smooth="yes"/>
      <point x="583.175182481752" y="1505.0"/>
      <point x="339.7883211678833" y="1304.0"/>
      <point x="339.7883211678833" y="999.0" type="curve" smooth="yes"/>
      <point x="339.7883211678833" y="873.5255474452555" type="line"/>
      <point x="160.85401459854012" y="873.5255474452555" type="line"/>
      <point x="160.85401459854012" y="753.2189781021898" type="line"/>
      <point x="339.7883211678833" y="753.2189781021898" type="line"/>
      <point x="339.7883211678833" y="420.64233576642334" type="line" smooth="yes"/>
      <point x="339.7883211678833" y="331.1824817518248"/>
      <point x="327.6569343065693" y="272.00729927007296"/>
      <point x="310.978102189781" y="247.94160583941604" type="curve"/>
      <point x="211.03649635036498" y="244.6861313868613"/>
      <point x="73.97080291970802" y="187.7810218978102"/>
      <point x="73.97080291970802" y="97.03649635036497" type="curve" smooth="yes"/>
      <point x="73.97080291970802" y="32.77372262773723"/>
      <point x="128.84671532846716" y="0.0"/>
      <point x="200.68613138686132" y="0.0" type="curve" smooth="yes"/>
      <point x="283.2335766423358" y="0.0"/>
      <point x="348.4963503649635" y="36.55474452554745"/>
      <point x="416.7810218978102" y="101.67883211678833" type="curve"/>
      <point x="549.8248175182482" y="99.22627737226277"/>
      <point x="695.948905109489" y="-14.0"/>
    </contour>
  </outline>
</glyph>
<glyph name="currency" format="2">
  <advance width="1489.4452554744526"/>
  <unicode hex="00A4"/>
  <outline>
    <contour>
      <point x="392.8102189781022" y="476.6861313868613" type="curve"/>
      <point x="173.8102189781022" y="258.6861313868613" type="line"/>
      <point x="271.72992700729924" y="158.76642335766422" type="line"/>
      <point x="494.72992700729924" y="383.7664233576642" type="line"/>
      <point x="565.4379562043796" y="333.86861313868616"/>
      <point x="651.6277372262774" y="307.0"/>
      <point x="742.4963503649635" y="307.0" type="curve" smooth="yes"/>
      <point x="829.043795620438" y="307.0"/>
      <point x="913.5255474452554" y="334.3868613138686"/>
      <point x="984.07299270073" y="383.57664233576645" type="curve"/>
      <point x="1209.07299270073" y="156.57664233576645" type="line"/>
      <point x="1317.051094890511" y="266.55474452554745" type="line"/>
      <point x="1094.0510948905107" y="486.55474452554745" type="line"/>
      <point x="1155.1751824817516" y="567.5839416058394"/>
      <point x="1190.4963503649633" y="664.2262773722628"/>
      <point x="1190.4963503649633" y="765.0" type="curve" smooth="yes"/>
      <point x="1190.4963503649633" y="863.7080291970802"/>
      <point x="1156.788321167883" y="955.8978102189781"/>
      <point x="1096.956204379562" y="1032.5401459854015" type="curve"/>
      <point x="1317.9562043795618" y="1250.5401459854015" type="line"/>
      <point x="1218.875912408759" y="1349.6204379562043" type="line"/>
      <point x="991.8759124087592" y="1126.6204379562043" type="line"/>
      <point x="917.8467153284671" y="1176.5182481751824"/>
      <point x="831.8175182481752" y="1203.0"/>
      <point x="742.4963503649635" y="1203.0" type="curve" smooth="yes"/>
      <point x="653.9489051094891" y="1203.0"/>
      <point x="571.2408759124088" y="1176.8394160583941"/>
      <point x="502.91970802919707" y="1128.4233576642337" type="curve"/>
      <point x="275.91970802919707" y="1355.4233576642337" type="line"/>
      <point x="169.94160583941607" y="1245.4452554744526" type="line"/>
      <point x="392.9416058394161" y="1022.4452554744524" type="line"/>
      <point x="333.20437956204387" y="943.5766423357665"/>
      <point x="300.49635036496346" y="845.7080291970802"/>
      <point x="300.49635036496346" y="745.0" type="curve" smooth="yes"/>
      <point x="300.49635036496346" y="646.4525547445255"/>
      <point x="332.3649635036497" y="553.2627737226277"/>
    </contour>
    <contour>
      <point x="742.3357664233577" y="534.0" type="curve" smooth="yes"/>
      <point x="632.3357664233575" y="534.0"/>
      <point x="537.3357664233575" y="631.0"/>
      <point x="537.3357664233575" y="749.0" type="curve" smooth="yes"/>
      <point x="537.3357664233575" y="868.0"/>
      <point x="608.3357664233577" y="976.0"/>
      <point x="738.3357664233577" y="976.0" type="curve" smooth="yes"/>
      <point x="846.3357664233577" y="976.0"/>
      <point x="947.3357664233577" y="885.0"/>
      <point x="947.3357664233577" y="751.0" type="curve" smooth="yes"/>
      <point x="947.3357664233577" y="633.0"/>
      <point x="880.3357664233577" y="534.0"/>
    </contour>
  </outline>
</glyph>
<glyph name="yen" format="2">
  <advance width="1605.7518248175181"/>
  <unicode hex="00A5"/>
  <outline>
    <contour>
      <point x="575.0948905109489" y="782.6204379562043" type="line"/>
      <point x="218.3941605839416" y="782.6204379562043" type="line"/>
      <point x="218.3941605839416" y="677.4744525547445" type="line"/>
      <point x="641.5255474452554" y="677.4744525547445" type="line"/>
      <point x="641.5255474452554" y="457.6788321167883" type="line"/>
      <point x="218.3941605839416" y="457.6788321167883" type="line"/>
      <point x="218.3941605839416" y="352.53284671532845" type="line"/>
      <point x="641.5255474452554" y="352.53284671532845" type="line"/>
      <point x="641.5255474452554" y="118.66423357664233" type="line"/>
      <point x="447.39416058394164" y="91.56934306569343" type="line"/>
      <point x="447.39416058394164" y="0.0" type="line"/>
      <point x="1205.3941605839416" y="0.0" type="line"/>
      <point x="1205.3941605839416" y="91.56934306569343" type="line"/>
      <point x="994.2627737226277" y="118.66423357664233" type="line"/>
      <point x="994.2627737226277" y="352.53284671532845" type="line"/>
      <point x="1422.3941605839416" y="352.53284671532845" type="line"/>
      <point x="1422.3941605839416" y="457.6788321167883" type="line"/>
      <point x="994.2627737226277" y="457.6788321167883" type="line"/>
      <point x="994.2627737226277" y="677.4744525547445" type="line"/>
      <point x="1422.3941605839416" y="677.4744525547445" type="line"/>
      <point x="1422.3941605839416" y="782.6204379562043" type="line"/>
      <point x="1033.3430656934306" y="782.6204379562043" type="line"/>
      <point x="1349.817518248175" y="1357.6569343065694" type="line"/>
      <point x="1512.7445255474452" y="1390.9124087591242" type="line"/>
      <point x="1512.7445255474452" y="1486.0" type="line"/>
      <point x="993.8394160583941" y="1486.0" type="line"/>
      <point x="993.8394160583941" y="1390.9124087591242" type="line"/>
      <point x="1182.0802919708028" y="1357.9489051094893" type="line"/>
      <point x="956.2846715328467" y="902.6204379562043" type="line"/>
      <point x="899.1897810218978" y="782.6204379562043" type="line"/>
      <point x="843.3211678832116" y="902.6204379562043" type="line"/>
      <point x="621.5547445255473" y="1359.4963503649635" type="line"/>
      <point x="771.4525547445255" y="1390.9124087591242" type="line"/>
      <point x="771.4525547445255" y="1486.0" type="line"/>
      <point x="104.45255474452556" y="1486.0" type="line"/>
      <point x="104.45255474452556" y="1390.9124087591242" type="line"/>
      <point x="222.20437956204378" y="1357.6569343065692" type="line"/>
    </contour>
  </outline>
</glyph>
<glyph name="brokenbar" format="2">
  <advance width="749.9927007299269"/>
  <unicode hex="00A6"/>
  <outline>
    <contour>
      <point x="461.978102189781" y="1738.0" type="line"/>
      <point x="288.01459854014604" y="1738.0" type="line"/>
      <point x="288.01459854014604" y="928.0" type="line"/>
      <point x="461.978102189781" y="928.0" type="line"/>
    </contour>
    <contour>
      <point x="461.978102189781" y="626.0" type="line"/>
      <point x="288.01459854014604" y="626.0" type="line"/>
      <point x="288.01459854014604" y="-182.0" type="line"/>
      <point x="461.978102189781" y="-182.0" type="line"/>
    </contour>
  </outline>
</glyph>
